<?xml version="1.0" encoding="UTF-8"?>
<svg id="Layer_1" data-name="Layer 1" xmlns="http://www.w3.org/2000/svg" viewBox="0 0 1933.45 1454.88">
  <defs>
    <style>
      .cls-1 {
        fill: #fff;
        fill-rule: evenodd;
      }

      .cls-2 {
        fill: none;
        stroke: #fff;
        stroke-miterlimit: 10;
        stroke-width: 10px;
      }
    </style>
  </defs>
  <rect width="1933.45" height="1454.88"/>
  <path class="cls-1" d="M1390.47,363.88h3v1h-5c.67-.33,1.33-.67,2-1ZM1391.47,365.88c1.33,1.67,2.67,3.33,4,5-1.67-.67-3.33-1.33-5-2,2.3,2.32,1.8,2.95,5,2,.67.67,1.33,1.33,2,2-2.04,7.19,1.25,12.52,11,19-2.52,1.3-1.43,1.15-4,1,.7,3.82,3.15,5.5-1,9-.16-.8-.01-2.01-1-1,3.98,5.73,2.1,11.82,0,19h3c-.18-3.6-.18-1.39,2-3-.33,1.67-.67,3.33-1,5-3.06.02-1.4-.96-4,1,2.7,1.6,1.38.34,3,3l-3-1c2,2.41,2.13,2.21,6,3-.67.67-1.33,1.33-2,2-2.6.42-.55-.98-3,1,3.98.84-.34,1.04,4,5-8.09,2.92,2.67,4.24-5,7,2.46,1.95.4.57,3,1-2.79,5.2.37,2.13-4,7,1.87.81,3.01,19.74-4,27h5c-3.2,3.44-2.49,2.96-4,7,3.06.02,1.4-.96,4,1-5.39,1.38-2.5,6.46-1,10-2.6.42-.55-.98-3,1,3.02,1.26,1.2-.02,3,2-1.33.67-2.67,1.33-4,2,3.47.82,1.26-1.16,3,2-2.6.42-.55-.98-3,1,2.9.53,4.9-.79,3,2-3.65.91-2.04-.04-4,2h4c-2.35,2.97-2,10-2,10-.33,1-.67,2-1,3,5.3,2.15-2.21,10.92,2,18l-3-1c2.41,10.15-3.33,15.06,3,23-1.67.33-3.33.67-5,1,.67.67,1.33,1.33,2,2h3c-2.43,4.48.26,1.06-1,5l-4,1c6.5,3.3-2.08,70.54,4,73-.33.67-.67,1.33-1,2l-3,2c3.02,1.26,1.2-.02,3,2-3.12.49-.66-1.12-3,1,3.89.49,2.17,5.02,3,9-2.6.42-.55-.98-3,1,5.15,2.59-2.9,18.7,2,16,.33,1.67.67,3.33,1,5-3.19,1.2-.49,4.84-5,10l4-1c-6.41,16.96,4.78,38.6,0,55-1.33.67-2.67,1.33-4,2,4.47.92,7.16,26.91,2,36,2.95.6,1.07-1.05,3,2-1.43.18-2.18,12.92-3,15,1.6,1.3.6.9-2,2,4.58,3.53,2.57,2.36,5,9h-4c3.62,8.12,4.47,43.52-1,48,1.33.67,2.67,1.33,4,2-.87.48-.5.14,0,1v3c-1.65,1.13.19,0,0,2-.98,1.92-2.34,3.62-4,5l3,2s1.49,21.43-3,20c2.65,4.53-.19,5.77,2,9,.67-.33,1.33-.67,2-1-1.75,2.4-1.03,1.67-4,3l4,1c-5.09,8.36,1.51,6.61-4,14h4c-2.12,3.4-1.1.15,0,4l-3-1c1.31,6.4,2.17,11.58-1,16,3.51.82,1.46-1.26,3,2-1.68.86-3.37,35.2-1,34-3.14,8.9-7.05,32.47,11,35-.09,3.16-1.75,1.44,1,3,1.34-1.79-.18-1.52,2-1,2.24,1.41,2.51,1.97,4,4,4.29-1.94,1.8-3.71,5,0-2.5,1.19-.98-.64-2,2h4c-.33-1.33-.67-2.67-1-4,1.33.33,2.67.67,4,1-.92,4.14-1.24,3.24,3,3l3,6c.49-2.69-.88-.83,2-3,2.08,4.94,2.78,3.06,7,5-1.39-1.92-.1-.6-2-2,1-.67,2-1.33,3-2v2c2.75,2.47,1.93.88,2,4,3.54-.04,2.51-.34,7,1-.67-1.67-1.33-3.33-2-5,.67.33,1.33.67,2,1,.93,3.66,1.42,3.88,1,7,7.46-2.92,37.85,9.58,48,17,.6-2.95-1.05-1.07,2-3,.67,2,1.33,4,2,6,3.19-2.32,1.43-2.94,5,0,2.47,1.38-.74,2.7,2,2,1.66,1.96,2.31.74,7,5,.4-3.8-1.12-1.24,1-4v3c2.2,1.81,1.92,1.89,3,5-4.33-3.78-2.07-1.27-7-4,1.62,2.24,3.19,3.09,5,5-5.64-1.67-5.85-3.22-9-7,1.34,6.32.63,4.6,6,8-.67.33-1.33.67-2,1-4.89-2.43-5.17-2.66-5,3l-6-3c.67-1,1.33-2,2-3-.67.33-1.33.67-2,1-.67-.33-1.33-.67-2-1,2.78,6.36,5.61,6.34,9,10-2-.33-4-.67-6-1-2.38-2.08.16-.87-3-1-1.53,4.13,1.29,2.4-3,4-.06-7.18-2.24-3.99-3-9l-3,3c2.37.28,1.25-.22,4,1v4h-1c-1.69-4.5-5.47-2.51-4-6-3.03,2.11-2.53,2.5-8,3,3.33-3.86.25.04,1-5-1,1.67-2,3.33-3,5,.33,1,.67,2,1,3-1-.67-2-1.33-3-2,.67,1,1.33,2,2,3,1.33-1,2.67-2,4-3-1.94,4.58.13,5.36-5,9,.33-.67.67-1.33,1-2h-2c.33-.67.67-1.33,1-2-1.33.67-2.67,1.33-4,2,.67-1,1.33-2,2-3-2.49-2.11-.5-2.37,1-6-4.36,2.84-5.52,3.29-6,9-1-.33-2-.67-3-1v-5c-1,2.33-2,4.67-3,7-2.33-1.33-4.67-2.67-7-4v-1c2.33.67,4.67,1.33,7,2,.06-4.47-.18-.09,2-4-3.39.39-2.63-.17-7,1,.3-3.42,1.23-1.49-1-4-.71,8.79-21.18,2.09-22-4l-6,3c-1.27-4.12-7.94-5.09-15-3,1.24-1.77,1.57-1.65,3-3-5.35-.08-3.77.17-8-2,1,2.33,2,4.67,3,7-1.33.67-2.67,1.33-4,2-4.35-2.49-1.97-2.94-6,0v-5c-2.66,2.46-1.53,1.36-2,4-3.33-2.67-6.66-5.34-10-8-.4,3.8,1.12,1.24-1,4-1.36-2.05-1.12-1.61-3-3v3c-1.96-1.79-3.06-4.34-3-7-2.16,2.02-1.87,2.78-2,8-1.67.33-3.33.67-5,1,1.33-2.33,2.67-4.67,4-7-.67.33-1.33.67-2,1-.64,2.19.93,4.02-3,3-.01-3.11.08-1.59-1-5h-1c-.62,5.45.94,4.49-3,6-1.02-3.75-1.02-1.32-5-5-2,1.67-4,3.33-6,5-5.6-4.32-8.26-5.69-13-9-.33,1.67-.67,3.33-1,5-1.33-2.67-2.67-5.33-4-8-.47,4.51-1.77.64-5,1,2.12,2.34.44-.11,1,3-3-1.33-6-2.66-9-4,.39,3.43.6,2.88-3,6,.67-2,1.33-4,2-6-1.33-.33-2.67-.67-4-1,.33,1,.67,2,1,3-3.37-1.82-2.27-.72-5-5-.67,1.33-1.33,2.67-2,4-3.89-2.04-4.68-3.5-9-6,1.16,3.64,1.49.9,0,5-3.06-.09-2.49.33-7,1,.67-1,1.33-2,2-3-3.98,2.32-1.14,4.89-5,4-1.37-.22-.44.3-1-1,.67-.33,1.33-.67,2-1h-2c-.49-2.69.88-.83-2-3,.63,3.97,1.6,4.36-2,7,.66-3.44-.73-1.92,1-5-1.33.67-2.67,1.33-4,2,2.21,1.99,1.61,2.29,2,8h-1c-1.58-4.15-.41-.56-5-3,.33,1.33.67,2.67,1,4-.67-.33-1.33-.67-2-1v-2c-.33-1.33-.67-2.67-1-4h3c.67,1,1.33,2,2,3-1.33-2-2.67-4-4-6-1.89,3-2.01-1.1-5,2,2.69.49.83-.88,3,2-2-.33-4-.67-6-1v1c.4.61,1.57,3.61-2,6-.32-2.52.93-5.08-2-4-1.06-1.97-1.04,1.02-2-1-4.99-.12-5.4-2.7-10-6-2.49,2.87-3.87,3.53-10,3v-1c1-.33,2-.67,3-1v-1c-1,.67-2,1.33-3,2-4.24.99.44,1.49-4,2,0,0-12.9-2.08-13-2,1.89,2.54.93.5-1,3-4.22-6.41-6.91-.9-13-2v-4c-1.33,1.67-2.67,3.33-4,5-.4-3.8,1.12-1.24-1-4-1.67,1.33-3.33,2.67-5,4v-6c-3.78,3.65-8.45,2.2-12,4v-3c-2.77-1.16-.53-.31,0-3-1.67,1.33-3.33,2.67-5,4-.49-2.69.88-.83-2-3-1,2.33-2,4.67-3,7-.67-.33-1.33-.67-2-1,.67-1.67,1.33-3.33,2-5-4.61,1.58-2.67,2.68-6,1,2.96-1.93.02-.25,2-3-2.65,1.76-2.72,2.63-6,4v-1c2.65-1.41.87-.53,0-3-2.75,1.18-2.2,1.66-5,1h2c.33-.67.67-1.33,1-2-10.85,4.28-13.08-.18-22,6,.67-1.67,1.33-3.33,2-5-2.41,1.24-5.22,2.88-6-3h1c1.67.67,3.33,1.33,5,2-2.33-1.33-4.67-2.67-7-4-.67,3.79-1.89,3.38-6,6-2.77-2.38-.08-2.04-4-4-.41,3.14.81,2.72-3,5v-4c-.33.67-.67,1.33-1,2-1.33,1.67-2.67,3.33-4,5,.67-2.33,1.33-4.67,2-7h-1c-1.36,2.05-1.12,1.61-3,3,.33-1.33.67-2.67,1-4-3.25.85-13.7,2.19-12-1-2.33,2-4.66,4-7,6,.67-1,1.33-2,2-3-1.33.67-2.67,1.33-4,2-.46-5.16,2.13-3.03-3-5v8c-1.67.33-3.33.67-5,1-1.33-2-2.67-4-4-6,3.99-1.45.62-.08,3-3-4.18-.35-3.54-.2-7-3-.15,4.57.48,2.58-1,6-.67-.33-1.33-.67-2-1-.91-3.65.04-2.04-2-4,.33,3.33.67,6.67,1,10-.67-.33-1.33-.67-2-1-.78-2.72-.85-7.45-3-6-.33-.67-.67-1.33-1-2,.33,2.33.67,4.67,1,7h-4v-1c.29-3.16,1.37-3-1-6,.33,1,.67,2,1,3-1.85,1.7-.48,1.97-2,5l-2-2c-.02-3.06.96-1.4-1-4-.41,3.9.78,3.4-2,6h-1c.67-2,1.33-4,2-6-.68-.03-3.69.47-2-1l-2,2c.33,1,.67,2,1,3-.67-.33-1.33-.67-2-1-1.33-2.33-2.67-4.67-4-7v5c2,1.67,4,3.33,6,5-1,.33-2,.67-3,1-2.32-5.35-1.57-.96-5-3-.33-4.62-1.68-3.72,0-6-2.79-1.85-.14-.72-4-1v1c1.33,2.33,2.67,4.67,4,7-2.23.15-1.16-1.07-2,1-4.88-1.5-18.11,1.67-21-1-.67-1-1.33-2-2-3,.33-.67.67-1.33,1-2,4.86,1.54,1.97,1.53,5-1-4.59-.37-4.31.91-5-3-2.76,1.98-5.13,7.3-7,10-5.08-2.66-2.29-1.09-8-1-.49-3.12,1.12-.66-1-3-.23,2.29.48,1.53-1,4-5.44-2.33-.13-1.22-6,0-.26-4.93,1.13-2.95-2-6,.26,4.87,2.48,4.79-2,7-1.91-3.79-.43-2.06-3-3-.82,3.47,1.16,1.26-2,3-1.21-2.92-1.4,1.73-3-1-1.95-2.46-.57-.4-1-3-3.2,2.52-2.16,1.57-2,5h-5c1.16-4.18,2.19-5.58-2-9,1.5,3.64,1.69,4.64,1,9-7.73-1.81-9.34,1.45-13-7v-1c1.67.67,3.33,1.33,5,2-1.91-2.73-2.5-2.78-6-4,.54,3.37.09,6.56,2,9-1.33.33-2.67.67-4,1-.33-4.53,1.09-3.28-3-6,1.81,4.66,3.41,2.23,0,6-3.86-1.43-2.54-.63-7-1-.34-2.53.72-2.92-2-5v7c-6.88-.36-4.71,2.1-11,0-.33-2-.67-4-1-6h-2v1c1.51,4.53,2.21,4.33,1,7-4.55-2.62-8.78-1.83-18-3-.24,3.6.48.38-2,3-.54-3.37-.33-3.65-4-6-.07,3.79,2,2-2,4-1.04-4.89-.14-1.55-3-4,.67,2,1.33,4,2,6-2-1.67-4-3.33-6-5-.24,4.47,1.08,2.27-1,5h-1c-1.26-3.88-.22-5.32-3-3,.67,1.67,1.33,3.33,2,5-5.82-1.89-5.82.22-8-3-2.08,2.38-.87-.16-1,3-4.33-1.47-3.41-.97-5-5h-1c-.06,5.61,2.07,3.66-2,6-1.35-2.05-1.12-1.61-3-3v4c-5.57-1.59-4.97-.82-9-5-.26,3.78.01,1.64-1,6h-1c-.93-4.33-1.36-4.7-4-7,1.43,2.42,2.12,5.2,2,8-1.67-1.67-3.33-3.33-5-5,.33,1.67.67,3.33,1,5-3.99-1.45-3.64-1.66-7-1-.67-1.67-1.33-3.33-2-5-.67.33-1.33.67-2,1,1.14,4.18,1.43,2.21,0,6-6.84-1.82-7.76-.21-13-2v4c-2.67-1.33-5.33-2.67-8-4-1.54,4.2.18,2.45-4,4-.14-.95-10.58-1.62-12,2-2.98-2.03-1.2-.71-2-3-.67.33-1.33.67-2,1,.33,1,.67,2,1,3-.67-.33-1.33-.67-2-1-1.15-4.03-1.01-5.97-4-9v8c-.67-.33-1.33-.67-2-1l1-7c-2,1.33-4,2.67-6,4,.52-4.65.44-4.66-1-10-3.11,1.45-3.29,1.76-7,1,.67,1.33,1.33,2.67,2,4,.39-2.63,1.24-1.61,5-3-1.52,4.74-2.23,4.62,0,10-2-1.33-4-2.67-6-4,1.33,2.33,2.67,4.67,4,7-2.88-.84-1.69-.88-3,0-3.94-2.12-1.52-3.48-6-6,.67,1.67,1.33,3.33,2,5-4.22-1.55-3.35-2.41-6-5,.33,2,.67,4,1,6h-1c-2-1.67-4-3.33-6-5v1c2.05,1.36,1.61,1.12,3,3-5.96-.65-9.67-1.62-13,4-4.33-1.96-4.3-2.76-7-6,.33,2,.67,4,1,6-5.33.67-10.67,1.34-16,2,1.34-2.76.63-.29,1-3-4.66,2.62-7.87,4.88-10,3-1-.33-2-.67-3-1-1.54,6.29-11.18,1.2-13,7-8.8-3.95-13.92,4.64-24,0v4l-4-3c.33,1.67.67,3.33,1,5l-6-3c-1.28,4.47-5.78,3.69-14,2v4l-5-3c1.03,3.52,2.2,1.4-1,4-1.6-2.7-.34-1.38-3-3,.33,1.67.67,3.33,1,5-2-1.67-4-3.33-6-5,1.02,3.85,1.97,2.06,0,5-2.83-2.07-1.23-1.49-4-2v3l-5-3c.78,4.43,2.01,1.83,0,5-1.49-2.55-1.48-2.49-4-4-.33,1.33-.67,2.67-1,4-2.04-1.99-.78-1.59-4-3,.67,1.33,1.33,2.67,2,4-6.72-1.25-5.66-.09-11-2v4l-5-3c-.33,1.67-.67,3.33-1,5-1.65-3.61-.27-2.35-4-4,1,1.67,2,3.33,3,5-2.33-1.33-4.67-2.67-7-4l3,6h-3c-1.28-3.01-.63-2.25-3-4,.29,3.16,1.37,3-1,6-1.06-3.21-1.16-3-3-5v6c-1.67-1.33-3.33-2.67-5-4v5c-1.67-1.33-3.33-2.67-5-4,.33,1.33.67,2.67,1,4-5.01-1.69-2.92-3.25-6,0,.67-.33,1.33-.67,2-1-1.8,2.04-.02.71-3,2-1.94-3.04-.33-1.04-3-2,.33,1.67.67,3.33,1,5l-4-3v4c-7.15-3.09-8.73,3.28-16-1,.67,1.33,1.33,2.67,2,4-14.73-.41-65.15,29.34-79,40-1.39-1.37-2.38-5.55-3-2-5.36,4.27-5.16,2.13-6,9h-3c-.67-.33-1.33-.67-2-1l2-3c-5.18,3.72-.87,6.54-9,8v2c-.67-.33-1.33-.67-2-1v1c-4.96-.88-2.74-2.94-6,1,3.79.07,2-2,4,2-1,.33-2,.67-3,1-1.33-1.33-2.67-2.67-4-4-.39,2.88-4.05,4.3-6,1h5l-2-6c-.67.67-1.33,1.33-2,2,2.5,1.19.98-.64,2,2-.67-.33-1.33-.67-2-1-1.96,1.81-3.07,1.36-7,2,1.27-3.28.92-1.2,1-5-1-.33-2-.67-3-1,1,3.72,2.25,1.46-1,5-.54-4.57.68-1.14-4-4,.67,1.67,1.33,3.33,2,5-4.88.6-5.7.79-7,3l-1-3c1.29-1.53.22-.01,0-2-1.87,2.87-1.41,1.59-1,5h-3c-.97-7.53-4.76-7.7-8-15,.67.33,1.33.67,2,1-2.49-4.29-4.84,4.49-8,6,.9-2.19,0-1.05-5-3,.34,1.21-6.29,7.54-8,8-.33-1.33-.67-2.67-1-4-.66,1.76-11.76,8.33-13,8v-1l-1-3c5.37-2.4,11.72-6.82,16-9-1.52-3.06,2.21-6.33,5-10,1.33.67,2.67,1.33,4,2-.69-4.81,2.31-7.33-4-11,2.12,4,2.29,1.66,1,5-3.14-.33-.86-1.33-3,1,.98,3.73,1.92.81,0,4-2.36-2.85-5-2-5-2-2.08,2.38-.87-.16-1,3-1.33-.33-2.67-.67-4-1v-5c1,.67,2,1.33,3,2-.67-1.33-1.33-2.67-2-4,6.48-.17,3.64-1.22,8-4,.76,1.19-.4,1.23,1,1,3.97-3.49,8.33-6.51,13-9-1.92-1.39-.6-.1-2-2,10.41,1.62,28.2-21.45,39-20-.7-4.95-3.04-2.7,1-5,1.33-.67,2.67-1.33,4-2v-6c.33,1.67.67,3.33,1,5,1.33-.67,2.67-1.33,4-2-2.92-1.61-4.1-1.13-3-4,3.67.92,6.56-.53,11-4-.33-1.97-1.3-.48,0-2,1-.33,2-.67,3-1,.33,1.33.67,2.67,1,4h-1v-2c-.67.33-1.33.67-2,1,.67.67,1.33,1.33,2,2,2.86-1.84,5.05-1.76,7-4-2.96-.03-2.03.22-5-1,.33-1.67.67-3.33,1-5h1c1.62,3.59,2.03,2.39,5,5,.63-4.81,7.75-5.36,12-7-1.08-1.69-.7-.13,0-2v-2c3.33.67,6.67,1.34,10,2-1-1.33-2-2.67-3-4,3.33-.33,6.67-.67,10-1-3.14-2.77-2.54.31-4-4l6,3c-1-1.33-2-2.67-3-4,1.67-.33,3.33-.67,5-1,.67,1.33,1.33,2.67,2,4-.04-5.93.03-2.84,4-7-1.9-1.35-2.37-2.51-4-4,.65,5.4-.02,5.8-4,5,.17-3.92.88-.45-2-5-.33,1.67-.67,3.33-1,5h-1l-2-3c-.88,4.36-3.36,1.91-6,9l5-3c-.33,1.33-.67,2.67-1,4h-6c.33-1.33.67-2.67,1-4-2.5-1.19-.98.64-2-2,2.6-.43.55.98,3-1-2.68,1.7-4.12-.57-3,4v6c-.67-.33-1.33-.67-2-1v-7c-4.31,3.49-1.24,4.49-7,5,2.06,2.21,1.38,1.88,5,3v1c-4.5-.25-6.7-2.26-8,1-3.06,2.4-2.75,2.17-2,6h-4c.67-.33,1.33-.67,2-1-.45-5.77.73-4.62,3-8-1.33-.33-2.67-.67-4-1-1.86.73-.38.77-2,0-1,.67-2,1.33-3,2,.33.67.67,1.33,1,2,4.07-.66-.01.51,4,1l-2,3h-3c-1.3-2.94-.59-6.26-3-5v-2c-1.62,2.52-3.15,3.95-4,7-4.61-3.44-1.23.27-7-2v5l-3-3c.03,4.46,1.96,4.01-2,7v-4c-3.1.95-1.23,1.21-5,0,.33,1.33.67,2.67,1,4-3.63-2.61-1.31.26-2-4-4.77,2.99-1.95,3.96-7,1,1.42,3.99,3.4,3.72-1,6-1.33-3.64-1.81-.65-6-4,.42,4.1.33,2.46-1,4-.48,2.56.67.33-1,3-1.87-2.87-1.41-1.59-1-5-.67.33-1.33.67-2,1-1.67,3.33-3.33,6.66-5,10v-3c-2.08-2.38-.87.16-1-3h-4c.33,3.15,1.33.87-1,3l-2-3c1,2.33,2,4.67,3,7-1.33.33-2.67.67-4,1,.88-5.84-.95-4.14,0-9-.67.67-1.33,1.33-2,2-1.67.33-3.33.67-5,1,1,1.33,2,2.67,3,4-7.58.92-6.8,1.67-10,6-.67-.33-1.33-.67-2-1-.38-3.59.52-1.24-3-2,2.88-7.59.27-11.57-4-16,5.43-2.1,4.45-7.95,9-3h-4v1c4.2-.32,3.54-1.33,7,1-1,.67-2,1.33-3,2-1.9-1.3-.09-.32-4,1v1c2.67.67,5.33,1.33,8,2,.28-2.37-.22-1.25,1-4-1.33.67-2.67,1.33-4,2,2.27-3.05,2.83-3.33,5-4-1.33-1.67-2.67-3.33-4-5h3c.27,4.59,1.92,2.17,8,1v-1l-4-3c-.87,2.6.4,3.49-2,2-.67-1.33-1.33-2.67-2-4,3-.33,6-.67,9-1l-2,3c1-.67,2-1.33,3-2-2.57-2.18-4.19-1.66-6-5,3.55-4.37,3.81-1.26,3-6,10.2,1.46,27.46-16.88,38-15l-2-3c4.76.08,10.92-1.32,12-7,2.33.67,4.67,1.33,7,2,3.38-6.58,16.88-10.66,21-9-.4-3.5-.51-2.11,1-5,5.23,1.05,40.48-11.55,47-15,.6-2.95-1.05-1.07,2-3,2.53,2.68,6.07-3.83,11-1-4.63-10.42-2.42-27.25,0-37-2.23.17-1.04.12-2-1-1.28-24.03-2.76-91.97,12-105l-4-2v-1l8-4c12.57,8.44,36.12-13.92,43-19,.44,4-.99,2.1,2,5,.28-2.37-.22-1.25,1-4-2.47-1.13-1.13.5-2-3l4,3c-1.39-1.92-.1-.6-2-2,5.95-3.45,7.58-3.6,10-8,4.16,1.37,3.03-.26,9,1-.64-2.93-1.72-.54,0-3,2.82-4.98,5.95-6.34,10-5,3.11-20.95,5.16-37.66,2-57l3,1c-11.91-18.43,7.62-100.35-3-112-1.28-1.41,2.27-17.83,1-21l3,1c-9.47-21.96,2.6-108.92,8-125l6,1v-4l3,3c-.33-2-.67-4-1-6,12.77-1.26,98.47-81.68,109-93,10.93-11.74,42.34-35.7,51-34,2.75.54,7.32.81,5-1,2.2,1.81,1.92,1.89,3,5-3.67-.06-2.89-1.55-4,4l2,1-9,3c1.39,1.92.1.6,2,2l2,2c2.79-2.8,5.53,1.76,10,0,0,5.52-.27,5.88,2,8,3.63-1.65,3.17,2.67,6,0l3-1c-.75-3.95-2.54-3.19,3-5l-2,3c4.91-.19,25.15,6.74,28,8l-2,3c4.39.41,12.19,8.52,17,7-.33,1.67-.67,3.33-1,5l4-2c-.33,1.33-.67,2.67-1,4,5.28-1.86,5.24,2.06,12,4l-3,3c5.17.41,5.05,3.11,6,1,2.76-1.34.29-.63,3-1,1.09,1.95-.04,1.9,2,1-.33,1.67-.67,3.33-1,5l7-1c-.33,1.67-.67,3.33-1,5,1.21-.61,5.11-2.14,3,0,3.82,2.32,2.26-.04,2,4l4-4c.33,1.67.67,3.33,1,5l2-3c.69,6.98,8.07,8.9,11,8-.33,1.33-.67,2.67-1,4,2.84-1.11,1.45-.86,4-1l-2,3,5-3c.45,6.14,4.51,4.3,3,10l5-4v6c2.88-4.45.07.16,5-2v4l3-3c.76,6.28,7.6,5.72,7,11l4-3c-.33,1.33-.67,2.67-1,4,6.96-3.13,7.95.09,12-4,2.97,2.04-.33,2.85,3,2-1.14-3.83-1.97-1.57,0-5l2,3c.4-4.03.33-3.91,2-6,.32.61,6.15-.03,10-1,.4,3.8-1.12,1.24,1,4,.52-3.31,17.47-10.61,26-3h-2c.33.67.67,1.33,1,2-2.33-.67-4.67-1.33-7-2,2.12,4,2.29,1.66,1,5-3.15-.33-.87-1.33-3,1-1.19,2.5.64.98-2,2-1-5.72-4.49,5.46-8-2l3,1c-.67-1-1.33-2-2-3-4.65,3.12-3.31,3.9-9,2,.67,1.33,1.33,2.67,2,4-3.97.12-2.07-.9-5,1,3.78,2.39,3.85,1.98,2,5-.67-1.33-1.33-2.67-2-4l-4,3c.93-4.74,2.07-4.84-1-8-.28,2.81.53.74-2,2,2.26,4.13,2.45-.14,2,7l-3-2c1.14,4.18,1.43,2.21,0,6l6-3v1c-2.4,1.75-1.67,1.03-3,4,3.46.43,5.86.66,5,5,4.14-.18,12.62,5.61,14,9,1.33-1,2.67-2,4-3-.67,2-1.33,4-2,6,5.02-2.08,2.55,1.44,7-2,.24,4.47-1.08,2.27,1,5,3.08-1.66,3.84,4.2,10,3-.67,1-1.33,2-2,3,4.89.24,10.06,1.02,11,6,1.34-1.43,1.25-1.76,3-3,.42,5.08-.53,2.33,2,6,1.6-.33,9.31,1.14,8,6,3.64-2.26-.7-1.56,4-3v4l3-3c.66,4.97,4.04,6.74,7,7-1.04-2.63-1.56-1.66-1-4,1.67,1,3.33,2,5,3-.67-1-1.33-2-2-3,2.67,1.33,5.34,2.67,8,4-2.33-2.67-4.66-5.33-7-8,2.67,1.67,5.34,3.33,8,5v-4h-5c2.63-3.88,29.99-13.89,35-13,.02-3.06-.96-1.4,1-4l3,4c.46-3.14,1.4-3.79,4-7h11c-.67-1.33-1.33-2.67-2-4,22.71-1.5,63.57-38.68,79-34,.86-3.74,6-5.49,11-8,1.95,2.46.57.4,1,3l6-7c1.33.67,2.67,1.33,4,2v-1c-3.04-.88-.26-1.44,1-3,14.54-1.28,44.1-26.33,56-21l-3-3,5-1v3h1c-.33-1-.67-2-1-3,.33-.67.67-1.33,1-2h1c1.67.67,3.33,1.33,5,2-.67-1.33-1.33-2.67-2-4,5.17-.19,7.11-5.79,14-2,.53-4.37-.32-3.4,4-6,.92,2.93.24,5.3,3,4-.67-1-1.33-2-2-3,.67-.67,1.33-1.33,2-2,2.09.41,8.53-.75,11,0,.6,2.95-1.05,1.07,2,3v-6c1.95,2.91,2.56,2.02,4,6-3.33-.55-1.09-1.06-3,2,4.85-.92,1.46-1.95,5,1-.33-1.33-.67-2.67-1-4,.67-.33,1.33-.67,2-1h-2c.67-.67,1.33-1.33,2-2,3.43,2.52.71,1.52,5,3,3.14-10.61,7.1-14.91,11-21h-4v-1h4c-1.09-13.37,5.43-16.5,11-30h1c.33,1.33.67,2.67,1,4,.65-5.35,1.15-1.46,2-5ZM1384.47,366.88h2c-1.39,1.92-.1.6-2,2v-2ZM1387.47,371.88c.67.33,1.33.67,2,1-.67-.33-1.33-.67-2-1ZM1406.47,380.88c.67.67,1.33,1.33,2,2-1.92-1.39-.6-.1-2-2ZM1404.47,381.88c.33,1,.67,2,1,3-1.33-.67-2.67-1.33-4-2l3-1ZM861.47,384.88h0ZM1405.47,384.88l3,2-3-2ZM859.47,385.88h0ZM1395.47,385.88c.67.67,1.33,1.33,2,2-.67-.67-1.33-1.33-2-2ZM861.47,386.88l2,2-1,1-2-1v-1l1-1ZM1399.47,386.88l3,2-3-2ZM1403.47,386.88c.64,3.64.4,3.03,2,5-.67-1.67-1.33-3.33-2-5ZM855.47,387.88h3v3c-1.9-1.37-1.64-.97-3-3ZM869.47,387.88l2,3-3,2c.95-5.01-2.24-1.07,1-5ZM1375.47,387.88h0ZM1406.47,387.88h0ZM859.47,388.88c.33,1,.67,2,1,3h-1v-3ZM1397.47,388.88c1.99,3.06-1.01,1.62,3,3l-3-3ZM1375.47,389.88c.33.67.67,1.33,1,2-.33-.67-.67-1.33-1-2ZM862.47,390.88c.33.67.67,1.33,1,2-.33-.67-.67-1.33-1-2ZM865.47,390.88c1.54,1.11,2.89,2.46,4,4l-4,1v-5ZM1135.47,391.88h0ZM1397.47,392.88c-.33,1-.67,2-1,3l3-1c-.33-.67-.67-1.33-1-2h-1ZM870.47,394.88h0ZM1405.47,394.88h0ZM869.47,395.88c1.18,2.82.75,1-1,3,.33-1,.67-2,1-3ZM1402.47,397.88c.67.33,1.33.67,2,1-.67-.33-1.33-.67-2-1ZM871.47,398.88h0ZM887.47,398.88c1.92,1.39.6.1,2,2l-2-2ZM1370.47,400.88c1.92,1.39.6.1,2,2-.67-.67-1.33-1.33-2-2ZM874.47,401.88h0ZM1370.47,403.88h0ZM1289.47,405.88h0ZM1095.47,406.88h0ZM1090.47,408.88h0ZM1257.47,409.88c2.62,1.77,1.36.06,1,3-.33-1-.67-2-1-3ZM1361.47,409.88c.67,1.33,1.33,2.67,2,4h-1c-.33-1.33-.67-2.67-1-4ZM1255.47,410.88h0ZM1281.47,410.88h0ZM1369.47,411.88c.67.67,1.33,1.33,2,2-.67-.67-1.33-1.33-2-2ZM1257.47,412.88c.33.67.67,1.33,1,2-.33-.67-.67-1.33-1-2ZM1350.47,413.88c.33.67.67,1.33,1,2-.33-.67-.67-1.33-1-2ZM1358.47,413.88c.67.67,1.33,1.33,2,2-1.92-1.39-.6-.1-2-2ZM1404.47,413.88l5,1v1c-1.67-.67-3.33-1.33-5-2ZM1344.47,417.88c.67.67,1.33,1.33,2,2-.67-.67-1.33-1.33-2-2ZM1369.47,417.88c.67.33,1.33.67,2,1-.67-.33-1.33-.67-2-1ZM1161.47,418.88l3,1c-2.09,6.04-.13.36,0,7h-1c-1.74-2.66-1.92-2.61-5-4-.43,2.6.98.55-1,3-1.93-2.5-4.08-3.34-6-6l10-1ZM1133.47,419.88c1.31,2.72.44,1.92-1,4-.33-1-.67-2-1-3,.67-.33,1.33-.67,2-1ZM1135.47,419.88l8,1-3,3c-3.49-.58-2.93-.35-6,1,.33-1.67.67-3.33,1-5ZM1342.47,419.88c-.33.67-.67,1.33-1,2h2c-.33-.67-.67-1.33-1-2ZM1362.47,419.88l3,2c-1.8-2.04-.02-.71-3-2ZM843.47,420.88l2,1-2-1ZM1129.47,420.88c2.97,4.39,1.21,3.67-1,6,.33-1,.67-2,1-3v-3ZM1147.47,420.88h2c-1.26,3.02.02,1.2-2,3v-3ZM1335.47,420.88c-.33.67-.67,1.33-1,2,.67-.67,1.33-1.33,2-2h-1ZM1347.47,420.88c-.33.67-.67,1.33-1,2,3.13-1.11,2.77-.05,5-2h-4ZM1143.47,421.88c.33.67.67,1.33,1,2-.33-.67-.67-1.33-1-2ZM1406.47,421.88h4v1l-4-1ZM844.47,422.88h0ZM1126.47,422.88h0ZM1137.47,423.88c2.96,1.05.55.86,3,3-4.06-1.24-1.89,1.1-3-3ZM1140.47,423.88h2c-1.75.98-.22.91-2,0ZM1144.47,423.88c-.71.95.16,1.56-2,1,.67-.33,1.33-.67,2-1ZM1149.47,423.88c.33,1.33.67,2.67,1,4-.67-.67-1.33-1.33-2-2,.33-.67.67-1.33,1-2ZM1338.47,423.88h0ZM1152.47,424.88c.33.67.67,1.33,1,2-.33-.67-.67-1.33-1-2ZM1328.47,424.88l3,1-3-1ZM1342.47,424.88c.67.33,1.33.67,2,1-.67-.33-1.33-.67-2-1ZM842.47,425.88l2,1-2-1ZM1058.47,425.88v5c-.67.33-1.33.67-2,1l-4-1,5-1c.33-2.38-.18-.82,1-4ZM1141.47,425.88c.67.67,1.33,1.33,2,2-.67.33-1.33.67-2,1v-3ZM934.47,427.88c1.92,1.39.6.1,2,2l-2-2ZM1159.47,427.88c.33.67.67,1.33,1,2-.33-.67-.67-1.33-1-2ZM1161.47,427.88c.33,1,.67,2,1,3h-1v-3ZM1131.47,428.88c.33.67.67,1.33,1,2-.33-.67-.67-1.33-1-2ZM1317.47,428.88v3h2c-.67-1-1.33-2-2-3ZM1105.47,429.88h0ZM1099.47,431.88c.33.67.67,1.33,1,2-.33-.67-.67-1.33-1-2ZM842.47,433.88c-9.62,9.81-53.62,47.93-60,47,1.84,3.69,2.62.73,1,4-3,5.07-6.47,7.57-11,6,.21,12.75-20.27,15.73-24,24,.14,2.11.51.35-1,2h-5c.58,1.34-2.14,14.71-3,14,1.95,3.64,3.25-.24,2,5l3-2c-1.74-5.17-.56-4.85,1-12l2-1c-.55,9.26-1.26,13.47,1,18,6.6.77,8.4,10.93,5,17,4.2-.05,2.85.4,7,2v1l-6-1c5.44,6.27,5.57,19.73,2,27,5.29-1.1.09,1.02,6,0,.33,3.67.67,7.33,1,11l-5-1c3.18,3.91,5.84,9.71,0,9,5.38,8.84.66,11.83,4,18l-4,1c3,5.26-.77,13.25,3,22-3.8.4-1.24-1.12-4,1,5.08,2.82,2.67,8.25,1,9,.33.67.67,1.33,1,2-1.71,14.73,3.38,57.97-3,67l4,1c-5.76,3.01-.45,1.96-4,7,2.61.97,3.16,7.69-1,9v1c4.88,2.35,3.17,4.65,0,8h4c.48.45-2.81,1.9-4,1,6.02,11.68-1.48,23.53,0,33h3c-2.92,5.77-1.92,26.66-4,26,2.88,5.93,2.92,6.3,0,11l3-1-3,5c3.74.46,2.76,2.99,0,7,3.47.82,1.27-1.16,3,2-2.01,1.49,5.09,29.98,4,33,7.29-1.2,5.86,1.64,12,0,.97-3.37,8.75-7.17,13-13l4,6,2-2c-2.95-.6-1.07,1.05-3-2,3.14-.66-.23-.24,3-3,8.44.03,8.53-4.45,19-4-.11-3-1.95-.72,0-3l4-3,7,4-3-4c4.01-1.37-.79-1.1,3-3l5-3c-.49,3.9-.09,5.23,3,8-.67-3-1.33-6-2-9,7.47-.11,6.14-.02,10-4,4.66,1.81,2.23,3.41,6,0l-3,1c12.74-14.19,4.37-79.2,9-82l-3-7h-7c1.29-4.19.55-3.14,4-5-.33.67-.67,1.33-1,2,3.58-1.47,2.61-2.12,4-6l-3,2c1.46-4.09,1.33-2.67,4-5-4.95-3.11-.52-3.64-6-3-.33-2-.67-4-1-6l4-1c.33.67.67,1.33,1,2v-2c2.62-4.44.92-4.93,5-6-7.3-14.83-1.71-35.2-3-46h3l-4-5c5.56-3.21-1.07-20.87,0-27,2.19-12.57,1.48-69.16-1-74-3.38-6.6.63-38.07,1-38-4.83-10.5-3.69-34.55-4-44,2.6-.42.55.98,3-1-5.81-3.02,1.64-37.09-4-47ZM1090.47,433.88c-.42.93.8.68-1,2,.33-.67.67-1.33,1-2ZM1093.47,433.88c.67.67,1.33,1.33,2,2-1.92-1.39-.6-.1-2-2ZM1101.47,433.88c.33.67.67,1.33,1,2-.33-.67-.67-1.33-1-2ZM1084.47,434.88c-.42.93.8.68-1,2,.33-.67.67-1.33,1-2ZM1305.47,434.88c.67.67,1.33,1.33,2,2-.67-.67-1.33-1.33-2-2ZM1301.47,435.88h0ZM1309.47,435.88h0ZM1085.47,437.88h0ZM1091.47,438.88h0ZM1086.47,439.88c-.42.93.8.68-1,2,.33-.67.67-1.33,1-2ZM1083.47,441.88h0ZM1088.47,441.88h2l-3,2c.33-.67.67-1.33,1-2ZM1078.47,442.88c5.31,1.9,2.29.37,5,4-4.64,1.38-.6.79-4,3v-2c-2.06-.93-1.03-2.85-1-5ZM1085.47,442.88c.67.67,1.33,1.33,2,2-.33.33-.67.67-1,1-.67-.33-1.33-.67-2-1v-1c.33-.33.67-.67,1-1ZM1072.47,444.88c1.67,1,3.33,2,5,3-.67.67-1.33,1.33-2,2-.33-.67-.67-1.33-1-2-2.04-1.8-.71-.02-2-3ZM1275.47,447.88h0ZM819.47,450.88h0ZM1075.47,450.88c1.92,1.39.6.1,2,2-.67-.67-1.33-1.33-2-2ZM1272.47,450.88c.67.33,1.33.67,2,1-.67-.33-1.33-.67-2-1ZM1264.47,451.88c.67.33,1.33.67,2,1-.67-.33-1.33-.67-2-1ZM1074.47,452.88c.67,1,1.33,2,2,3-.33.33-.67.67-1,1-.33-.33-.67-.67-1-1l-3,1,3-4ZM1015.47,454.88l5,1v1h-1l-4-2ZM1359.47,455.88c-4.12,2.92-5.71,2.62-5,8-2.29.97-1.76,1.55-4,4,5.76,2.08.69,10.14,0,16,.33-.67.67-1.33,1-2l3-5c-.67,2.67-1.33,5.33-2,8h1c1.94-3.04.33-1.04,3-2-.67,1-1.33,2-2,3l-5,1c2.4,3.55,4.68,8.42,6,8,1.02,2.78,2.99.47,5-2-4.24-.31-3.96.06-6-2,4.95-.82,2.98.67,5-3-4.66.9-4.73,4.32-8-1,3.86.05,5.86,1.2,8-3-.02-2.14-.59-.5,2-3-4.7-3.18-.88-18.66,2-23-1.33-.67-2.67-1.33-4-2ZM972.47,456.88c1.93,2.96.25.02,3,2l-3-2ZM979.47,456.88c.33.67.67,1.33,1,2-.33-.67-.67-1.33-1-2ZM1062.47,457.88c3.87.75,4,.62,6,3l-7-1c.49,2.18.96.92-1,2v-3c.67-.33,1.33-.67,2-1ZM1071.47,458.88h0ZM1065.47,461.88h0ZM1060.47,462.88h0ZM1349.47,462.88c.67.67,1.33,1.33,2,2-.67-.67-1.33-1.33-2-2ZM1361.47,465.88c.67.33,1.33.67,2,1-.67-.33-1.33-.67-2-1ZM1038.47,466.88c2.73,2.89,2.27,2.81,5,1l-5-1ZM1057.47,466.88h0ZM797.47,467.88h0ZM1022.47,467.88l2,1-2-1ZM1402.47,467.88h0ZM1070.47,469.88c.33.67.67,1.33,1,2-.33-.67-.67-1.33-1-2ZM1027.47,470.88h0ZM1006.47,471.88c.33.67.67,1.33,1,2-.33-.67-.67-1.33-1-2ZM1043.47,473.88h0ZM1033.47,474.88c2.23,1.2,2.49,1.09,4,3l-6-1c.67-.67,1.33-1.33,2-2ZM1060.47,474.88c.33.67.67,1.33,1,2-.33-.67-.67-1.33-1-2ZM1055.47,475.88h0ZM1003.47,476.88l3,1-3-1ZM1011.47,476.88l2,1-2-1ZM1014.47,479.88c-.33.67-.67,1.33-1,2h3c-1.39-1.92-.1-.6-2-2ZM1025.47,479.88c2.97,1.05.55.86,3,3-4.06-1.24-1.89,1.1-3-3ZM1206.47,480.88h0ZM1399.47,480.88h0ZM1016.47,482.88h0ZM1296.47,486.88v2c.98-1.74.91-.22,0-2ZM1290.47,487.88c.33.67.67,1.33,1,2-.42-.93.8-.68-1-2ZM922.47,489.88c-6.27,3.03-20.39-2.03-25,4-2.04,3.87-2.42,10.39-1,15l27-3c.81-7.13,3.43-12.69-1-16ZM1349.47,493.88c.67.67,1.33,1.33,2,2-.33-.67-.67-1.33-1-2h-1ZM1175.47,494.88c.67.67,1.33,1.33,2,2-.67-.67-1.33-1.33-2-2ZM1037.47,495.88c.33.67.67,1.33,1,2h-2c.33-.67.67-1.33,1-2ZM1353.47,496.88c.33.67.67,1.33,1,2h-2c1.33.67,2.67,1.33,4,2,.67-.67,1.33-1.33,2-2-1.67-.67-3.33-1.33-5-2ZM760.47,497.88l3,2-3-2ZM1169.47,497.88l-3,1c1.33.67,2.67,1.33,4,2v-3h-1ZM707.47,500.88v3l-5-1c1.92,3.84,3.6,1.53,0,5-1.68-1.08-.13-.7-2,0,2.69,3.51,1.53,1.6-2,4l3,2c-.33-.67-.67-1.33-1-2,4.42-1.47,7.87-7.62,7-11ZM1045.47,500.88c.33.67.67,1.33,1,2-.33-.67-.67-1.33-1-2ZM1354.47,500.88c-.67,1.33-1.33,2.67-2,4,2.9.53,4.9-.79,3,2-2.47,1.38-2.44-.11-2,2,.67,1,1.33,2,2,3h-5c3.3,2.83,3.24.14,5,4-1.87.68-2.29,3.25-5,8h3c-2.45,2.53-1.22.54-2,3,4.02,2.01,1.18,1.11,3,4-3.39-.9-1.33-.85-4-1,2.13,2.48,1.78,3.04,4,4l-3,2c-1.39-1.92-.1-.6-2-2,1.33,2,2.67,4,4,6l-4-1c9.08,16.03-4.53,28.71,3,39-4.89,1.04-1.55.14-4,3,1.87,2.51,1.16,8.39,2,12l-4,1c3.84,3.5,4.01,4.91,1,10h-2c5.93,7.35-1.05,8.96,5,16-1.33,1-2.67,2-4,3,3.02,1.26,1.2-.02,3,2-3.37.51-1.3-1.05-4,2,4.55,3.91,2.51.55,0,6,3.33-.22,2.3-.93,5,1l-6,3,6,2c-3.89,1-3,.39-5,3l4-1c-1.67,2-3.33,4-5,6,3.51.82,1.46-1.26,3,2-1.33.67-2.67,1.33-4,2,2.99,1.04,4.08,2.3,1,3-.33,1-.67,2-1,3,3.37-1.48,3.07-2.81,6,0-3.22.37-3.21.01-6,3,1.67.33,3.33.67,5,1-2.34,2.23-3.33,1.69-5,5,1.67-.33,3.33-.67,5-1-1.52,4.87-2.01,6.02-5,9l4,1c-3.79,4.69-2.55,4.51-4,9h5c-.67,1-1.33,2-2,3-3.12.49-.66-1.12-3,1l4,1c-4.42,5.37-.41,2.55-4,8l4,1c-3.39,3.9-3.55,1.52-3,5l3-1c-2.06,2.21-1.38,1.88-5,3,.33.67.67,1.33,1,2l3-1c-1.33,1.67-2.67,3.33-4,5h5c-1.67,1.67-3.33,3.33-5,5,4,.44,2.1-.99,5,2-3.56-.04-2.09-.91-5,1,3.11,4.67,1.21,3.5,5,8-5.2,2.61-1.12,2.66-5,8l4-1c-2.26,2.69-3.42,3.03-4,5,1.33.67,2.67,1.33,4,2-4.47.18-.98-1.11-4,2,2.61,1.78.55,1.77-1,3,2.46,3.3,2.66,1.67,1,4,2.06,3.78,1.93.66,3,5-1.33,1-2.67,2-4,3,3.52,1.16,1.04,5.63,4,4-2,3.97-1.71,1.08-4,4l3,8c-1.33.67-2.67,1.33-4,2,2.23.21,3.2-.77,2,1-.51,2.4-.21.91-2,4,3.87,1.7.87,27.73,1,36-3.12.49-.66-1.12-3,1,8.86,4.34-2.54,19.58,2,27,2.6.42.55-.98,3,1-6.69,1.55-2.35,7.9-6,17,3.98-.39.63-2.15,4,0,1.92,1.39.6.1,2,2-1.67.33-3.33.67-5,1,3.79,1.91,2.06.43,3,3l-4,1c3.18,7.44,2,16,2,16-1.94,3.04-.33,1.04-3,2,3.11,7.83,3.57,9.18-1,15,1.67.33,3.33.67,5,1v1c-3.63.64-3.03.4-5,2h5c-2.58,4.04-7.77,12.15-1,15,1.34,2.85,1.99.89,5,0-2.43,2.89-7.03,2.79-10,5,4.32.32.81-.72,4,3-4.1.48-4.3,1.46-4,3-.67.33-1.33.67-2,1v1c3.94-1.58,4.45-.48,4-3,2.65,1.99,1.96,1.13,3,5-1.33.67-2.67,1.33-4,2-.33-.67-.67-1.33-1-2v4l3-2c.17,3.73-.1,2.12,1,6-3.27-1.75-4.08-2.69-8-2,.67.67,1.33,1.33,2,2h4c-2.78,3.32-2.23.93-1,6h-5c3.02,8.75-7.04,36.91-5,40,.28,2.37-.22,1.25,1,4,2.33.67,4.67,1.33,7,2,.49-2.69-.88-.83,2-3-.33,1.33-.67,2.67-1,4,8.25-2.7,12.56-1.09,16,1,.67-1,1.33-2,2-3-1.95-6.81.69-65.28,3-68-1.82-5.8-3.04-19.01-2-26l-4,1c1.48-1.79,3.37-2.45,5-4-1.67-.33-3.33-.67-5-1,10.93-25.1.6-47.47,7-81-.67-8.67-1.34-17.33-2-26,4.21-20.58,1.33-58.81,0-84-.88-16.67,3.15-27.82,0-39-2.29-8.12,6.21-26.35,0-37,2.27-6.05,5.04-63.72,1-71,4.25-13.46,3.92-28.36,2-45h4c-2.62-2-2.31-.61-4-4,3.53-2.64.37-4.12,3-9l-6-1ZM1038.47,502.88l3,2-3-2ZM1253.47,502.88c-41.22,22.87-78.59,40.55-115,54,1.94,3.11,2.48,1.38,2,5l3-3c1.79,8.54,18.65,11.88,21,13-22.55,36.69-7.61,63.86-15,107-9.38,54.73-4.37,107.32-6,156-5.2-3.48-4.46-1.05-7-4v-4c-2.33,2.82.96,1.48-3,3-.9-5.04-21.9-26.56-29-24l3-5c-.33-.67-.67-1.33-1-2-79.11.66-129.59,49.57-180,82v3l2,1,30-2,34-24c31.47-19.86,69.38-45.4,108-53,4.98,6.75,43.21,39.82,48,40-.95,3.12-3.16,3,0,5,.44-2.55.39-1.76,2-5,2.98,2.03,1.2.71,2,3l6-7c1.84.72,5.6,2.8,4-1,3.01,1.28,2.25.63,4,3-.67-.33-1.33-.67-2-1,.67,1.33,1.33,2.67,2,4,.67-2,1.33-4,2-6v7c2.98-1.68,2.41-1.67,5-2,.43,2.6-.98.55,1,3,.65-1.79.36-2.58,4-4l-3-2c-.33,1-.67,2-1,3v-6h1c3.33,1.67,6.66,3.33,10,5-.33-1.33-.67-2.67-1-4l6,2v1l-4-1c.67,1,1.33,2,2,3,8.36-.83,17.8,6.26,21,8-1.33-1.67-2.67-3.33-4-5,6.51,1.45,1.64,2.26,8,5-.67-.33-1.33-.67-2-1,1.36-2.05,1.12-1.61,3-3,.67,1.33,1.33,2.67,2,4,1.31-5.15,6.84-4.86,11-3-.96-9.93,6.09-24.79,5-35-2.08-2.38-.87.16-1-3-.4-8.35,1.08-16.75,2-24,2.6-.42.55.98,3-1-3.99-3.8-2-6.6,0-10-.68-.03-3.69.47-2-1-.69-4.42-.26-16.32,4-21l-4-1c2.11-5.71,1.77-3.14,1-10h4c-8.16-12.88,4.2-30.09-1-44l3,1c-3.89-7.69-.03-18.43-1-31l4,1c-1.18-2.25-2.65-3.24-3-4-.19-1.51,1.86-32.82,4-34-2.29-2.79-2.09-1.4-2-3,1.6-1.57-.13-.32,2-1-2.38-2.08.16-.87-3-1,2.12-8.45,2.42-6.47,1-16,1.33.67,2.67,1.33,4,2l-3-2c1.04-6.6,4.92-37.33,2-34,1.42-4,.41-1.79,3-3-3.19-6.54-1.64-2.88-3-11l4,1c-1.35-1.9-2.51-2.37-4-4,.64-2.93,1.72-.54,0-3,2.16-1.82,2.15.05,2-2,1.24-7.61,3.12-12.11,0-19l5-2c-4.34-1.56-4.14-.29-4-4,2.67-.46,1.51.61,4-2-2.77-7.78.14-16.74,3-26l-3-1ZM707.47,505.88c-.33.67-.67,1.33-1,2l2-2h-1ZM1355.47,509.88h0ZM1073.47,518.88h2c-1.75.98-.22.91-2,0ZM736.47,519.88l3,3-3-3ZM720.47,521.88l2,1-2-1ZM732.47,521.88l3,2-3-2ZM1068.47,521.88c.67.33,1.33.67,2,1-.67-.33-1.33-.67-2-1ZM1396.47,521.88v2c.98-1.74.91-.22,0-2ZM990.47,524.88c-6.26,4.46-21.34.88-29,3,.33,4.33.67,8.67,1,13h1l29-2,2-1c-.33-3.33-.67-6.67-1-10-1.6-2.7-.34-1.38-3-3ZM737.47,525.88v2c.98-1.74.91-.22,0-2ZM742.47,525.88l2,2c-1.92-1.39-.6-.1-2-2ZM747.47,525.88h0ZM713.47,527.88h0ZM752.47,528.88h0ZM1090.47,528.88c1.92,1.39.6.1,2,2-.67-.67-1.33-1.33-2-2ZM1087.47,530.88c-.33.67-.67,1.33-1,2,.33-.67.67-1.33,1-2ZM716.47,531.88c-.33.67-.67,1.33-1,2l3-2h-2ZM753.47,531.88c.33.67.67,1.33,1,2-.33-.67-.67-1.33-1-2ZM713.47,532.88l2,3-2-3ZM719.47,532.88l-3,3c1.26,3.02-.02,1.2,2,3-1.12-4.97.47-1.47,1-5,2.14,1.41,2.38,2.28,4,4v-3l-4-2ZM731.47,532.88l2,1-2-1ZM749.47,532.88h0ZM748.47,535.88h2l-2,2v-2ZM752.47,535.88c-.71.95.16,1.56-2,1l2-1ZM1394.47,535.88v2c.98-1.74.91-.22,0-2ZM712.47,536.88l3,1-3-1ZM719.47,536.88l2,1-2-1ZM726.47,536.88l2,2c-.33-.67-.67-1.33-1-2h-1ZM741.47,536.88l2,2c-.33-.67-.67-1.33-1-2h-1ZM713.47,538.88l3,2-3-2ZM718.47,539.88c1.8,2.04.02.71,3,2l-3-2ZM748.47,540.88l3,2-3-2ZM715.47,541.88l2,1-2-1ZM922.47,541.88c-6.18,3.27-17.01.02-25,2-.33,6.33-.67,12.67-1,19l2,1c8.34-2.93,17.31-3.62,26-2v-3c1.54-4.68,1.71-13.65-1-17h-1ZM1396.47,542.88c-.33.67-.67,1.33-1,2,.67-.67,1.33-1.33,2-2h-1ZM713.47,543.88c-6.34,13.76-12.05,54.22-7,73h1l26-3h5c.25-14.45,7.38-60.1,1-69-8.51,3.77-23.63.74-26-1ZM751.47,545.88l2,1-2-1ZM757.47,545.88l2,2c-1.92-1.39-.6-.1-2-2ZM749.47,547.88c-.33.67-.67,1.33-1,2h3l-2-2ZM1398.47,549.88c0,3.76,2.18,2.62-2,5v-1c2.07-1.96,1.04-.38,2-4ZM755.47,550.88h0ZM751.47,552.88v2c.98-1.74.91-.22,0-2ZM1395.47,558.88h0ZM751.47,559.88c2.52,1.63.17.98,3,0h-3ZM1348.47,561.88c.67.33,1.33.67,2,1-.67-.33-1.33-.67-2-1ZM990.47,564.88c-7.23,5.37-20.89-.61-30,4v5c.33.67.67,1.33,1,2l30-1,2-1c.15-5.69.34-6.77-3-9ZM1347.47,565.88h0ZM754.47,566.88h0ZM762.47,567.88c.33.67.67,1.33,1,2-.33-.67-.67-1.33-1-2ZM754.47,569.88c.78,3.96,2.27,1.32,0,5l3-1v-3l-3-1ZM995.47,570.88c.33,1.33.67,2.67,1,4h1c-.67-1.33-1.33-2.67-2-4ZM1249.47,570.88c.67.33,1.33.67,2,1-.67-.33-1.33-.67-2-1ZM1050.47,572.88c-6.14,4.36-21.3.87-29,3,.33,8,.67,16,1,24h1l31-3c-.33-7-.67-14-1-21-1.6-2.7-.34-1.38-3-3ZM1158.47,572.88c.67.33,1.33.67,2,1-.67-.33-1.33-.67-2-1ZM759.47,574.88h0ZM890.47,574.88h0ZM1392.47,577.88c.67.33,1.33.67,2,1-.67-.33-1.33-.67-2-1ZM760.47,578.88h3l-2,2c-.33-.67-.67-1.33-1-2ZM760.47,581.88h4l-4,2v-2ZM753.47,585.88l2,1-2-1ZM910.47,585.88l-11,2c-.33,6.56-.75,15.44,2,19l26-3c.33-6.37.65-14.58-2-18-4.97,2.14-8.95,2.39-15,0ZM758.47,587.88v6l3-2-2,1c-.12-3.97.9-2.07-1-5ZM757.47,598.88l2,1-2-1ZM1106.47,600.88c-6.86,4.12-20.85.71-29,3v18h1l31-3v-15c-1.6-2.7-.34-1.38-3-3ZM982.47,604.88c-6.14,4.36-21.3.87-29,3,.33,4.67.67,9.33,1,14h1c9.33-2.17,22.81-2.54,30-2v-12c-1.6-2.7-.34-1.38-3-3ZM1048.47,624.88c-6.84,4.1-20.98.64-29,3v1c.26,5.56.24,17.38,3,21,6.88-2.09,27.24-1.23,30-5,3.32-6.61.71-17.54-4-20ZM930.47,626.88c-7.82,4.45-22.38-2.09-29,4v18h1l31-3c.39-7.19,1.28-16.1-3-19ZM759.47,628.88h0ZM755.47,638.88l2,2-2-2ZM1145.47,641.88c.67.33,1.33.67,2,1-.67-.33-1.33-.67-2-1ZM978.47,646.88c-6.67,4.81-19.46.32-29,3v15h1l31-3c.38-6.62.91-12.39-3-15ZM1117.47,667.88c.33-5.49,1.17-11.04-2-15-8.03,2.82-24.96-1.87-30,5v12c12.15-1.34,20.88-2.2,32-2ZM1394.47,660.88c.67.67,1.33,1.33,2,2-.67-.67-1.33-1.33-2-2ZM736.47,662.88c-7.87,5.21-23.03-2.91-29,5-1,23.33-2,46.67-3,70h1c9.98-2.41,22.59-3.58,29-2l2-1c.25-14.77,7.15-63.41,1-72h-1ZM1344.47,667.88c.33.67.67,1.33,1,2,.33-.67.67-1.33,1-2h-2ZM519.47,671.88h0ZM757.47,673.88h0ZM521.47,676.88h0ZM932.47,676.88c-7.49,5.04-22.16-2.26-29,4v31h1l31-3c.36-8.95,2.41-28.22-3-32ZM525.47,677.88h2c-1.74.98-.22.91-2,0ZM531.47,677.88h0ZM1345.47,677.88c.67.67,1.33,1.33,2,2-.33.33-.67.67-1,1-.67-.33-1.33-.67-2-1v-1c.33-.33.67-.67,1-1ZM1144.47,678.88c.67.33,1.33.67,2,1-.67-.33-1.33-.67-2-1ZM532.47,679.88h0ZM530.47,680.88c1.92,1.39.6.1,2,2l-2-2ZM1050.47,680.88c-6.86,4.12-20.85.71-29,3,.33,8.33.67,16.67,1,25,11.2-1.35,22.88-3.71,30-2,.67-.33,1.33-.67,2-1-.33-7.33-.67-14.67-1-22-1.6-2.7-.34-1.38-3-3ZM534.47,682.88l1,2-1-2ZM759.47,686.88h0ZM544.47,688.88c.33.67.67,1.33,1,2-.33-.67-.67-1.33-1-2ZM986.47,692.88c-6.14,4.36-21.3.87-29,3v52l32-3c.43-13.43,5-46.76-3-52ZM550.47,694.88c-.22,1.47.41,1-1,3,.33-1,.67-2,1-3ZM755.47,694.88l2,2-2-2ZM1143.47,700.88c.67.33,1.33.67,2,1-.67-.33-1.33-.67-2-1ZM612.47,703.88h2c-1.39,1.92-.1.6-2,2-1.84,2.15-1.15.36-4,2,1.39,2.66,1.84.63,0,3-3.46-5.21-19.78,5.27-26,6,.67-1.33,1.33-2.67,2-4l28-9ZM618.47,703.88h3v2l-3,1-3-1,3-2ZM624.47,703.88l3,1v1c-3.02-1.26-1.2.02-3-2ZM627.47,703.88c1.92,1.39.6.1,2,2l-2-2ZM630.47,703.88c.33.67.67,1.33,1,2-.33-.67-.67-1.33-1-2ZM614.47,705.88c3.34,1.99,1.62,1.66,4,4h-4v-4ZM621.47,708.88h0ZM624.47,708.88h0ZM627.47,708.88c.33.67.67,1.33,1,2-.33-.67-.67-1.33-1-2ZM1141.47,715.88c.67.33,1.33.67,2,1-.67-.33-1.33-.67-2-1ZM579.47,717.88h3v1l-7,4c.67-1.33,1.33-2.67,2-4l2-1ZM1144.47,717.88h0ZM843.47,722.88v4h1c-.33-1.33-.67-2.67-1-4ZM839.47,727.88h0ZM529.47,729.88h4v1l-4-1ZM534.47,729.88h0ZM516.47,730.88h2l-2,2-7,2v-3c3.65.22,3.85.73,7-1ZM520.47,730.88l6,1-6-1ZM505.47,731.88l3,2h-2c-6.74,5.03-15.94,4.8-23,7v-3c5.84-.03,18.74-2.65,22-6ZM518.47,731.88h0ZM521.47,732.88h0ZM533.47,732.88c-.71.91-.15,2.49-4,1l4-1ZM841.47,732.88c.33,1,.67,2,1,3h-1v-3ZM1116.47,732.88c-5.91,3.7-20.64,1.83-29,2l-3,13c.67.33,1.33.67,2,1,7.1-2.52,20.69-4.38,29-2,.67-.33,1.33-.67,2-1,.67-3.67,1.34-7.33,2-11l-3-2ZM524.47,733.88h3l-2,2-1-2ZM549.47,733.88h0ZM512.47,734.88c3.64.64,3.03.4,5,2h-6l1-2ZM519.47,734.88h0ZM497.47,737.88l6,2-8,1,2-1v-2ZM1141.47,737.88c.67.33,1.33.67,2,1-.67-.33-1.33-.67-2-1ZM560.47,738.88l6,2v1l-6-3ZM476.47,740.88l3,2-5,1,2-3ZM479.47,740.88c1.92,1.39.6.1,2,2l-2-2ZM490.47,740.88h0ZM493.47,740.88h0ZM567.47,740.88c14.28,22.06,59.04,30.88,66,52-24.14-9.33-47.67-30.55-67-41l-32,11c-25.47,15.26-81.86,44.94-88,73l-2-2c1.82-4.32.23-.84,1-8,8.39-3.04,20.36-25.23,32-34,27.25-20.45,57.65-36.33,90-47v-4ZM837.47,740.88c2.65,1.41.87.53,0,3v-3ZM833.47,741.88h2c-1.74.98-.22.91-2,0ZM470.47,742.88l4,2h-4c-2.11.14-.35.51-2-1l2-1ZM465.47,744.88c2.62,1.78,1.36.06,1,3l-2-1,1-2ZM926.47,744.88c-7.49,5.04-22.22-2.32-29,4v61h1c12.71-2.98,20.97-1.76,30-2,1.15-5.51,4.08-56.35-1-63h-1ZM1142.47,745.88c-.33.67-.67,1.33-1,2,.67-.67,1.33-1.33,2-2h-1ZM1050.47,746.88c-7.49,5.04-22.22-2.32-29,4-2.94,5.76-2.92,15.01,0,18,7.02-2.13,27.18-1.14,30-5,2.59-4.7,3.3-14.22-1-17ZM1142.47,755.88c.67.33,1.33.67,2,1-.67-.33-1.33-.67-2-1ZM1395.47,759.88c.33.67.67,1.33,1,2-.33-.67-.67-1.33-1-2ZM568.47,760.88h3l-16,25c-4.34,5.72-2.84,14.38-7,21-.33,5-.67,10-1,15-20.08,47.91,5.67,142.87,19,172-4.69-1.25-3.34.75-6-1l2-3c-2.39-.01-4.03,1.46-3-2-10.26-8.4-11.27-36.85-16-55-12.83-49.27-11.64-139.5,25-172ZM1096.47,763.88c.67.67,1.33,1.33,2,2-.67-.67-1.33-1.33-2-2ZM1094.47,765.88v5h1c-.33-1.67-.67-3.33-1-5ZM1097.47,768.88c-.33.67-.67,1.33-1,2h3c-.67-.67-1.33-1.33-2-2ZM1095.47,772.88l3,2-3-2ZM674.47,780.88l2,2c-1.39-1.92-.1-.6-2-2ZM1139.47,784.88h0ZM675.47,791.88c-.33.67-.67,1.33-1,2l2-2h-1ZM676.47,793.88h0ZM635.47,794.88h0ZM1345.47,797.88h0ZM1351.47,797.88c.33.67.67,1.33,1,2-.33-.67-.67-1.33-1-2ZM944.47,801.88l2,1-2-1ZM979.47,806.88l2,2-2-2ZM977.47,809.88l2,1-2-1ZM943.47,812.88c-.33.67-.67,1.33-1,2l2-2h-1ZM1090.47,812.88c-.33.67-.67,1.33-1,2,.67-.67,1.33-1.33,2-2h-1ZM1233.47,825.88c.67,1.33,1.33,2.67,2,4-.67-1.33-1.33-2.67-2-4ZM656.47,826.88h3l-2,2c-.33-.67-.67-1.33-1-2ZM665.47,828.88l2,1-2-1ZM1351.47,829.88c.33,1,.67,2,1,3-3.65-.91-2.04.04-4-2,3.12-.49.66,1.12,3-1ZM1346.47,830.88c.33.67.67,1.33,1,2-.33-.67-.67-1.33-1-2ZM442.47,831.88h0ZM1341.47,831.88h0ZM442.47,833.88l2,2c-1.92-1.39-.6-.1-2-2ZM839.47,834.88l2,2-2-2ZM843.47,834.88c.64,3.64.4,3.03,2,5l-2-5ZM845.47,834.88h0ZM836.47,835.88c-.33.67-.67,1.33-1,2l2-2h-1ZM1350.47,835.88h0ZM651.47,836.88h0ZM830.47,836.88l3,2-3-2ZM838.47,837.88h0ZM1180.47,837.88h0ZM646.47,838.88l4,3-4-3ZM834.47,839.88v2c.98-1.74.91-.22,0-2ZM1341.47,839.88h0ZM1351.47,839.88c-.71.95.16,1.56-2,1,.67-.33,1.33-.67,2-1ZM837.47,840.88l-2,3c3.39-.9,1.33-.85,4-1l-2-2ZM1155.47,840.88c.33.67.67,1.33,1,2-.33-.67-.67-1.33-1-2ZM651.47,841.88c-.33.67-.67,1.33-1,2l2-2h-1ZM811.47,841.88h0ZM817.47,841.88c.33.67.67,1.33,1,2-.33-.67-.67-1.33-1-2ZM824.47,841.88c1.39,1.92.1.6,2,2l-2-2ZM1152.47,843.88h0ZM832.47,844.88l2,1-2-1ZM1345.47,844.88h3v1c-3.12-.54-.9,1.36-3-1ZM1349.47,844.88h3v1c-3.12-.54-.9,1.36-3-1ZM1392.47,844.88c.67.33,1.33.67,2,1-.67-.33-1.33-.67-2-1ZM805.47,845.88c2.73,1.89.53.26,2,4l-2-1v-3ZM814.47,845.88c1.26,1.56.43,1.23,2,0h-2ZM817.47,845.88v3l2-1-2-2ZM827.47,845.88c-.33.67-.67,1.33-1,2l3-2h-2ZM1214.47,846.88c.67.67,1.33,1.33,2,2-1.92-1.39-.6-.1-2-2ZM803.47,847.88c.33.67.67,1.33,1,2-.33-.67-.67-1.33-1-2ZM819.47,848.88c-.33.67-.67,1.33-1,2l2-2h-1ZM810.47,849.88c.78,3.96,2.27,1.32,0,5l3-3-2-1-1-1ZM1347.47,850.88c.33.67.67,1.33,1,2-.33-.67-.67-1.33-1-2ZM787.47,852.88h3l-2,2c-.33-.67-.67-1.33-1-2ZM1144.47,852.88h0ZM1152.47,852.88c.67.67,1.33,1.33,2,2-.67-.67-1.33-1.33-2-2ZM1222.47,852.88h0ZM1351.47,852.88c.33.67.67,1.33,1,2h-2c.33-.67.67-1.33,1-2ZM657.47,853.88c-3.86,8.89-10.65,86.76-4,96-.4-16.55-1.85-87.88,8-94l-4-2ZM1345.47,853.88h2c-1.75.98-.22.91-2,0ZM600.47,854.88c1.92,1.39.6.1,2,2l-2-2ZM798.47,854.88l2,2-2-2ZM792.47,855.88l3,3c-1.37-1.9-.97-1.64-3-3ZM608.47,856.88h0ZM612.47,857.88c-.33.67-.67,1.33-1,2,1.49-1.67,1.59.16,1-2ZM1336.47,857.88c.67.33,1.33.67,2,1-.67-.33-1.33-.67-2-1ZM1342.47,857.88c-.42.93.8.68-1,2,.33-.67.67-1.33,1-2ZM777.47,858.88h0ZM783.47,858.88l2,2c-1.39-1.92-.1-.6-2-2ZM773.47,860.88h0ZM603.47,861.88c-.33.67-.67,1.33-1,2l2-2h-1ZM772.47,861.88c.33.67.67,1.33,1,2h-2c.33-.67.67-1.33,1-2ZM590.47,862.88l2,1-2-1ZM755.47,862.88l2,2c-.33-.67-.67-1.33-1-2h-1ZM758.47,862.88l2,1-2-1ZM1035.47,862.88c.67.67,1.33,1.33,2,2-.67-.67-1.33-1.33-2-2ZM1038.47,862.88c.67.33,1.33.67,2,1-.67-.33-1.33-.67-2-1ZM1350.47,862.88c1.92,1.39.6.1,2,2-.67-.67-1.33-1.33-2-2ZM1033.47,865.88c.67.33,1.33.67,2,1-.67-.33-1.33-.67-2-1ZM1343.47,867.88h0ZM607.47,868.88c-.33.67-.67,1.33-1,2l2-2h-1ZM1343.47,870.88h0ZM1344.47,874.88c-.42.93.8.68-1,2,.33-.67.67-1.33,1-2ZM1349.47,876.88c.67.33,1.33.67,2,1l-3,2c.33-1,.67-2,1-3ZM583.47,877.88l2,2c-1.92-1.39-.6-.1-2-2ZM1339.47,880.88h0ZM1349.47,881.88h3c-.33.67-.67,1.33-1,2h-4c.67-.67,1.33-1.33,2-2ZM581.47,885.88h0ZM799.47,958.88l-6,48h6c2.17-5.65,19.08-4.15,22-3-1.11-2.84-.86-1.45-1-4-5.17.41-5.05,3.11-6,1l-3-1v-1c8-.31,9.74-2.79,17-8,1-8.33,2-16.67,3-25l92-41v37l33-3c-1.19-15.35,4.43-69.23,1-73-7.91,2.45-25.14-1.9-30,5-1.33,9-2.67,18-4,27-55.14-.87-74.32,37.46-124,41ZM1350.47,885.88h0ZM1346.47,886.88c3.02,1.26,1.2-.02,3,2l-3-2ZM582.47,887.88c.33,1,.67,2,1,3h-1v-3ZM1392.47,887.88c.67.67,1.33,1.33,2,2-.67-.67-1.33-1.33-2-2ZM1338.47,888.88c.67,1.33,1.33,2.67,2,4h-1c-.33-1.33-.67-2.67-1-4ZM1341.47,889.88h2c-1.75.98-.22.91-2,0ZM1348.47,890.88c.33.67.67,1.33,1,2-.33-.67-.67-1.33-1-2ZM1393.47,890.88h0ZM1342.47,891.88h0ZM1341.47,895.88h4v1l-4-1ZM578.47,897.88c-.71.95.16,1.56-2,1l2-1ZM1350.47,898.88h0ZM1339.47,899.88c-.42.93.8.68-1,2,.33-.67.67-1.33,1-2ZM1341.47,899.88h2c-1.39,1.92-.1.6-2,2v-2ZM577.47,900.88h0ZM1345.47,900.88h3c-.67.33-1.33.67-2,1v2c-.33-1-.67-2-1-3ZM1336.47,907.88c-.33.67-.67,1.33-1,2h2c-.33-.67-.67-1.33-1-2ZM1348.47,908.88c3.83,1.32,2.08,0,4,3-2.82-1.84-2.68-.6-4-3ZM1345.47,909.88l3,2h-3v-2ZM1056.47,913.88c.67.33,1.33.67,2,1-.67-.33-1.33-.67-2-1ZM1338.47,913.88c.33.67.67,1.33,1,2h-2c.33-.67.67-1.33,1-2ZM1347.47,913.88c.67,1,1.33,2,2,3-3.06-1.91-2.52.33-2-3ZM1339.47,917.88l4,1v3h-1c-2.33-2.49-.94-1.14-6-1,.33-.67.67-1.33,1-2,.67-.33,1.33-.67,2-1ZM1350.47,917.88c.33.67.67,1.33,1,2-.33-.67-.67-1.33-1-2ZM1038.47,918.88c.67.33,1.33.67,2,1-.67-.33-1.33-.67-2-1ZM632.47,919.88c-4.65,3.94-9.25,6.03-12,12h1l18-12h-7ZM1344.47,919.88c.67.67,1.33,1.33,2,2-1.92-1.39-.6-.1-2-2ZM617.47,923.88l3,35h1c.28-9.92.68-28.86-4-35ZM1346.47,923.88h3v1c-3.16.01-1.42.13-3-1ZM1391.47,924.88c-.33.67-.67,1.33-1,2,.67-.67,1.33-1.33,2-2h-1ZM1343.47,925.88c.33.67.67,1.33,1,2-.33-.67-.67-1.33-1-2ZM1058.47,927.88h0ZM670.47,928.88l2,2c-.33-.67-.67-1.33-1-2h-1ZM824.47,928.88l3,1-3-1ZM1344.47,928.88c.67.67,1.33,1.33,2,2-.67.33-1.33.67-2,1v-3ZM815.47,931.88l2,1-2-1ZM805.47,932.88h0ZM819.47,932.88l2,2-2-2ZM822.47,932.88l2,2-2-2ZM1345.47,932.88c1.92,1.39.6.1,2,2-.67-.67-1.33-1.33-2-2ZM827.47,933.88l2,1-2-1ZM1348.47,936.88h0ZM805.47,939.88l2,1-2-1ZM1340.47,941.88h0ZM1345.47,941.88h4v3c-1.67-.33-3.33-.67-5-1,.33-.67.67-1.33,1-2ZM1331.47,942.88h0ZM1341.47,943.88c2.85,2.58,1.57,1.29,0,4v-4ZM1338.47,945.88c.67.67,1.33,1.33,2,2-1.92-1.39-.6-.1-2-2ZM1330.47,946.88c.67,1,1.33,2,2,3-.67-1-1.33-2-2-3ZM1345.47,946.88c1.92,1.39.6.1,2,2-.67-.67-1.33-1.33-2-2ZM1342.47,947.88h2c-1.75.98-.22.91-2,0ZM1346.47,950.88h2c-1.75.98-.22.91-2,0ZM1333.47,951.88h0ZM1336.47,951.88c-.42.93.8.68-1,2,.33-.67.67-1.33,1-2ZM1341.47,951.88h4v1l-4-1ZM1333.47,953.88l3,2-3-2ZM1341.47,955.88c.67.67,1.33,1.33,2,2-1.92-1.39-.6-.1-2-2ZM1345.47,956.88h0ZM1333.47,958.88h0ZM1330.47,962.88c.67,1,1.33,2,2,3-2.04-1.8-.71-.02-2-3ZM648.47,965.88c-12.25,9.76-26.96,18.17-35,32,4.33-2.05,38.23-27.99,42-32h-7ZM1333.47,965.88h0ZM1345.47,965.88h0ZM1394.47,969.88c.33.67.67,1.33,1,2h-2c.33-.67.67-1.33,1-2ZM643.47,971.88h0ZM1302.47,971.88c.67.33,1.33.67,2,1-.67-.33-1.33-.67-2-1ZM1300.47,974.88c.33,1.67.67,3.33,1,5-2.95.6-1.07-1.05-3,2,4.66-1.24,3.08.83,6,0-2.57-5.11-.76-3.7-4-7ZM1291.47,980.88c.67.33,1.33.67,2,1-.67-.33-1.33-.67-2-1ZM1301.47,983.88v3c.33-1,.67-2,1-3h-1ZM1322.47,983.88l3,1-3-1ZM558.47,984.88l2,2c-1.39-1.92-.1-.6-2-2ZM580.47,988.88l2,2c-1.39-1.92-.1-.6-2-2ZM1435.47,991.88c.33.67.67,1.33,1,2-.33-.67-.67-1.33-1-2ZM562.47,994.88h2c-1.39,1.92-.1.6-2,2v-2ZM814.47,994.88c1.92,1.39.6.1,2,2l-2-2ZM822.47,996.88v2c.98-1.74.91-.22,0-2ZM563.47,997.88h2c-.33,1-.67,2-1,3-.33-1-.67-2-1-3ZM1334.47,998.88c.67,1,1.33,2,2,3-.67-1-1.33-2-2-3ZM823.47,1001.88c-.33.67-.67,1.33-1,2l2-2h-1ZM831.47,1001.88h0ZM789.47,1002.88h0ZM763.47,1004.88c-.33,1.33-.67,2.67-1,4,1.53-2.29,1.83-1.21,1-4ZM795.47,1004.88h0ZM802.47,1004.88h0ZM806.47,1004.88c-.33,1-.67,2-1,3,.33-1,.67-2,1-3ZM782.47,1005.88h0ZM758.47,1006.88c1,.67,2,1.33,3,2-1-.67-2-1.33-3-2ZM770.47,1006.88c1.65,3.61,1.49,4.12,5,6l-5-6ZM779.47,1007.88c2.19,2.28-.11,1.56,3,1-1-.33-2-.67-3-1ZM740.47,1008.88h0ZM757.47,1009.88c-.33.67-.67,1.33-1,2h2c-.33-.67-.67-1.33-1-2ZM763.47,1009.88l-2,3c2.05-1.36,1.61-1.12,3-3h-1ZM768.47,1009.88c1.39,1.92.1.6,2,2-.67-.67-1.33-1.33-2-2ZM759.47,1011.88c-.33,1.33-.67,2.67-1,4,1.53-2.29,1.83-1.21,1-4ZM557.47,1012.88h0ZM751.47,1012.88c.67.33,1.33.67,2,1-.67-.33-1.33-.67-2-1ZM1399.47,1012.88h0ZM703.47,1013.88c-.33.67-.67,1.33-1,2,.67-.67,1.33-1.33,2-2h-1ZM747.47,1013.88c-.33.67-.67,1.33-1,2,.67-.67,1.33-1.33,2-2h-1ZM1402.47,1013.88c1.37,1.9.97,1.64,3,3-1.37-1.9-.97-1.64-3-3ZM1407.47,1013.88c.67.33,1.33.67,2,1-.67-.33-1.33-.67-2-1ZM731.47,1015.88c-.33,1-.67,2-1,3l2-3h-1ZM543.47,1016.88c.33.67.67,1.33,1,2-.33-.67-.67-1.33-1-2ZM1407.47,1016.88c1,.33,2,.67,3,1-1-.33-2-.67-3-1ZM1411.47,1016.88c.67.33,1.33.67,2,1-.67-.33-1.33-.67-2-1ZM1426.47,1016.88c1.33.33,2.67.67,4,1v1c-1.33-.67-2.67-1.33-4-2ZM1417.47,1018.88l2,2-2-2ZM1430.47,1018.88c.33.67.67,1.33,1,2-.33-.67-.67-1.33-1-2ZM1435.47,1018.88c.33.67.67,1.33,1,2-.33-.67-.67-1.33-1-2ZM1422.47,1019.88c.67,1,1.33,2,2,3-.67-1-1.33-2-2-3ZM1438.47,1019.88h0ZM702.47,1020.88v3c.67-.33,1.33-.67,2-1-.67-.67-1.33-1.33-2-2ZM708.47,1020.88c-.33.67-.67,1.33-1,2,.67-.67,1.33-1.33,2-2h-1ZM1432.47,1020.88c1.18,2.82.75,1-1,3,.33-1,.67-2,1-3ZM1442.47,1020.88c.33.67.67,1.33,1,2-.33-.67-.67-1.33-1-2ZM686.47,1022.88c.67.67,1.33,1.33,2,2-.67-.67-1.33-1.33-2-2ZM1441.47,1022.88c.67,1.33,1.33,2.67,2,4-.67-.33-1.33-.67-2-1v-3ZM521.47,1024.88h2c-1.74.98-.22.91-2,0ZM1454.47,1025.88c.67,1.67,1.33,3.33,2,5-.67-.33-1.33-.67-2-1v-4ZM514.47,1026.88c.33.67.67,1.33,1,2-.33-.67-.67-1.33-1-2ZM1449.47,1026.88h0ZM516.47,1027.88c.33.67.67,1.33,1,2-.33-.67-.67-1.33-1-2ZM502.47,1030.88l1,3h-1v-3ZM531.47,1030.88c.67.67,1.33,1.33,2,2-.67-.67-1.33-1.33-2-2ZM643.47,1030.88c.67.67,1.33,1.33,2,2-.67-.67-1.33-1.33-2-2ZM646.47,1030.88c.67.33,1.33.67,2,1-.67-.33-1.33-.67-2-1ZM1091.47,1030.88l2,2-2-2ZM1147.47,1030.88l2,2-2-2ZM1462.47,1030.88h0ZM545.47,1031.88h0ZM1472.47,1032.88c.33.67.67,1.33,1,2-.33-.67-.67-1.33-1-2ZM529.47,1033.88c.67.33,1.33.67,2,1-.67-.33-1.33-.67-2-1ZM1145.47,1033.88c.67.33,1.33.67,2,1-.67-.33-1.33-.67-2-1ZM500.47,1034.88h3c-1.33.67-2.67,1.33-4,2,.33-.67.67-1.33,1-2ZM494.47,1035.88h3v1c-3.12-.54-.9,1.37-3-1ZM534.47,1035.88c-.33.67-.67,1.33-1,2h2c-.33-.67-.67-1.33-1-2ZM487.47,1036.88c.33.67.67,1.33,1,2-.33-.67-.67-1.33-1-2ZM619.47,1036.88c.67.33,1.33.67,2,1-.67-.33-1.33-.67-2-1ZM999.47,1036.88c-.33.67-.67,1.33-1,2,.67-.67,1.33-1.33,2-2h-1ZM1055.47,1036.88c-.33.67-.67,1.33-1,2l2-2h-1ZM529.47,1037.88c-2.46,1.95-.4.57-3,1,1.41.54,5.07-.43,3-1ZM485.47,1038.88l1,3h-1v-3ZM974.47,1038.88c-.33,1-.67,2-1,3,1.37-2.15,1.82-.54,1-3ZM1029.47,1038.88c.67.33,1.33.67,2,1-.67-.33-1.33-.67-2-1ZM1141.47,1038.88c.67.33,1.33.67,2,1-.67-.33-1.33-.67-2-1ZM610.47,1039.88h0ZM978.47,1039.88v3c.33-1,.67-2,1-3h-1ZM986.47,1039.88c.67.33,1.33.67,2,1-.67-.33-1.33-.67-2-1ZM1002.47,1039.88h0ZM1042.47,1039.88c.67.33,1.33.67,2,1-.67-.33-1.33-.67-2-1ZM1058.47,1039.88h0ZM936.47,1040.88c1,.33,2,.67,3,1-1-.33-2-.67-3-1ZM950.47,1040.88c-.67.33-1.33.67-2,1,1.33.33,2.67.67,4,1-.67-.67-1.33-1.33-2-2ZM957.47,1040.88c2.52,1.63.17.99,3,0h-3ZM982.47,1040.88c.67.33,1.33.67,2,1-.67-.33-1.33-.67-2-1ZM992.47,1040.88c1,.33,2,.67,3,1-1-.33-2-.67-3-1ZM1006.47,1040.88c.67.67,1.33,1.33,2,2-.67-.67-1.33-1.33-2-2ZM1048.47,1040.88c-.33.67-.67,1.33-1,2,1.33-.67,2.67-1.33,4-2h-3ZM1052.47,1040.88h0ZM1069.47,1040.88v3c2.05-1.36,1.61-1.12,3-3h-3ZM1104.47,1040.88c-.33.67-.67,1.33-1,2,1.33-.67,2.67-1.33,4-2h-3ZM1118.47,1040.88l2,2-2-2ZM1230.47,1040.88l2,2-2-2ZM1272.47,1040.88c1,.33,2,.67,3,1-1-.33-2-.67-3-1ZM954.47,1041.88c.67.67,1.33,1.33,2,2-1.39-1.92-.1-.6-2-2ZM1033.47,1041.88c.67.33,1.33.67,2,1-.67-.33-1.33-.67-2-1ZM1075.47,1041.88l2,2-2-2ZM482.47,1042.88h0ZM944.47,1042.88c.67.33,1.33.67,2,1-.67-.33-1.33-.67-2-1ZM1028.47,1042.88c.67,1.33,1.33,2.67,2,4,.33-.33.67-.67,1-1l-3-3ZM1056.47,1042.88c.67.33,1.33.67,2,1-.67-.33-1.33-.67-2-1ZM1112.47,1042.88c.67.33,1.33.67,2,1-.67-.33-1.33-.67-2-1ZM491.47,1043.88c.67.33,1.33.67,2,1-.67-.33-1.33-.67-2-1ZM502.47,1043.88c-.33.67-.67,1.33-1,2,.67-.67,1.33-1.33,2-2h-1ZM871.47,1043.88c.67.33,1.33.67,2,1-.67-.33-1.33-.67-2-1ZM921.47,1043.88c.67.67,1.33,1.33,2,2-1.39-1.92-.1-.6-2-2ZM927.47,1043.88c-.33.67-.67,1.33-1,2,6.78-.72,4.14.68,7-2h-6ZM940.47,1043.88c1,.67,2,1.33,3,2-1.8-2.04-.02-.71-3-2ZM950.47,1043.88c-.33.67-.67,1.33-1,2,.67-.67,1.33-1.33,2-2h-1ZM1005.47,1043.88l2,3v-3h-2ZM1023.47,1043.88c.67.33,1.33.67,2,1-.67-.33-1.33-.67-2-1ZM1033.47,1043.88l2,2c-1.39-1.92-.1-.6-2-2ZM1051.47,1043.88c.33,1,.67,2,1,3,1-.33,2-.67,3-1-.33-.67-.67-1.33-1-2h-3ZM1145.47,1043.88l2,2c-1.39-1.92-.1-.6-2-2ZM1174.47,1043.88c.43,2.6-.98.55,1,3v-3h-1ZM1207.47,1043.88c.67.33,1.33.67,2,1-.67-.33-1.33-.67-2-1ZM1230.47,1043.88c-.33.67-.67,1.33-1,2l2-2h-1ZM1263.47,1043.88c1.33.67,2.67,1.33,4,2-1.33-.67-2.67-1.33-4-2ZM1319.47,1043.88c.67.33,1.33.67,2,1-.67-.33-1.33-.67-2-1ZM916.47,1044.88c1,.67,2,1.33,3,2-1-.67-2-1.33-3-2ZM956.47,1044.88c-.33.67-.67,1.33-1,2,.67-.67,1.33-1.33,2-2h-1ZM972.47,1044.88c1,1.67,2,3.33,3,5-.33-.67-.67-1.33-1-2-.6-2.95,1.05-1.07-2-3ZM1010.47,1044.88c2.52,1.63.17.99,3,0h-3ZM1096.47,1044.88l2,2h-3c.33-.67.67-1.33,1-2ZM1102.47,1044.88c.41,3.37,1.56,3.32,0,5,1,.33,2,.67,3,1v-6h-3ZM1196.47,1044.88c1,.67,2,1.33,3,2-1-.67-2-1.33-3-2ZM1252.47,1044.88c1,.67,2,1.33,3,2-1-.67-2-1.33-3-2ZM1477.47,1044.88h0ZM581.47,1045.88c.67.33,1.33.67,2,1-.67-.33-1.33-.67-2-1ZM1124.47,1045.88v4c-.33-.67-.67-1.33-1-2,.33-.67.67-1.33,1-2ZM1261.47,1045.88c-.33.67-.67,1.33-1,2h3l-2-2ZM1297.47,1045.88h0ZM1309.47,1045.88c.67.33,1.33.67,2,1-.67-.33-1.33-.67-2-1ZM585.47,1046.88c.33,1,.67,2,1,3h1c-1.26-3.02.02-1.2-2-3ZM589.47,1046.88c.67.33,1.33.67,2,1-.67-.33-1.33-.67-2-1ZM904.47,1046.88v2c.98-1.75.91-.22,0-2ZM1041.47,1046.88l2,2-2-2ZM1201.47,1046.88l2,2c-.33-.67-.67-1.33-1-2h-1ZM1205.47,1046.88c.67.33,1.33.67,2,1-.67-.33-1.33-.67-2-1ZM1257.47,1046.88l2,2-2-2ZM1265.47,1046.88c1.39,1.92.1.6,2,2l-2-2ZM1270.47,1046.88l2,2-2-2ZM1288.47,1046.88c-.67,1.67-1.33,3.33-2,5h4c-.67-1.67-1.33-3.33-2-5ZM581.47,1047.88c-2.27,2.62-5.69.49-4,3h-2c2.96,2.73,2.22,1.06,3,4,2-1.33,4-2.67,6-4l-2-3h-1ZM891.47,1047.88c-.33.67-.67,1.33-1,2,.33-.67.67-1.33,1-2ZM899.47,1047.88c-.33.67-.67,1.33-1,2,1,.33,2,.67,3,1l-2-3ZM935.47,1047.88c.67,1.33,1.33,2.67,2,4h1c-1-1.33-2-2.67-3-4ZM949.47,1047.88c.67,1.33,1.33,2.67,2,4,.33-.33.67-.67,1-1v-3h-3ZM959.47,1047.88l2,3c-1.26-3.02.02-1.2-2-3ZM964.47,1047.88v3c.33-1,.67-2,1-3h-1ZM988.47,1047.88v3c.33-1,.67-2,1-3h-1ZM1006.47,1047.88c-.33.67-.67,1.33-1,2,1.49-1.67,1.59.16,1-2ZM1035.47,1047.88h3c-.33,1-.67,2-1,3-.67-1-1.33-2-2-3ZM1091.47,1047.88h0ZM1147.47,1047.88h0ZM1291.47,1047.88c-.33.67-.67,1.33-1,2,1,.33,2,.67,3,1-.67-1-1.33-2-2-3ZM886.47,1048.88h0ZM940.47,1048.88c1.35,3.4.61,2.07,3,4v-3c-1-.33-2-.67-3-1ZM945.47,1048.88c1.94,3.04.33,1.04,3,2,.33.67.67,1.33,1,2-1.61-3.13-.91-2.35-4-4ZM992.47,1048.88v2c.98-1.75.91-.22,0-2ZM1118.47,1048.88h2c-1.75.98-.22.91-2,0ZM1206.47,1048.88h0ZM1278.47,1048.88h0ZM1316.47,1048.88h0ZM581.47,1049.88c3.04.88.26,1.44-1,3,.33-1,.67-2,1-3ZM857.47,1049.88c.67.33,1.33.67,2,1-.67-.33-1.33-.67-2-1ZM872.47,1049.88c-.87,2.6.4,3.49-2,2,1.93,3.03.2,1.62,4,3-.67-1.67-1.33-3.33-2-5ZM895.47,1049.88c-.33.67-.67,1.33-1,2,1.79-1.34,1.52.18,1-2ZM913.47,1049.88c.33,1.67.67,3.33,1,5h1v-5h-2ZM1093.47,1049.88l2,2c-1,.33-2,.67-3,1,.33-1,.67-2,1-3ZM1141.47,1049.88h0ZM1249.47,1049.88c.67.33,1.33.67,2,1-.67-.33-1.33-.67-2-1ZM1266.47,1049.88v3c.33-1,.67-2,1-3h-1ZM1283.47,1049.88c.67,1,1.33,2,2,3-.67-1-1.33-2-2-3ZM1305.47,1049.88c.67.33,1.33.67,2,1-.67-.33-1.33-.67-2-1ZM460.47,1050.88c.33,1.67.67,3.33,1,5-.67-.33-1.33-.67-2-1v-1l1-3ZM468.47,1050.88c.33.67.67,1.33,1,2-.33-.67-.67-1.33-1-2ZM502.47,1050.88c.67.33,1.33.67,2,1-.67-.33-1.33-.67-2-1ZM836.47,1050.88h0ZM838.47,1050.88c.67.33,1.33.67,2,1-.67-.33-1.33-.67-2-1ZM874.47,1050.88h0ZM1020.47,1050.88c.33.67.67,1.33,1,2-.33-.67-.67-1.33-1-2ZM1028.47,1050.88c.33.67.67,1.33,1,2-.33-.67-.67-1.33-1-2ZM1084.47,1050.88c.33.67.67,1.33,1,2-.33-.67-.67-1.33-1-2ZM1112.47,1050.88c-.42.93.8.68-1,2,.33-.67.67-1.33,1-2ZM1140.47,1050.88c.33.67.67,1.33,1,2-.33-.67-.67-1.33-1-2ZM1146.47,1050.88h0ZM1150.47,1050.88c1.92,1.39.6.1,2,2l-2-2ZM1160.47,1050.88c1.92,1.39.6.1,2,2l-2-2ZM1228.47,1050.88c2.43,2.13-.1.59,4,1v-1h-4ZM1342.47,1050.88c.67.33,1.33.67,2,1-.67-.33-1.33-.67-2-1ZM564.47,1051.88c1.28,3.01.63,2.25,3,4-1-1.33-2-2.67-3-4ZM569.47,1051.88h0ZM861.47,1051.88c-2.78,2.34-6.4,3.42-10,3,4.33,5.59-.34,1.99,5,5-1.02-3.85-1.97-2.06,0-5,3.77,3.28.44,4.18,4,3,.1-3.07,3.51-5.01,1-6ZM879.47,1051.88c-.33,1-.67,2-1,3,1.37-2.15,1.82-.54,1-3ZM900.47,1051.88c-.33.67-.67,1.33-1,2,.67-.67,1.33-1.33,2-2h-1ZM1079.47,1051.88h0ZM1121.47,1051.88c.33,1,.67,2,1,3h-1v-3ZM1134.47,1051.88h3l-2,2c-.33-.67-.67-1.33-1-2ZM1175.47,1051.88c.33.67.67,1.33,1,2-.33-.67-.67-1.33-1-2ZM1271.47,1051.88c-.33,1.33-.67,2.67-1,4h1c.33-1,.67-2,1-3l-1-1ZM1274.47,1051.88c-.33.67-.67,1.33-1,2,1.33.33,2.67.67,4,1l-3-3ZM1348.47,1051.88c-.33.67-.67,1.33-1,2,1.33.67,2.67,1.33,4,2-1-1.33-2-2.67-3-4ZM1477.47,1051.88h0ZM479.47,1052.88c.67.33,1.33.67,2,1-.67-.33-1.33-.67-2-1ZM486.47,1052.88v2c.98-1.75.91-.22,0-2ZM822.47,1052.88c-.33.33-.67.67-1,1,.67.67,1.33,1.33,2,2,.33-1,.67-2,1-3h-2ZM825.47,1052.88c.67.33,1.33.67,2,1-.67-.33-1.33-.67-2-1ZM865.47,1052.88c2.18,3.22.46,4.38,4,7-.72-4.33-2.04-2.67,0-5-1.33-.67-2.67-1.33-4-2ZM1116.47,1052.88c.33.67.67,1.33,1,2-.33-.67-.67-1.33-1-2ZM1125.47,1052.88c1.92,1.39.6.1,2,2l-2-2ZM1431.47,1052.88c.67.33,1.33.67,2,1-.67-.33-1.33-.67-2-1ZM1487.47,1052.88c.67.33,1.33.67,2,1-.67-.33-1.33-.67-2-1ZM1494.47,1052.88v2c.98-1.75.91-.22,0-2ZM451.47,1053.88h2l-1,3-1-3ZM454.47,1053.88h2l-1,3-1-3ZM476.47,1053.88c.67.33,1.33.67,2,1-.67-.33-1.33-.67-2-1ZM574.47,1053.88c-.33.67-.67,1.33-1,2,1.33-.67,2.67-1.33,4-2h-3ZM845.47,1053.88c.67.67,1.33,1.33,2,2-.33-.67-.67-1.33-1-2h-1ZM895.47,1053.88c-.33.33-.67.67-1,1,1,.67,2,1.33,3,2l-2-3ZM1159.47,1053.88c.33.67.67,1.33,1,2-.33-.67-.67-1.33-1-2ZM1178.47,1053.88h3l-3,3v-3ZM1182.47,1053.88h2c-1.26,3.02.02,1.2-2,3v-3ZM1264.47,1053.88c-.71,1.24-2.76,5.92-6,2,.67.33,1.33.67,2,1,.44-2.83.65-1.07,4-3ZM1484.47,1053.88c.67.33,1.33.67,2,1-.67-.33-1.33-.67-2-1ZM450.47,1054.88c.33.67.67,1.33,1,2-.33-.67-.67-1.33-1-2ZM474.47,1054.88c.67.67,1.33,1.33,2,2-.67-.67-1.33-1.33-2-2ZM557.47,1054.88c2.5,2.14,1.74,1.55,4,2-.39,3.98-2.15.63,0,4,.33-1,.67-2,1-3l-2-3h-3ZM571.47,1054.88h0ZM797.47,1054.88c.67.33,1.33.67,2,1-.67-.33-1.33-.67-2-1ZM839.47,1054.88c.6,2.6.05,3.5,2,6,.33-1,.67-2,1-3l-3-3ZM861.47,1054.88c.67,1.33,1.33,2.67,2,4h1c-1.31-4.47.66-2.01-3-4ZM1148.47,1054.88h0ZM1163.47,1054.88h0ZM1168.47,1054.88h0ZM1303.47,1054.88h0ZM1315.47,1054.88h5l-2,2c-1-.67-2-1.33-3-2ZM1331.47,1054.88h0ZM445.47,1055.88c1.92,1.39.6.1,2,2-.67-.67-1.33-1.33-2-2ZM479.47,1055.88c1.56,2.81,1.47,2.34,4,4v-4c-1.86.73-.38.77-2,0h-2ZM536.47,1055.88c-.33.67-.67,1.33-1,2,.67-.67,1.33-1.33,2-2h-1ZM538.47,1055.88h0ZM801.47,1055.88c.67.33,1.33.67,2,1-.67-.33-1.33-.67-2-1ZM807.47,1055.88c1.39,1.92.1.6,2,2-.67-.67-1.33-1.33-2-2ZM843.47,1055.88v7h1v-3c.67.33,1.33.67,2,1-1.06-3.65-.81-2.94-3-5ZM848.47,1055.88v4c1-.33,2-.67,3-1l-2-3h-1ZM1158.47,1055.88c.33,1,.67,2,1,3h-1v-3ZM1186.47,1055.88c.33.67.67,1.33,1,2-.33-.67-.67-1.33-1-2ZM1230.47,1055.88c1.31,2.72.44,1.92-1,4,.33-1.33.67-2.67,1-4ZM1245.47,1055.88c2.12,2.34.44-.11,1,3-.67-.33-1.33-.67-2-1v-1l1-1ZM1275.47,1055.88c.67.33,1.33.67,2,1-.67-.33-1.33-.67-2-1ZM1301.47,1055.88c2.12,2.34.44-.11,1,3-.67-.33-1.33-.67-2-1v-1l1-1ZM1310.47,1055.88c-.42.93.8.68-1,2,.33-.67.67-1.33,1-2ZM1314.47,1055.88c.33.67.67,1.33,1,2-.33-.67-.67-1.33-1-2ZM1341.47,1055.88h2c-.67,1.33-1.33,2.67-2,4-.33-.67-.67-1.33-1-2,.33-.67.67-1.33,1-2ZM1376.47,1055.88c.23,2.29-.48,1.53,1,4-.33-1.33-.67-2.67-1-4ZM1487.47,1055.88c1.56,2.81,1.47,2.34,4,4,.28-2.37-.22-1.25,1-4-2.82,1.02-1.57.71-3,0h-2ZM1504.47,1055.88c-1.8,2.04-.02.71-3,2,1.67,1,3.33,2,5,3-.64-3.63-.4-3.03-2-5ZM471.47,1056.88h0ZM553.47,1056.88v2c-.67-.33-1.33-.67-2-1-.33.67-.67,1.33-1,2,4.5,1.39,3.6.52,5,5h1c.91-3.65-.04-2.04,2-4-2.01-3.06-.99-2.59-5-4ZM833.47,1056.88c1.3,2.12,1.23,1.45,2,5,.67-.67,1.33-1.33,2-2-1.91-2.42-.64-1.62-4-3ZM1249.47,1056.88h0ZM1254.47,1056.88c.33.67.67,1.33,1,2-.33-.67-.67-1.33-1-2ZM1305.47,1056.88h0ZM1331.47,1056.88h0ZM445.47,1057.88c.33.67.67,1.33,1,2-.33-.67-.67-1.33-1-2ZM450.47,1057.88h0ZM454.47,1057.88h0ZM462.47,1057.88c2.52,1.63.17.99,3,0h-3ZM474.47,1057.88c-.33.67-.67,1.33-1,2,1.33-.67,2.67-1.33,4-2h-3ZM487.47,1057.88c-.33.67-.67,1.33-1,2,.67-.67,1.33-1.33,2-2h-1ZM554.47,1057.88c.67.67,1.33,1.33,2,2-1.92-1.39-.6-.1-2-2ZM800.47,1057.88c-.33.67-.67,1.33-1,2h2c-.33-.67-.67-1.33-1-2ZM810.47,1057.88c1,.33,2,.67,3,1-1-.33-2-.67-3-1ZM829.47,1057.88c1,1.67,2,3.33,3,5v-5h-3ZM1234.47,1057.88c2.65,1.41.87.53,0,3v-3ZM1282.47,1057.88l2,2c-1.92-1.39-.6-.1-2-2ZM1294.47,1057.88l6,3c-3.04,1.94-1.04.33-2,3-3.46-2.31-2.72-3.47-4-6ZM1360.47,1057.88c-.33.67-.67,1.33-1,2h2c-.33-.67-.67-1.33-1-2ZM1482.47,1057.88c1,.33,2,.67,3,1-1-.33-2-.67-3-1ZM1495.47,1057.88c-.33.67-.67,1.33-1,2l2-2h-1ZM1518.47,1057.88h0ZM565.47,1058.88h0ZM1309.47,1058.88c.33,1,.67,2,1,3h-1v-3ZM1357.47,1058.88h0ZM1399.47,1058.88c.67,1,1.33,2,2,3-.67-1-1.33-2-2-3ZM1403.47,1058.88v3l2,2c-.67-1.67-1.33-3.33-2-5ZM1492.47,1058.88c-1.79,6.77-4.34,3.94-3,7,2.5-2.15,4.05-4.07,3-7ZM436.47,1059.88h2c-1.26,3.02.02,1.2-2,3v-3ZM446.47,1059.88c.33.67.67,1.33,1,2-.33-.67-.67-1.33-1-2ZM1263.47,1059.88h0ZM1273.47,1059.88c.33.67.67,1.33,1,2h-2c.33-.67.67-1.33,1-2ZM1303.47,1059.88h3v3c-1-.33-2-.67-3-1v-2ZM1332.47,1059.88h0ZM1350.47,1059.88h0ZM1396.47,1059.88c-.33.67-.67,1.33-1,2l2-2h-1ZM1518.47,1059.88h0ZM458.47,1060.88c2.15,4.24,2.44,1.73,1,6,3.96-.78,1.32-2.27,5,0-2.51-4.08-1.72-3.96-6-6ZM483.47,1060.88v3c-1.67-.33-3.33-.67-5-1,.33.67.67,1.33,1,2,.67.33,1.33.67,2,1,2.32-2.3,2.95-1.8,2-5ZM550.47,1060.88c1,.67,2,1.33,3,2-1-.67-2-1.33-3-2ZM1494.47,1060.88h0ZM1502.47,1060.88c1,.67,2,1.33,3,2-1-.67-2-1.33-3-2ZM1520.47,1060.88c2.96,1.93.02.25,2,3-2.04-1.8-.71-.02-2-3ZM468.47,1061.88c.67.67,1.33,1.33,2,2-.67-.67-1.33-1.33-2-2ZM530.47,1061.88c.67.67,1.33,1.33,2,2-1.39-1.92-.1-.6-2-2ZM558.47,1061.88c-.33.67-.67,1.33-1,2h2c-.33-.67-.67-1.33-1-2ZM787.47,1061.88l2,3-2-3ZM819.47,1061.88h3v4h-4c.67-.67,1.33-1.33,2-2-.33-.67-.67-1.33-1-2ZM1310.47,1061.88c.33,1,.67,2,1,3h-1v-3ZM1467.47,1061.88c.67.33,1.33.67,2,1-.67-.33-1.33-.67-2-1ZM540.47,1062.88l3,3c-3.79-1.91-2.05-.43-3-3ZM1328.47,1062.88h0ZM1442.47,1062.88l2,2-2-2ZM759.47,1063.88c1,.67,2,1.33,3,2-1-.67-2-1.33-3-2ZM1408.47,1063.88c.67.33,1.33.67,2,1-.67-.33-1.33-.67-2-1ZM1431.47,1063.88c1,.67,2,1.33,3,2-1-.67-2-1.33-3-2ZM1518.47,1063.88c1.33.33,2.67.67,4,1l-3,3h-1v-4ZM1527.47,1063.88h0ZM439.47,1064.88h0ZM518.47,1064.88c1,1.67,2,3.33,3,5-1-1.67-2-3.33-3-5ZM1391.47,1064.88h0ZM1395.47,1064.88c.33.67.67,1.33,1,2-.33-.67-.67-1.33-1-2ZM1468.47,1064.88c-.67.33-1.33.67-2,1,0,0,4.16-.42,2-1ZM1513.47,1064.88c.33.67.67,1.33,1,2-.33-.67-.67-1.33-1-2ZM453.47,1065.88c-.33.67-.67,1.33-1,2,1.33.33,2.67.67,4,1-1-.33-2-.67-3-1v-2ZM467.47,1065.88c.67.33,1.33.67,2,1-.67-.33-1.33-.67-2-1ZM477.47,1065.88c-.33.67-.67,1.33-1,2,.67-.67,1.33-1.33,2-2h-1ZM483.47,1065.88c-.33.67-.67,1.33-1,2,.67-.67,1.33-1.33,2-2h-1ZM537.47,1065.88c.33.67.67,1.33,1,2-.33-.67-.67-1.33-1-2ZM763.47,1065.88c.67.67,1.33,1.33,2,2-.67-.67-1.33-1.33-2-2ZM1386.47,1065.88c.33.67.67,1.33,1,2-.33-.67-.67-1.33-1-2ZM1414.47,1065.88c1.33.33,2.67.67,4,1v1h-2c-1.31,3.72-1.02,3.16-4,5v-3c2.07-1.96,1.04-.37,2-4ZM1440.47,1065.88c1.39,1.92.1.6,2,2l-2-2ZM1461.47,1065.88c-.33,1-.67,2-1,3,.67-1,1.33-2,2-3h-1ZM1471.47,1065.88c.67,1,1.33,2,2,3-.67-1-1.33-2-2-3ZM1475.47,1065.88v3c.67-1,1.33-2,2-3h-2ZM1485.47,1065.88c-.33.67-.67,1.33-1,2h2c-.33-.67-.67-1.33-1-2ZM1511.47,1065.88c.33.67.67,1.33,1,2-.33-.67-.67-1.33-1-2ZM434.47,1066.88l1,3h-1v-3ZM472.47,1066.88c.42,2.6-.98.55,1,3v-3h-1ZM805.47,1066.88c.67.67,1.33,1.33,2,2-1.92-1.39-.6-.1-2-2ZM819.47,1066.88h0ZM810.47,1067.88h0ZM1418.47,1067.88c1.63,2.52.99.17,0,3h-1c.33-1,.67-2,1-3ZM1420.47,1067.88h0ZM1469.47,1067.88c-.33,1.33-.67,2.67-1,4,1.52-2.29,1.83-1.21,1-4ZM1507.47,1067.88h4v2c-3.08-.3-6.05.95-4-2ZM1527.47,1067.88c.33.67.67,1.33,1,2-.33-.67-.67-1.33-1-2ZM447.47,1068.88c-1,.33-2,.67-3,1v1c3.54-.68,2.24-.78,3-2ZM515.47,1068.88c1,.33,2,.67,3,1-1-.33-2-.67-3-1ZM801.47,1068.88h0ZM1428.47,1068.88h2c-1.39,1.92-.1.6-2,2v-2ZM1435.47,1068.88l2,2c-1.92-1.39-.6-.1-2-2ZM1448.47,1068.88l2,2c-1.39-1.92-.1-.6-2-2ZM1513.47,1068.88h3c-1.84,2.76-.82,1.19-2,5h-1v-5ZM1517.47,1068.88h3v1c-3.12-.54-.9,1.37-3-1ZM1529.47,1068.88h0ZM440.47,1069.88c1.31,2.72.44,1.92-1,4v-2h-2c1-.67,2-1.33,3-2ZM450.47,1069.88c-.33,1.67-.67,3.33-1,5,5.34-.49,6.92-.31,9-2-3.37.27-2.95-.2-7,1,.3-3.42,1.23-1.49-1-4ZM479.47,1069.88c-.33.67-.67,1.33-1,2,.67-.67,1.33-1.33,2-2h-1ZM1421.47,1069.88c1.67.33,3.33.67,5,1h-4c-.03.68.47,3.69-1,2v-3ZM523.47,1070.88l1,3c-.67-.33-1.33-.67-2-1,.33-.67.67-1.33,1-2ZM1408.47,1070.88h0ZM1508.47,1070.88h0ZM1519.47,1070.88c1.67.33,3.33.67,5,1v1h-1c-1.33-.67-2.67-1.33-4-2ZM435.47,1071.88h2c-1.74.98-.22.91-2,0ZM762.47,1071.88c.33.67.67,1.33,1,2h-2c.33-.67.67-1.33,1-2ZM1484.47,1071.88c2.62,1.78,1.36.06,1,3-.33-1-.67-2-1-3ZM1490.47,1071.88c-.71.94.16,1.56-2,1,.67-.33,1.33-.67,2-1ZM1499.47,1071.88h2c-1.75.98-.22.91-2,0ZM419.47,1072.88c.33.67.67,1.33,1,2-.33-.67-.67-1.33-1-2ZM431.47,1072.88c3.07,1.25,4.05,1.83,6,2-1,1.33-2,2.67-3,4-1.37-4.81-.04.05-4-3,2.12-2.34.44.11,1-3ZM464.47,1072.88c.67.33,1.33.67,2,1-.67-.33-1.33-.67-2-1ZM528.47,1072.88c.33.67.67,1.33,1,2-.33-.67-.67-1.33-1-2ZM1426.47,1072.88c1.92,1.39.6.1,2,2l-2-2ZM1432.47,1072.88c.33.67.67,1.33,1,2-.33-.67-.67-1.33-1-2ZM1482.47,1072.88c1.92,1.39.6.1,2,2l-2-2ZM462.47,1073.88c.67.67,1.33,1.33,2,2-.67-.67-1.33-1.33-2-2ZM1505.47,1073.88h2c-1.75.98-.22.91-2,0ZM516.47,1074.88l2,3-2-3ZM1452.47,1074.88h0ZM1493.47,1074.88h0ZM1498.47,1074.88c1.29,3.27,1.87,1.11,0,4v-4ZM519.47,1075.88c.33.67.67,1.33,1,2-.33-.67-.67-1.33-1-2ZM526.47,1075.88l1,3c.67-.67,1.33-1.33,2-2-2.56-.48-.33.67-3-1ZM1440.47,1075.88c.33.67.67,1.33,1,2-.33-.67-.67-1.33-1-2ZM1471.47,1075.88l2,2c-1.92-1.39-.6-.1-2-2ZM1495.47,1075.88h0ZM437.47,1076.88c2.05,1.36,1.61,1.12,3,3-2.7-1.6-1.38-.34-3-3ZM486.47,1076.88c.67.33,1.33.67,2,1-.67-.33-1.33-.67-2-1ZM501.47,1076.88c2.73,1.89.52.26,2,4-1-.33-2-.67-3-1l1-3ZM1488.47,1076.88c1.18,2.82.75,1-1,3,.33-1,.67-2,1-3ZM429.47,1077.88c.33.67.67,1.33,1,2-.33-.67-.67-1.33-1-2ZM446.47,1077.88c.67.33,1.33.67,2,1-.67-.33-1.33-.67-2-1ZM514.47,1077.88c.33.67.67,1.33,1,2-.33-.67-.67-1.33-1-2ZM1449.47,1077.88c.33.67.67,1.33,1,2-.33-.67-.67-1.33-1-2ZM1457.47,1077.88h0ZM1483.47,1077.88h0ZM1513.47,1077.88h0ZM423.47,1078.88h0ZM433.47,1078.88c.33.67.67,1.33,1,2-.33-.67-.67-1.33-1-2ZM1471.47,1078.88h0ZM1439.47,1079.88c.33.67.67,1.33,1,2-.33-.67-.67-1.33-1-2ZM1481.47,1079.88c.67,1.33,1.33,2.67,2,4-.67-.33-1.33-.67-2-1v-3ZM421.47,1080.88c1.85,2.79.72.14,1,4h-1v-4ZM434.47,1080.88c.33.67.67,1.33,1,2-.33-.67-.67-1.33-1-2ZM440.47,1080.88h0ZM457.47,1080.88c.67.67,1.33,1.33,2,2-.67-.67-1.33-1.33-2-2ZM476.47,1080.88h0ZM494.47,1080.88l2,3c-2.04-1.8-.71-.02-2-3ZM716.47,1080.88c-.42.93.8.68-1,2,.33-.67.67-1.33,1-2ZM1444.47,1080.88c.33.67.67,1.33,1,2-.33-.67-.67-1.33-1-2ZM417.47,1081.88c2.62,1.78,1.36.06,1,3l-1-3ZM444.47,1081.88c-1.25,2.04-2.96,3.75-5,5v1c5.36-2.26,4.88-2.05,7-6h-2ZM452.47,1081.88c1,.67,2,1.33,3,2-1-.67-2-1.33-3-2ZM498.47,1081.88c.33.67.67,1.33,1,2h-2c.33-.67.67-1.33,1-2ZM502.47,1081.88h2c-1,.67-2,1.33-3,2,.33-.67.67-1.33,1-2ZM1491.47,1081.88c1.92,1.39.6.1,2,2l-2-2ZM415.47,1082.88h0ZM447.47,1082.88c.67.67,1.33,1.33,2,2-.67-.67-1.33-1.33-2-2ZM469.47,1082.88c1.39,1.92.1.6,2,2-.67-.67-1.33-1.33-2-2ZM1449.47,1082.88h0ZM1505.47,1082.88h0ZM490.47,1083.88c.67.67,1.33,1.33,2,2-.67.33-1.33.67-2,1v-3ZM1495.47,1083.88h2c-1.75.98-.22.91-2,0ZM417.47,1084.88c.67,1.67,1.33,3.33,2,5h-3c.33-1.67.67-3.33,1-5ZM420.47,1084.88c.33.67.67,1.33,1,2-.33-.67-.67-1.33-1-2ZM429.47,1084.88v2c.98-1.75.91-.22,0-2ZM398.47,1085.88c.33.67.67,1.33,1,2-.33-.67-.67-1.33-1-2ZM411.47,1085.88h0ZM414.47,1086.88c.33.67.67,1.33,1,2-.33-.67-.67-1.33-1-2ZM484.47,1086.88h0ZM494.47,1086.88c-.22,1.47.41,1-1,3l1-3ZM421.47,1087.88h2c-1.74.98-.22.91-2,0ZM477.47,1087.88h2c-1.74.98-.22.91-2,0ZM408.47,1088.88c.33.67.67,1.33,1,2-.33-.67-.67-1.33-1-2ZM423.47,1088.88h3c-1.3,2.85-1.51.6-1,4-1-.33-2-.67-3-1v-1c.33-.67.67-1.33,1-2ZM445.47,1088.88h0ZM455.47,1088.88c.6,2.95-1.05,1.07,2,3v-1c-2.66-.97.46-.74-2-2ZM479.47,1088.88h3v1c-3.12-.54-.9,1.37-3-1ZM485.47,1088.88c3.39,1.23,2.02.28,2,3l-2-3ZM430.47,1089.88l1,3c.67-.67,1.33-1.33,2-2-2.56-.48-.33.67-3-1ZM417.47,1090.88l1,3h-1v-3ZM473.47,1090.88l1,3h-1v-3ZM489.47,1090.88c.33.67.67,1.33,1,2-.33-.67-.67-1.33-1-2ZM492.47,1090.88h0ZM419.47,1091.88c1.92,1.39.6.1,2,2-.67-.67-1.33-1.33-2-2ZM401.47,1092.88l1,3c-.67-.33-1.33-.67-2-1,.33-.67.67-1.33,1-2ZM403.47,1092.88h0ZM408.47,1092.88h0ZM425.47,1092.88l2,3-2-3ZM439.47,1092.88c-.33.67-.67,1.33-1,2,.67-.67,1.33-1.33,2-2h-1ZM459.47,1092.88c1.92,1.39.6.1,2,2-.67-.67-1.33-1.33-2-2ZM464.47,1092.88h2c-1.74.98-.22.91-2,0ZM495.47,1092.88l-3,3,6-3h-3ZM656.47,1092.88c.33.67.67,1.33,1,2-.33-.67-.67-1.33-1-2ZM443.47,1093.88l2,3-2-3ZM406.47,1094.88h2c-1.74.98-.22.91-2,0ZM419.47,1094.88h0ZM430.47,1094.88c1,1.67,2,3.33,3,5,.67-.67,1.33-1.33,2-2l-5-3ZM436.47,1094.88v4h1c-.33-1.33-.67-2.67-1-4ZM647.47,1095.88c.67.67,1.33,1.33,2,2-.67.33-1.33.67-2,1v-3ZM400.47,1096.88c.33.67.67,1.33,1,2-.33-.67-.67-1.33-1-2ZM414.47,1096.88h0ZM421.47,1096.88c.67,1.33,1.33,2.67,2,4-1.33.33-2.67.67-4,1,.67-1.67,1.33-3.33,2-5ZM424.47,1096.88c.33.67.67,1.33,1,2-.33-.67-.67-1.33-1-2ZM427.47,1096.88c1.29,3.27,1.87,1.11,0,4h-1c.33-1.33.67-2.67,1-4ZM410.47,1097.88h0ZM413.47,1097.88c.67.67,1.33,1.33,2,2-.67.33-1.33.67-2,1v-3ZM446.47,1097.88c1.86,2.57.08,1.58-2,3l2-3ZM466.47,1097.88h0ZM469.47,1098.88h0ZM477.47,1098.88c.67.67,1.33,1.33,2,2h-3c.33-.67.67-1.33,1-2ZM482.47,1098.88h3c-.67.67-1.33,1.33-2,2-.33-.67-.67-1.33-1-2ZM415.47,1099.88l4,3-4-3ZM440.47,1099.88c1.33.67,2.67,1.33,4,2-1.56,2.81-1.47,2.34-4,4l2-3h-4v-1c2.61-.87,3.49.4,2-2ZM403.47,1100.88l2,3c-1,.33-2,.67-3,1,.33-1.33.67-2.67,1-4ZM407.47,1100.88h0ZM424.47,1100.88c2.6,1.23,4.28,1.84,6,4-.67-.33-1.33-.67-2-1-1.39,1.92-.1.6-2,2-.66-4.19-.26.23-3-3,.33-.67.67-1.33,1-2ZM411.47,1101.88h0ZM415.47,1101.88c1.67,1.33,3.33,2.67,5,4-.67.67-1.33,1.33-2,2l-2-3-1-3ZM471.47,1101.88c.33.67.67,1.33,1,2-.33-.67-.67-1.33-1-2ZM406.47,1102.88h0ZM384.47,1103.88h0ZM410.47,1103.88c.33.67.67,1.33,1,2h-2c.33-.67.67-1.33,1-2ZM419.47,1103.88h0ZM434.47,1103.88h0ZM413.47,1105.88h0ZM421.47,1105.88c1,.33,2,.67,3,1v1c-3.02-1.26-1.2.02-3-2ZM429.47,1105.88c-.42.93.8.68-1,2,.33-.67.67-1.33,1-2ZM404.47,1106.88c.33,1.67.67,3.33,1,5-.67-.33-1.33-.67-2-1v-1l1-3ZM412.47,1106.88c.33.67.67,1.33,1,2-.33-.67-.67-1.33-1-2ZM432.47,1106.88c1.92,1.39.6.1,2,2-.67-.67-1.33-1.33-2-2ZM406.47,1107.88h3c-.67.67-1.33,1.33-2,2-.33-.67-.67-1.33-1-2ZM478.47,1107.88c.67.67,1.33,1.33,2,2-.67-.67-1.33-1.33-2-2ZM398.47,1109.88h2l-1,3-1-3ZM394.47,1110.88c.33.67.67,1.33,1,2-.33-.67-.67-1.33-1-2ZM396.47,1110.88c.33.67.67,1.33,1,2-.33-.67-.67-1.33-1-2ZM390.47,1111.88c.33.67.67,1.33,1,2-.33-.67-.67-1.33-1-2ZM405.47,1111.88c2.12,2.34.44-.11,1,3-.67-.33-1.33-.67-2-1v-1c.33-.33.67-.67,1-1ZM409.47,1112.88h0ZM394.47,1113.88l1,3h-1v-3ZM398.47,1113.88h0ZM380.47,1115.88c1.92,1.39.6.1,2,2-.67-.67-1.33-1.33-2-2ZM398.47,1115.88h0ZM454.47,1122.88c1.39,1.92.1.6,2,2-.67-.67-1.33-1.33-2-2ZM451.47,1127.88c-.33.33-.67.67-1,1l4,3h1l1-3c-4.91,1.38-2.14.45-5-1ZM554.47,1128.88c.67.33,1.33.67,2,1-.67-.33-1.33-.67-2-1ZM435.47,1133.88c.67.67,1.33,1.33,2,2-.67-.67-1.33-1.33-2-2ZM444.47,1135.88c.67.33,1.33.67,2,1-.67-.33-1.33-.67-2-1ZM439.47,1137.88c2.23,4.75-.14,4.31,3,7,.09-5.35,1.66-2.3,4-7-6.41,1.71-1.6.35-7,0ZM435.47,1142.88c.33.67.67,1.33,1,2-.33-.67-.67-1.33-1-2ZM467.47,1142.88v3l1-3h-1ZM475.47,1142.88c.67.67,1.33,1.33,2,2-1.39-1.92-.1-.6-2-2ZM478.47,1142.88c.67.33,1.33.67,2,1-.67-.33-1.33-.67-2-1ZM419.47,1144.88c.33.67.67,1.33,1,2-.33-.67-.67-1.33-1-2ZM461.47,1144.88c.33.33.67.67,1,1-2.46,1.95-.4.57-3,1,1.95,3.64,3.25-.24,2,5,1-.67,2-1.33,3-2-1-1.67-2-3.33-3-5ZM473.47,1145.88c.67.67,1.33,1.33,2,2-1.39-1.92-.1-.6-2-2ZM416.47,1146.88l5,3h-4l-1-3ZM467.47,1146.88c-.33.67-.67,1.33-1,2,.67-.67,1.33-1.33,2-2h-1ZM471.47,1146.88c-.33.67-.67,1.33-1,2,.67-.67,1.33-1.33,2-2h-1ZM515.47,1146.88c2.52,1.63.17.99,3,0h-3ZM439.47,1148.88c-.33.67-.67,1.33-1,2,.33-.67.67-1.33,1-2ZM451.47,1148.88c.67.33,1.33.67,2,1-2.63,1.63-.82,1.16-4,1,.9,5.69,2.95,10.58,8,12l2-6c-4.75-4.1-3.91-5.7-8-8ZM495.47,1148.88c-.33.67-.67,1.33-1,2,.67-.67,1.33-1.33,2-2h-1ZM507.47,1148.88c.67.33,1.33.67,2,1-.67-.33-1.33-.67-2-1ZM459.47,1149.88c-.09,3.34-1.14,2.48,1,5-.33-1.67-.67-3.33-1-5ZM470.47,1149.88c-.33,1.33-.67,2.67-1,4,1-.33,2-.67,3-1l2-3c-3.87,1.02-.47,1.54-4,0ZM419.47,1150.88h0ZM487.47,1150.88v4c1.33-.67,2.67-1.33,4-2-1.33-.67-2.67-1.33-4-2ZM409.47,1151.88c1,.67,2,1.33,3,2-1.67.67-3.33,1.33-5,2,.67-1.33,1.33-2.67,2-4ZM442.47,1151.88h0ZM498.47,1151.88h0ZM414.47,1152.88h0ZM432.47,1152.88c1,.33,2,.67,3,1-1-.33-2-.67-3-1ZM461.47,1152.88c1.39,1.92.1.6,2,2-.67-.67-1.33-1.33-2-2ZM502.47,1152.88c.67.67,1.33,1.33,2,2-1.39-1.92-.1-.6-2-2ZM440.47,1154.88c.67.33,1.33.67,2,1-.67-.33-1.33-.67-2-1ZM455.47,1154.88c-.22,1.47.41,1-1,3l1-3ZM478.47,1154.88c.33.67.67,1.33,1,2-1.67,1.33-3.33,2.67-5,4,.67.33,1.33.67,2,1v2l1-3c-.67-.33-1.33-.67-2-1,6.38-1.25,4.09-2.66,10-1-2.33-1.33-4.67-2.67-7-4ZM473.47,1155.88c.67.33,1.33.67,2,1-.67-.33-1.33-.67-2-1ZM403.47,1156.88l1,3h-1c-.33-.33-.67-.67-1-1,.33-.67.67-1.33,1-2ZM405.47,1156.88h0ZM456.47,1156.88h0ZM468.47,1156.88c1,.67,2,1.33,3,2-1-.67-2-1.33-3-2ZM415.47,1157.88c.33.67.67,1.33,1,2-.33-.67-.67-1.33-1-2ZM491.47,1157.88c.67.33,1.33.67,2,1-.67-.33-1.33-.67-2-1ZM455.47,1158.88c.33.67.67,1.33,1,2-.33-.67-.67-1.33-1-2ZM481.47,1158.88c.67.67,1.33,1.33,2,2-.67-.67-1.33-1.33-2-2ZM486.47,1158.88c.67.67,1.33,1.33,2,2-.67-.67-1.33-1.33-2-2ZM489.47,1160.88c-1,.33-2,.67-3,1v1c3.65-.91,2.05.04,4-2h-1ZM412.47,1162.88c.33.67.67,1.33,1,2-.33-.67-.67-1.33-1-2ZM432.47,1162.88h3c-.67.67-1.33,1.33-2,2-.33-.67-.67-1.33-1-2ZM462.47,1162.88c-.33.67-.67,1.33-1,2,1-.67,2-1.33,3-2h-2ZM449.47,1164.88c1.33.33,2.67.67,4,1v3h-4v-4ZM404.47,1165.88c.33.67.67,1.33,1,2-.33-.67-.67-1.33-1-2ZM469.47,1165.88h0ZM473.47,1165.88h0ZM411.47,1166.88c-.33,2.67-.67,5.33-1,8-2.56-1.63-2.42-1.23-4-4,3.77-.52,1.9-.33,5-4ZM419.47,1166.88h0ZM472.47,1166.88c.33.67.67,1.33,1,2-.33-.67-.67-1.33-1-2ZM491.47,1166.88h0ZM418.47,1167.88c.33.67.67,1.33,1,2-.33-.67-.67-1.33-1-2ZM445.47,1167.88c2.86,2.58,1.57,1.29,0,4v-4ZM470.47,1167.88l1,3c-.67-.33-1.33-.67-2-1,.33-.67.67-1.33,1-2ZM474.47,1167.88c.33.67.67,1.33,1,2-.33-.67-.67-1.33-1-2ZM405.47,1168.88c.33.67.67,1.33,1,2-.33-.67-.67-1.33-1-2ZM461.47,1168.88c.33.67.67,1.33,1,2-.33-.67-.67-1.33-1-2ZM465.47,1168.88h0ZM411.47,1169.88h0ZM450.47,1169.88h3c-.67.33-1.33.67-2,1v2l-1-3ZM454.47,1169.88h0ZM479.47,1169.88c1.3,2.52,1.15,1.43,1,4-1-.33-2-.67-3-1l2-3ZM402.47,1170.88c.67.67,1.33,1.33,2,2-1.92-1.39-.6-.1-2-2ZM413.47,1170.88c.33.67.67,1.33,1,2-.33-.67-.67-1.33-1-2ZM458.47,1170.88c.67.67,1.33,1.33,2,2-1.92-1.39-.6-.1-2-2ZM465.47,1170.88c1.85,2.79.72.14,1,4-.67-.33-1.33-.67-2-1l1-3ZM469.47,1170.88c.67.67,1.33,1.33,2,2-.67.33-1.33.67-2,1v-3ZM471.47,1170.88h0ZM474.47,1170.88c2.12,2.34.44-.11,1,3-.67-.33-1.33-.67-2-1v-1c.33-.33.67-.67,1-1ZM436.47,1171.88c1.92,1.39.6.1,2,2-.67-.67-1.33-1.33-2-2ZM400.47,1172.88c2.96,1.93.02.25,2,3-2.04-1.8-.71-.02-2-3ZM470.47,1173.88c.67.67,1.33,1.33,2,2-.67.33-1.33.67-2,1v-3ZM398.47,1175.88h0ZM407.47,1175.88h0ZM465.47,1175.88h0ZM398.47,1177.88h0ZM454.47,1177.88h0ZM462.47,1179.88c1.92,1.39.6.1,2,2-.67-.67-1.33-1.33-2-2ZM457.47,1182.88c3.02,1.26,1.2-.02,3,2h-1c-.67-.67-1.33-1.33-2-2Z"/>
  <ellipse class="cls-2" cx="1023.47" cy="711.88" rx="570.53" ry="527.39"/>
</svg>