<?xml version="1.0" encoding="UTF-8"?>
<svg id="Layer_1" data-name="Layer 1" xmlns="http://www.w3.org/2000/svg" viewBox="0 0 1218.53 1064.78">
  <defs>
    <style>
      .cls-1 {
        fill: #000;
        fill-rule: evenodd;
      }

      .cls-2 {
        fill: none;
        stroke: #000;
        stroke-miterlimit: 10;
        stroke-width: 10px;
      }
    </style>
  </defs>
  <path class="cls-1" d="M1010,184.39h3v1h-5c.67-.33,1.33-.67,2-1ZM1011,186.39c1.33,1.67,2.67,3.33,4,5-1.67-.67-3.33-1.33-5-2,2.3,2.32,1.8,2.95,5,2,.67.67,1.33,1.33,2,2-2.04,7.19,1.25,12.52,11,19-2.52,1.3-1.43,1.15-4,1,.7,3.82,3.15,5.5-1,9-.16-.8-.01-2.01-1-1,3.98,5.73,2.1,11.82,0,19h3c-.18-3.6-.18-1.39,2-3-.33,1.67-.67,3.33-1,5-3.06.02-1.4-.96-4,1,2.7,1.6,1.38.34,3,3l-3-1c2,2.41,2.13,2.21,6,3-.67.67-1.33,1.33-2,2-2.6.42-.55-.98-3,1,3.98.84-.34,1.04,4,5-8.09,2.92,2.67,4.24-5,7,2.46,1.95.4.57,3,1-2.79,5.2.37,2.13-4,7,1.87.81,3.01,19.74-4,27h5c-3.2,3.44-2.49,2.96-4,7,3.06.02,1.4-.96,4,1-5.39,1.38-2.5,6.46-1,10-2.6.42-.55-.98-3,1,3.02,1.26,1.2-.02,3,2-1.33.67-2.67,1.33-4,2,3.47.82,1.26-1.16,3,2-2.6.42-.55-.98-3,1,2.9.53,4.9-.79,3,2-3.65.91-2.04-.04-4,2h4c-2.35,2.97-2,10-2,10-.33,1-.67,2-1,3,5.3,2.15-2.21,10.92,2,18l-3-1c2.41,10.15-3.33,15.06,3,23-1.67.33-3.33.67-5,1,.67.67,1.33,1.33,2,2h3c-2.43,4.48.26,1.06-1,5l-4,1c6.5,3.3-2.08,70.54,4,73-.33.67-.67,1.33-1,2l-3,2c3.02,1.26,1.2-.02,3,2-3.12.49-.66-1.12-3,1,3.89.49,2.17,5.02,3,9-2.6.42-.55-.98-3,1,5.15,2.59-2.9,18.7,2,16,.33,1.67.67,3.33,1,5-3.19,1.2-.49,4.84-5,10l4-1c-6.41,16.96,4.78,38.6,0,55-1.33.67-2.67,1.33-4,2,4.47.92,7.16,26.91,2,36,2.95.6,1.07-1.05,3,2-1.43.18-2.18,12.92-3,15,1.6,1.3.6.9-2,2,4.58,3.53,2.57,2.36,5,9h-4c3.62,8.12,4.47,43.52-1,48,1.33.67,2.67,1.33,4,2-.87.48-.5.14,0,1v3c-1.65,1.13.19,0,0,2-.98,1.92-2.34,3.62-4,5l3,2s1.49,21.43-3,20c2.65,4.53-.19,5.77,2,9,.67-.33,1.33-.67,2-1-1.75,2.4-1.03,1.67-4,3l4,1c-5.09,8.36,1.51,6.61-4,14h4c-2.12,3.4-1.1.15,0,4l-3-1c1.31,6.4,2.17,11.58-1,16,3.51.82,1.46-1.26,3,2-1.68.86-3.37,35.2-1,34-3.14,8.9-7.05,32.47,11,35-.09,3.16-1.75,1.44,1,3,1.34-1.79-.18-1.52,2-1,2.24,1.41,2.51,1.97,4,4,4.29-1.94,1.8-3.71,5,0-2.5,1.19-.98-.64-2,2h4c-.33-1.33-.67-2.67-1-4,1.33.33,2.67.67,4,1-.92,4.14-1.24,3.24,3,3l3,6c.49-2.69-.88-.83,2-3,2.08,4.94,2.78,3.06,7,5-1.39-1.92-.1-.6-2-2,1-.67,2-1.33,3-2v2c2.75,2.47,1.93.88,2,4,3.54-.04,2.51-.34,7,1-.67-1.67-1.33-3.33-2-5,.67.33,1.33.67,2,1,.93,3.66,1.42,3.88,1,7,7.46-2.92,37.85,9.58,48,17,.6-2.95-1.05-1.07,2-3,.67,2,1.33,4,2,6,3.19-2.32,1.43-2.94,5,0,2.47,1.38-.74,2.7,2,2,1.66,1.96,2.31.74,7,5,.4-3.8-1.12-1.24,1-4v3c2.2,1.81,1.92,1.89,3,5-4.33-3.78-2.07-1.27-7-4,1.62,2.24,3.19,3.09,5,5-5.64-1.67-5.85-3.22-9-7,1.34,6.32.63,4.6,6,8-.67.33-1.33.67-2,1-4.89-2.43-5.17-2.66-5,3l-6-3c.67-1,1.33-2,2-3-.67.33-1.33.67-2,1-.67-.33-1.33-.67-2-1,2.78,6.36,5.61,6.34,9,10-2-.33-4-.67-6-1-2.38-2.08.16-.87-3-1-1.53,4.13,1.29,2.4-3,4-.06-7.18-2.24-3.99-3-9l-3,3c2.37.28,1.25-.22,4,1v4h-1c-1.69-4.5-5.47-2.51-4-6-3.03,2.11-2.53,2.5-8,3,3.33-3.86.25.04,1-5-1,1.67-2,3.33-3,5,.33,1,.67,2,1,3-1-.67-2-1.33-3-2,.67,1,1.33,2,2,3,1.33-1,2.67-2,4-3-1.94,4.58.13,5.36-5,9,.33-.67.67-1.33,1-2h-2c.33-.67.67-1.33,1-2-1.33.67-2.67,1.33-4,2,.67-1,1.33-2,2-3-2.49-2.11-.5-2.37,1-6-4.36,2.84-5.52,3.29-6,9-1-.33-2-.67-3-1v-5c-1,2.33-2,4.67-3,7-2.33-1.33-4.67-2.67-7-4v-1c2.33.67,4.67,1.33,7,2,.06-4.47-.18-.09,2-4-3.39.39-2.63-.17-7,1,.3-3.42,1.23-1.49-1-4-.71,8.79-21.18,2.09-22-4l-6,3c-1.27-4.12-7.94-5.09-15-3,1.24-1.77,1.57-1.65,3-3-5.35-.08-3.77.17-8-2,1,2.33,2,4.67,3,7-1.33.67-2.67,1.33-4,2-4.35-2.49-1.97-2.94-6,0v-5c-2.66,2.46-1.53,1.36-2,4-3.33-2.67-6.66-5.34-10-8-.4,3.8,1.12,1.24-1,4-1.36-2.05-1.12-1.61-3-3v3c-1.96-1.79-3.06-4.34-3-7-2.16,2.02-1.87,2.78-2,8-1.67.33-3.33.67-5,1,1.33-2.33,2.67-4.67,4-7-.67.33-1.33.67-2,1-.64,2.19.93,4.02-3,3-.01-3.11.08-1.59-1-5h-1c-.62,5.45.94,4.49-3,6-1.02-3.75-1.02-1.32-5-5-2,1.67-4,3.33-6,5-5.6-4.32-8.26-5.69-13-9-.33,1.67-.67,3.33-1,5-1.33-2.67-2.67-5.33-4-8-.47,4.51-1.77.64-5,1,2.12,2.34.44-.11,1,3-3-1.33-6-2.66-9-4,.39,3.43.6,2.88-3,6,.67-2,1.33-4,2-6-1.33-.33-2.67-.67-4-1,.33,1,.67,2,1,3-3.37-1.82-2.27-.72-5-5-.67,1.33-1.33,2.67-2,4-3.89-2.04-4.68-3.5-9-6,1.16,3.64,1.49.9,0,5-3.06-.09-2.49.33-7,1,.67-1,1.33-2,2-3-3.98,2.32-1.14,4.89-5,4-1.37-.22-.44.3-1-1,.67-.33,1.33-.67,2-1h-2c-.49-2.69.88-.83-2-3,.63,3.97,1.6,4.36-2,7,.66-3.44-.73-1.92,1-5-1.33.67-2.67,1.33-4,2,2.21,1.99,1.61,2.29,2,8h-1c-1.58-4.15-.41-.56-5-3,.33,1.33.67,2.67,1,4-.67-.33-1.33-.67-2-1v-2c-.33-1.33-.67-2.67-1-4h3c.67,1,1.33,2,2,3-1.33-2-2.67-4-4-6-1.89,3-2.01-1.1-5,2,2.69.49.83-.88,3,2-2-.33-4-.67-6-1v1c.4.61,1.57,3.61-2,6-.32-2.52.93-5.08-2-4-1.06-1.97-1.04,1.02-2-1-4.99-.12-5.4-2.7-10-6-2.49,2.87-3.87,3.53-10,3v-1c1-.33,2-.67,3-1v-1c-1,.67-2,1.33-3,2-4.24.99.44,1.49-4,2,0,0-12.9-2.08-13-2,1.89,2.54.93.5-1,3-4.22-6.41-6.91-.9-13-2v-4c-1.33,1.67-2.67,3.33-4,5-.4-3.8,1.12-1.24-1-4-1.67,1.33-3.33,2.67-5,4v-6c-3.78,3.65-8.45,2.2-12,4v-3c-2.77-1.16-.53-.31,0-3-1.67,1.33-3.33,2.67-5,4-.49-2.69.88-.83-2-3-1,2.33-2,4.67-3,7-.67-.33-1.33-.67-2-1,.67-1.67,1.33-3.33,2-5-4.61,1.58-2.67,2.68-6,1,2.96-1.93.02-.25,2-3-2.65,1.76-2.72,2.63-6,4v-1c2.65-1.41.87-.53,0-3-2.75,1.18-2.2,1.66-5,1h2c.33-.67.67-1.33,1-2-10.85,4.28-13.08-.18-22,6,.67-1.67,1.33-3.33,2-5-2.41,1.24-5.22,2.88-6-3h1c1.67.67,3.33,1.33,5,2-2.33-1.33-4.67-2.67-7-4-.67,3.79-1.89,3.38-6,6-2.77-2.38-.08-2.04-4-4-.41,3.14.81,2.72-3,5v-4c-.33.67-.67,1.33-1,2-1.33,1.67-2.67,3.33-4,5,.67-2.33,1.33-4.67,2-7h-1c-1.36,2.05-1.12,1.61-3,3,.33-1.33.67-2.67,1-4-3.25.85-13.7,2.19-12-1-2.33,2-4.66,4-7,6,.67-1,1.33-2,2-3-1.33.67-2.67,1.33-4,2-.46-5.16,2.13-3.03-3-5v8c-1.67.33-3.33.67-5,1-1.33-2-2.67-4-4-6,3.99-1.45.62-.08,3-3-4.18-.35-3.54-.2-7-3-.15,4.57.48,2.58-1,6-.67-.33-1.33-.67-2-1-.91-3.65.04-2.04-2-4,.33,3.33.67,6.67,1,10-.67-.33-1.33-.67-2-1-.78-2.72-.85-7.45-3-6-.33-.67-.67-1.33-1-2,.33,2.33.67,4.67,1,7h-4v-1c.29-3.16,1.37-3-1-6,.33,1,.67,2,1,3-1.85,1.7-.48,1.97-2,5l-2-2c-.02-3.06.96-1.4-1-4-.41,3.9.78,3.4-2,6h-1c.67-2,1.33-4,2-6-.68-.03-3.69.47-2-1l-2,2c.33,1,.67,2,1,3-.67-.33-1.33-.67-2-1-1.33-2.33-2.67-4.67-4-7v5c2,1.67,4,3.33,6,5-1,.33-2,.67-3,1-2.32-5.35-1.57-.96-5-3-.33-4.62-1.68-3.72,0-6-2.79-1.85-.14-.72-4-1v1c1.33,2.33,2.67,4.67,4,7-2.23.15-1.16-1.07-2,1-4.88-1.5-18.11,1.67-21-1-.67-1-1.33-2-2-3,.33-.67.67-1.33,1-2,4.86,1.54,1.97,1.53,5-1-4.59-.37-4.31.91-5-3-2.76,1.98-5.13,7.3-7,10-5.08-2.66-2.29-1.09-8-1-.49-3.12,1.12-.66-1-3-.23,2.29.48,1.53-1,4-5.44-2.33-.13-1.22-6,0-.26-4.93,1.13-2.95-2-6,.26,4.87,2.48,4.79-2,7-1.91-3.79-.43-2.06-3-3-.82,3.47,1.16,1.26-2,3-1.21-2.92-1.4,1.73-3-1-1.95-2.46-.57-.4-1-3-3.2,2.52-2.16,1.57-2,5h-5c1.16-4.18,2.19-5.58-2-9,1.5,3.64,1.69,4.64,1,9-7.73-1.81-9.34,1.45-13-7v-1c1.67.67,3.33,1.33,5,2-1.91-2.73-2.5-2.78-6-4,.54,3.37.09,6.56,2,9-1.33.33-2.67.67-4,1-.33-4.53,1.09-3.28-3-6,1.81,4.66,3.41,2.23,0,6-3.86-1.43-2.54-.63-7-1-.34-2.53.72-2.92-2-5v7c-6.88-.36-4.71,2.1-11,0-.33-2-.67-4-1-6h-2v1c1.51,4.53,2.21,4.33,1,7-4.55-2.62-8.78-1.83-18-3-.24,3.6.48.38-2,3-.54-3.37-.33-3.65-4-6-.07,3.79,2,2-2,4-1.04-4.89-.14-1.55-3-4,.67,2,1.33,4,2,6-2-1.67-4-3.33-6-5-.24,4.47,1.08,2.27-1,5h-1c-1.26-3.88-.22-5.32-3-3,.67,1.67,1.33,3.33,2,5-5.82-1.89-5.82.22-8-3-2.08,2.38-.87-.16-1,3-4.33-1.47-3.41-.97-5-5h-1c-.06,5.61,2.07,3.66-2,6-1.35-2.05-1.12-1.61-3-3v4c-5.57-1.59-4.97-.82-9-5-.26,3.78.01,1.64-1,6h-1c-.93-4.33-1.36-4.7-4-7,1.43,2.42,2.12,5.2,2,8-1.67-1.67-3.33-3.33-5-5,.33,1.67.67,3.33,1,5-3.99-1.45-3.64-1.66-7-1-.67-1.67-1.33-3.33-2-5-.67.33-1.33.67-2,1,1.14,4.18,1.43,2.21,0,6-6.84-1.82-7.76-.21-13-2v4c-2.67-1.33-5.33-2.67-8-4-1.54,4.2.18,2.45-4,4-.14-.95-10.58-1.62-12,2-2.98-2.03-1.2-.71-2-3-.67.33-1.33.67-2,1,.33,1,.67,2,1,3-.67-.33-1.33-.67-2-1-1.15-4.03-1.01-5.97-4-9v8c-.67-.33-1.33-.67-2-1l1-7c-2,1.33-4,2.67-6,4,.52-4.65.44-4.66-1-10-3.11,1.45-3.29,1.76-7,1,.67,1.33,1.33,2.67,2,4,.39-2.63,1.24-1.61,5-3-1.52,4.74-2.23,4.62,0,10-2-1.33-4-2.67-6-4,1.33,2.33,2.67,4.67,4,7-2.88-.84-1.69-.88-3,0-3.94-2.12-1.52-3.48-6-6,.67,1.67,1.33,3.33,2,5-4.22-1.55-3.35-2.41-6-5,.33,2,.67,4,1,6h-1c-2-1.67-4-3.33-6-5v1c2.05,1.36,1.61,1.12,3,3-5.96-.65-9.67-1.62-13,4-4.33-1.96-4.3-2.76-7-6,.33,2,.67,4,1,6-5.33.67-10.67,1.34-16,2,1.34-2.76.63-.29,1-3-4.66,2.62-7.87,4.88-10,3-1-.33-2-.67-3-1-1.54,6.29-11.18,1.2-13,7-8.8-3.95-13.92,4.64-24,0v4l-4-3c.33,1.67.67,3.33,1,5l-6-3c-1.28,4.47-5.78,3.69-14,2v4l-5-3c1.03,3.52,2.2,1.4-1,4-1.6-2.7-.34-1.38-3-3,.33,1.67.67,3.33,1,5-2-1.67-4-3.33-6-5,1.02,3.85,1.97,2.06,0,5-2.83-2.07-1.23-1.49-4-2v3l-5-3c.78,4.43,2.01,1.83,0,5-1.49-2.55-1.48-2.49-4-4-.33,1.33-.67,2.67-1,4-2.04-1.99-.78-1.59-4-3,.67,1.33,1.33,2.67,2,4-6.72-1.25-5.66-.09-11-2v4l-5-3c-.33,1.67-.67,3.33-1,5-1.65-3.61-.27-2.35-4-4,1,1.67,2,3.33,3,5-2.33-1.33-4.67-2.67-7-4l3,6h-3c-1.28-3.01-.63-2.25-3-4,.29,3.16,1.37,3-1,6-1.06-3.21-1.16-3-3-5v6c-1.67-1.33-3.33-2.67-5-4v5c-1.67-1.33-3.33-2.67-5-4,.33,1.33.67,2.67,1,4-5.01-1.69-2.92-3.25-6,0,.67-.33,1.33-.67,2-1-1.8,2.04-.02.71-3,2-1.94-3.04-.33-1.04-3-2,.33,1.67.67,3.33,1,5l-4-3v4c-7.15-3.09-8.73,3.28-16-1,.67,1.33,1.33,2.67,2,4-14.73-.41-65.15,29.34-79,40-1.39-1.37-2.38-5.55-3-2-5.36,4.27-5.16,2.13-6,9h-3c-.67-.33-1.33-.67-2-1l2-3c-5.18,3.72-.87,6.54-9,8v2c-.67-.33-1.33-.67-2-1v1c-4.96-.88-2.74-2.94-6,1,3.79.07,2-2,4,2-1,.33-2,.67-3,1-1.33-1.33-2.67-2.67-4-4-.39,2.88-4.05,4.3-6,1h5l-2-6c-.67.67-1.33,1.33-2,2,2.5,1.19.98-.64,2,2-.67-.33-1.33-.67-2-1-1.96,1.81-3.07,1.36-7,2,1.27-3.28.92-1.2,1-5-1-.33-2-.67-3-1,1,3.72,2.25,1.46-1,5-.54-4.57.68-1.14-4-4,.67,1.67,1.33,3.33,2,5-4.88.6-5.7.79-7,3l-1-3c1.29-1.53.22-.01,0-2-1.87,2.87-1.41,1.59-1,5h-3c-.97-7.53-4.76-7.7-8-15,.67.33,1.33.67,2,1-2.49-4.29-4.84,4.49-8,6,.9-2.19,0-1.05-5-3,.34,1.21-6.29,7.54-8,8-.33-1.33-.67-2.67-1-4-.66,1.76-11.76,8.33-13,8v-1l-1-3c5.37-2.4,11.72-6.82,16-9-1.52-3.06,2.21-6.33,5-10,1.33.67,2.67,1.33,4,2-.69-4.81,2.31-7.33-4-11,2.12,4,2.29,1.66,1,5-3.14-.33-.86-1.33-3,1,.98,3.73,1.92.81,0,4-2.36-2.85-5-2-5-2-2.08,2.38-.87-.16-1,3-1.33-.33-2.67-.67-4-1v-5c1,.67,2,1.33,3,2-.67-1.33-1.33-2.67-2-4,6.48-.17,3.64-1.22,8-4,.76,1.19-.4,1.23,1,1,3.97-3.49,8.33-6.51,13-9-1.92-1.39-.6-.1-2-2,10.41,1.62,28.2-21.45,39-20-.7-4.95-3.04-2.7,1-5,1.33-.67,2.67-1.33,4-2v-6c.33,1.67.67,3.33,1,5,1.33-.67,2.67-1.33,4-2-2.92-1.61-4.1-1.13-3-4,3.67.92,6.56-.53,11-4-.33-1.97-1.3-.48,0-2,1-.33,2-.67,3-1,.33,1.33.67,2.67,1,4h-1v-2c-.67.33-1.33.67-2,1,.67.67,1.33,1.33,2,2,2.86-1.84,5.05-1.76,7-4-2.96-.03-2.03.22-5-1,.33-1.67.67-3.33,1-5h1c1.62,3.59,2.03,2.39,5,5,.63-4.81,7.75-5.36,12-7-1.08-1.69-.7-.13,0-2v-2c3.33.67,6.67,1.34,10,2-1-1.33-2-2.67-3-4,3.33-.33,6.67-.67,10-1-3.14-2.77-2.54.31-4-4l6,3c-1-1.33-2-2.67-3-4,1.67-.33,3.33-.67,5-1,.67,1.33,1.33,2.67,2,4-.04-5.93.03-2.84,4-7-1.9-1.35-2.37-2.51-4-4,.65,5.4-.02,5.8-4,5,.17-3.92.88-.45-2-5-.33,1.67-.67,3.33-1,5h-1l-2-3c-.88,4.36-3.36,1.91-6,9l5-3c-.33,1.33-.67,2.67-1,4h-6c.33-1.33.67-2.67,1-4-2.5-1.19-.98.64-2-2,2.6-.43.55.98,3-1-2.68,1.7-4.12-.57-3,4v6c-.67-.33-1.33-.67-2-1v-7c-4.31,3.49-1.24,4.49-7,5,2.06,2.21,1.38,1.88,5,3v1c-4.5-.25-6.7-2.26-8,1-3.06,2.4-2.75,2.17-2,6h-4c.67-.33,1.33-.67,2-1-.45-5.77.73-4.62,3-8-1.33-.33-2.67-.67-4-1-1.86.73-.38.77-2,0-1,.67-2,1.33-3,2,.33.67.67,1.33,1,2,4.07-.66-.01.51,4,1l-2,3h-3c-1.3-2.94-.59-6.26-3-5v-2c-1.62,2.52-3.15,3.95-4,7-4.61-3.44-1.23.27-7-2v5l-3-3c.03,4.46,1.96,4.01-2,7v-4c-3.1.95-1.23,1.21-5,0,.33,1.33.67,2.67,1,4-3.63-2.61-1.31.26-2-4-4.77,2.99-1.95,3.96-7,1,1.42,3.99,3.4,3.72-1,6-1.33-3.64-1.81-.65-6-4,.42,4.1.33,2.46-1,4-.48,2.56.67.33-1,3-1.87-2.87-1.41-1.59-1-5-.67.33-1.33.67-2,1-1.67,3.33-3.33,6.66-5,10v-3c-2.08-2.38-.87.16-1-3h-4c.33,3.15,1.33.87-1,3l-2-3c1,2.33,2,4.67,3,7-1.33.33-2.67.67-4,1,.88-5.84-.95-4.14,0-9-.67.67-1.33,1.33-2,2-1.67.33-3.33.67-5,1,1,1.33,2,2.67,3,4-7.58.92-6.8,1.67-10,6-.67-.33-1.33-.67-2-1-.38-3.59.52-1.24-3-2,2.88-7.59.27-11.57-4-16,5.43-2.1,4.45-7.95,9-3h-4v1c4.2-.32,3.54-1.33,7,1-1,.67-2,1.33-3,2-1.9-1.3-.09-.32-4,1v1c2.67.67,5.33,1.33,8,2,.28-2.37-.22-1.25,1-4-1.33.67-2.67,1.33-4,2,2.27-3.05,2.83-3.33,5-4-1.33-1.67-2.67-3.33-4-5h3c.27,4.59,1.92,2.17,8,1v-1l-4-3c-.87,2.6.4,3.49-2,2-.67-1.33-1.33-2.67-2-4,3-.33,6-.67,9-1l-2,3c1-.67,2-1.33,3-2-2.57-2.18-4.19-1.66-6-5,3.55-4.37,3.81-1.26,3-6,10.2,1.46,27.46-16.88,38-15l-2-3c4.76.08,10.92-1.32,12-7,2.33.67,4.67,1.33,7,2,3.38-6.58,16.88-10.66,21-9-.4-3.5-.51-2.11,1-5,5.23,1.05,40.48-11.55,47-15,.6-2.95-1.05-1.07,2-3,2.53,2.68,6.07-3.83,11-1-4.63-10.42-2.42-27.25,0-37-2.23.17-1.04.12-2-1-1.28-24.03-2.76-91.97,12-105l-4-2v-1l8-4c12.57,8.44,36.12-13.92,43-19,.44,4-.99,2.1,2,5,.28-2.37-.22-1.25,1-4-2.47-1.13-1.13.5-2-3l4,3c-1.39-1.92-.1-.6-2-2,5.95-3.45,7.58-3.6,10-8,4.16,1.37,3.03-.26,9,1-.64-2.93-1.72-.54,0-3,2.82-4.98,5.95-6.34,10-5,3.11-20.95,5.16-37.66,2-57l3,1c-11.91-18.43,7.62-100.35-3-112-1.28-1.41,2.27-17.83,1-21l3,1c-9.47-21.96,2.6-108.92,8-125l6,1v-4l3,3c-.33-2-.67-4-1-6,12.77-1.26,98.47-81.68,109-93,10.93-11.74,42.34-35.7,51-34,2.75.54,7.32.81,5-1,2.2,1.81,1.92,1.89,3,5-3.67-.06-2.89-1.55-4,4l2,1-9,3c1.39,1.92.1.6,2,2l2,2c2.79-2.8,5.53,1.76,10,0,0,5.52-.27,5.88,2,8,3.63-1.65,3.17,2.67,6,0l3-1c-.75-3.95-2.54-3.19,3-5l-2,3c4.91-.19,25.15,6.74,28,8l-2,3c4.39.41,12.19,8.52,17,7-.33,1.67-.67,3.33-1,5l4-2c-.33,1.33-.67,2.67-1,4,5.28-1.86,5.24,2.06,12,4l-3,3c5.17.41,5.05,3.11,6,1,2.76-1.34.29-.63,3-1,1.09,1.95-.04,1.9,2,1-.33,1.67-.67,3.33-1,5l7-1c-.33,1.67-.67,3.33-1,5,1.21-.61,5.11-2.14,3,0,3.82,2.32,2.26-.04,2,4l4-4c.33,1.67.67,3.33,1,5l2-3c.69,6.98,8.07,8.9,11,8-.33,1.33-.67,2.67-1,4,2.84-1.11,1.45-.86,4-1l-2,3,5-3c.45,6.14,4.51,4.3,3,10l5-4v6c2.88-4.45.07.16,5-2v4l3-3c.76,6.28,7.6,5.72,7,11l4-3c-.33,1.33-.67,2.67-1,4,6.96-3.13,7.95.09,12-4,2.97,2.04-.33,2.85,3,2-1.14-3.83-1.97-1.57,0-5l2,3c.4-4.03.33-3.91,2-6,.32.61,6.15-.03,10-1,.4,3.8-1.12,1.24,1,4,.52-3.31,17.47-10.61,26-3h-2c.33.67.67,1.33,1,2-2.33-.67-4.67-1.33-7-2,2.12,4,2.29,1.66,1,5-3.15-.33-.87-1.33-3,1-1.19,2.5.64.98-2,2-1-5.72-4.49,5.46-8-2l3,1c-.67-1-1.33-2-2-3-4.65,3.12-3.31,3.9-9,2,.67,1.33,1.33,2.67,2,4-3.97.12-2.07-.9-5,1,3.78,2.39,3.85,1.98,2,5-.67-1.33-1.33-2.67-2-4l-4,3c.93-4.74,2.07-4.84-1-8-.28,2.81.53.74-2,2,2.26,4.13,2.45-.14,2,7l-3-2c1.14,4.18,1.43,2.21,0,6l6-3v1c-2.4,1.75-1.67,1.03-3,4,3.46.43,5.86.66,5,5,4.14-.18,12.62,5.61,14,9,1.33-1,2.67-2,4-3-.67,2-1.33,4-2,6,5.02-2.08,2.55,1.44,7-2,.24,4.47-1.08,2.27,1,5,3.08-1.66,3.84,4.2,10,3-.67,1-1.33,2-2,3,4.89.24,10.06,1.02,11,6,1.34-1.43,1.25-1.76,3-3,.42,5.08-.53,2.33,2,6,1.6-.33,9.31,1.14,8,6,3.64-2.26-.7-1.56,4-3v4l3-3c.66,4.97,4.04,6.74,7,7-1.04-2.63-1.56-1.66-1-4,1.67,1,3.33,2,5,3-.67-1-1.33-2-2-3,2.67,1.33,5.34,2.67,8,4-2.33-2.67-4.66-5.33-7-8,2.67,1.67,5.34,3.33,8,5v-4h-5c2.63-3.88,29.99-13.89,35-13,.02-3.06-.96-1.4,1-4l3,4c.46-3.14,1.4-3.79,4-7h11c-.67-1.33-1.33-2.67-2-4,22.71-1.5,63.57-38.68,79-34,.86-3.74,6-5.49,11-8,1.95,2.46.57.4,1,3l6-7c1.33.67,2.67,1.33,4,2v-1c-3.04-.88-.26-1.44,1-3,14.54-1.28,44.1-26.33,56-21l-3-3,5-1v3h1c-.33-1-.67-2-1-3,.33-.67.67-1.33,1-2h1c1.67.67,3.33,1.33,5,2-.67-1.33-1.33-2.67-2-4,5.17-.19,7.11-5.79,14-2,.53-4.37-.32-3.4,4-6,.92,2.93.24,5.3,3,4-.67-1-1.33-2-2-3,.67-.67,1.33-1.33,2-2,2.09.41,8.53-.75,11,0,.6,2.95-1.05,1.07,2,3v-6c1.95,2.91,2.56,2.02,4,6-3.33-.55-1.09-1.06-3,2,4.85-.92,1.46-1.95,5,1-.33-1.33-.67-2.67-1-4,.67-.33,1.33-.67,2-1h-2c.67-.67,1.33-1.33,2-2,3.43,2.52.71,1.52,5,3,3.14-10.61,7.1-14.91,11-21h-4v-1h4c-1.09-13.37,5.43-16.5,11-30h1c.33,1.33.67,2.67,1,4,.65-5.35,1.15-1.46,2-5ZM1004,187.39h2c-1.39,1.92-.1.6-2,2v-2ZM1007,192.39c.67.33,1.33.67,2,1-.67-.33-1.33-.67-2-1ZM1026,201.39c.67.67,1.33,1.33,2,2-1.92-1.39-.6-.1-2-2ZM1024,202.39c.33,1,.67,2,1,3-1.33-.67-2.67-1.33-4-2l3-1ZM481,205.39h0ZM1025,205.39l3,2-3-2ZM479,206.39h0ZM1015,206.39c.67.67,1.33,1.33,2,2-.67-.67-1.33-1.33-2-2ZM481,207.39l2,2-1,1-2-1v-1l1-1ZM1019,207.39l3,2-3-2ZM1023,207.39c.64,3.64.4,3.03,2,5-.67-1.67-1.33-3.33-2-5ZM475,208.39h3v3c-1.9-1.37-1.64-.97-3-3ZM489,208.39l2,3-3,2c.95-5.01-2.24-1.07,1-5ZM995,208.39h0ZM1026,208.39h0ZM479,209.39c.33,1,.67,2,1,3h-1v-3ZM1017,209.39c1.99,3.06-1.01,1.62,3,3l-3-3ZM995,210.39c.33.67.67,1.33,1,2-.33-.67-.67-1.33-1-2ZM482,211.39c.33.67.67,1.33,1,2-.33-.67-.67-1.33-1-2ZM485,211.39c1.54,1.11,2.89,2.46,4,4l-4,1v-5ZM755,212.39h0ZM1017,213.39c-.33,1-.67,2-1,3l3-1c-.33-.67-.67-1.33-1-2h-1ZM490,215.39h0ZM1025,215.39h0ZM489,216.39c1.18,2.82.75,1-1,3,.33-1,.67-2,1-3ZM1022,218.39c.67.33,1.33.67,2,1-.67-.33-1.33-.67-2-1ZM491,219.39h0ZM507,219.39c1.92,1.39.6.1,2,2l-2-2ZM990,221.39c1.92,1.39.6.1,2,2-.67-.67-1.33-1.33-2-2ZM494,222.39h0ZM990,224.39h0ZM909,226.39h0ZM715,227.39h0ZM710,229.39h0ZM877,230.39c2.62,1.77,1.36.06,1,3-.33-1-.67-2-1-3ZM981,230.39c.67,1.33,1.33,2.67,2,4h-1c-.33-1.33-.67-2.67-1-4ZM875,231.39h0ZM901,231.39h0ZM989,232.39c.67.67,1.33,1.33,2,2-.67-.67-1.33-1.33-2-2ZM877,233.39c.33.67.67,1.33,1,2-.33-.67-.67-1.33-1-2ZM970,234.39c.33.67.67,1.33,1,2-.33-.67-.67-1.33-1-2ZM978,234.39c.67.67,1.33,1.33,2,2-1.92-1.39-.6-.1-2-2ZM1024,234.39l5,1v1c-1.67-.67-3.33-1.33-5-2ZM964,238.39c.67.67,1.33,1.33,2,2-.67-.67-1.33-1.33-2-2ZM989,238.39c.67.33,1.33.67,2,1-.67-.33-1.33-.67-2-1ZM781,239.39l3,1c-2.09,6.04-.13.36,0,7h-1c-1.74-2.66-1.92-2.61-5-4-.43,2.6.98.55-1,3-1.93-2.5-4.08-3.34-6-6l10-1ZM753,240.39c1.31,2.72.44,1.92-1,4-.33-1-.67-2-1-3,.67-.33,1.33-.67,2-1ZM755,240.39l8,1-3,3c-3.49-.58-2.93-.35-6,1,.33-1.67.67-3.33,1-5ZM962,240.39c-.33.67-.67,1.33-1,2h2c-.33-.67-.67-1.33-1-2ZM982,240.39l3,2c-1.8-2.04-.02-.71-3-2ZM463,241.39l2,1-2-1ZM749,241.39c2.97,4.39,1.21,3.67-1,6,.33-1,.67-2,1-3v-3ZM767,241.39h2c-1.26,3.02.02,1.2-2,3v-3ZM955,241.39c-.33.67-.67,1.33-1,2,.67-.67,1.33-1.33,2-2h-1ZM967,241.39c-.33.67-.67,1.33-1,2,3.13-1.11,2.77-.05,5-2h-4ZM763,242.39c.33.67.67,1.33,1,2-.33-.67-.67-1.33-1-2ZM1026,242.39h4v1l-4-1ZM464,243.39h0ZM746,243.39h0ZM757,244.39c2.96,1.05.55.86,3,3-4.06-1.24-1.89,1.1-3-3ZM760,244.39h2c-1.75.98-.22.91-2,0ZM764,244.39c-.71.95.16,1.56-2,1,.67-.33,1.33-.67,2-1ZM769,244.39c.33,1.33.67,2.67,1,4-.67-.67-1.33-1.33-2-2,.33-.67.67-1.33,1-2ZM958,244.39h0ZM772,245.39c.33.67.67,1.33,1,2-.33-.67-.67-1.33-1-2ZM948,245.39l3,1-3-1ZM962,245.39c.67.33,1.33.67,2,1-.67-.33-1.33-.67-2-1ZM462,246.39l2,1-2-1ZM678,246.39v5c-.67.33-1.33.67-2,1l-4-1,5-1c.33-2.38-.18-.82,1-4ZM761,246.39c.67.67,1.33,1.33,2,2-.67.33-1.33.67-2,1v-3ZM554,248.39c1.92,1.39.6.1,2,2l-2-2ZM779,248.39c.33.67.67,1.33,1,2-.33-.67-.67-1.33-1-2ZM781,248.39c.33,1,.67,2,1,3h-1v-3ZM751,249.39c.33.67.67,1.33,1,2-.33-.67-.67-1.33-1-2ZM937,249.39v3h2c-.67-1-1.33-2-2-3ZM725,250.39h0ZM719,252.39c.33.67.67,1.33,1,2-.33-.67-.67-1.33-1-2ZM462,254.39c-9.62,9.81-53.62,47.93-60,47,1.84,3.69,2.62.73,1,4-3,5.07-6.47,7.57-11,6,.21,12.75-20.27,15.73-24,24,.14,2.11.51.35-1,2h-5c.58,1.34-2.14,14.71-3,14,1.95,3.64,3.25-.24,2,5l3-2c-1.74-5.17-.56-4.85,1-12l2-1c-.55,9.26-1.26,13.47,1,18,6.6.77,8.4,10.93,5,17,4.2-.05,2.85.4,7,2v1l-6-1c5.44,6.27,5.57,19.73,2,27,5.29-1.1.09,1.02,6,0,.33,3.67.67,7.33,1,11l-5-1c3.18,3.91,5.84,9.71,0,9,5.38,8.84.66,11.83,4,18l-4,1c3,5.26-.77,13.25,3,22-3.8.4-1.24-1.12-4,1,5.08,2.82,2.67,8.25,1,9,.33.67.67,1.33,1,2-1.71,14.73,3.38,57.97-3,67l4,1c-5.76,3.01-.45,1.96-4,7,2.61.97,3.16,7.69-1,9v1c4.88,2.35,3.17,4.65,0,8h4c.48.45-2.81,1.9-4,1,6.02,11.68-1.48,23.53,0,33h3c-2.92,5.77-1.92,26.66-4,26,2.88,5.93,2.92,6.3,0,11l3-1-3,5c3.74.46,2.76,2.99,0,7,3.47.82,1.27-1.16,3,2-2.01,1.49,5.09,29.98,4,33,7.29-1.2,5.86,1.64,12,0,.97-3.37,8.75-7.17,13-13l4,6,2-2c-2.95-.6-1.07,1.05-3-2,3.14-.66-.23-.24,3-3,8.44.03,8.53-4.45,19-4-.11-3-1.95-.72,0-3l4-3,7,4-3-4c4.01-1.37-.79-1.1,3-3l5-3c-.49,3.9-.09,5.23,3,8-.67-3-1.33-6-2-9,7.47-.11,6.14-.02,10-4,4.66,1.81,2.23,3.41,6,0l-3,1c12.74-14.19,4.37-79.2,9-82l-3-7h-7c1.29-4.19.55-3.14,4-5-.33.67-.67,1.33-1,2,3.58-1.47,2.61-2.12,4-6l-3,2c1.46-4.09,1.33-2.67,4-5-4.95-3.11-.52-3.64-6-3-.33-2-.67-4-1-6l4-1c.33.67.67,1.33,1,2v-2c2.62-4.44.92-4.93,5-6-7.3-14.83-1.71-35.2-3-46h3l-4-5c5.56-3.21-1.07-20.87,0-27,2.19-12.57,1.48-69.16-1-74-3.38-6.6.63-38.07,1-38-4.83-10.5-3.69-34.55-4-44,2.6-.42.55.98,3-1-5.81-3.02,1.64-37.09-4-47ZM710,254.39c-.42.93.8.68-1,2,.33-.67.67-1.33,1-2ZM713,254.39c.67.67,1.33,1.33,2,2-1.92-1.39-.6-.1-2-2ZM721,254.39c.33.67.67,1.33,1,2-.33-.67-.67-1.33-1-2ZM704,255.39c-.42.93.8.68-1,2,.33-.67.67-1.33,1-2ZM925,255.39c.67.67,1.33,1.33,2,2-.67-.67-1.33-1.33-2-2ZM921,256.39h0ZM929,256.39h0ZM705,258.39h0ZM711,259.39h0ZM706,260.39c-.42.93.8.68-1,2,.33-.67.67-1.33,1-2ZM703,262.39h0ZM708,262.39h2l-3,2c.33-.67.67-1.33,1-2ZM698,263.39c5.31,1.9,2.29.37,5,4-4.64,1.38-.6.79-4,3v-2c-2.06-.93-1.03-2.85-1-5ZM705,263.39c.67.67,1.33,1.33,2,2-.33.33-.67.67-1,1-.67-.33-1.33-.67-2-1v-1c.33-.33.67-.67,1-1ZM692,265.39c1.67,1,3.33,2,5,3-.67.67-1.33,1.33-2,2-.33-.67-.67-1.33-1-2-2.04-1.8-.71-.02-2-3ZM895,268.39h0ZM439,271.39h0ZM695,271.39c1.92,1.39.6.1,2,2-.67-.67-1.33-1.33-2-2ZM892,271.39c.67.33,1.33.67,2,1-.67-.33-1.33-.67-2-1ZM884,272.39c.67.33,1.33.67,2,1-.67-.33-1.33-.67-2-1ZM694,273.39c.67,1,1.33,2,2,3-.33.33-.67.67-1,1-.33-.33-.67-.67-1-1l-3,1,3-4ZM635,275.39l5,1v1h-1l-4-2ZM979,276.39c-4.12,2.92-5.71,2.62-5,8-2.29.97-1.76,1.55-4,4,5.76,2.08.69,10.14,0,16,.33-.67.67-1.33,1-2l3-5c-.67,2.67-1.33,5.33-2,8h1c1.94-3.04.33-1.04,3-2-.67,1-1.33,2-2,3l-5,1c2.4,3.55,4.68,8.42,6,8,1.02,2.78,2.99.47,5-2-4.24-.31-3.96.06-6-2,4.95-.82,2.98.67,5-3-4.66.9-4.73,4.32-8-1,3.86.05,5.86,1.2,8-3-.02-2.14-.59-.5,2-3-4.7-3.18-.88-18.66,2-23-1.33-.67-2.67-1.33-4-2ZM592,277.39c1.93,2.96.25.02,3,2l-3-2ZM599,277.39c.33.67.67,1.33,1,2-.33-.67-.67-1.33-1-2ZM682,278.39c3.87.75,4,.62,6,3l-7-1c.49,2.18.96.92-1,2v-3c.67-.33,1.33-.67,2-1ZM691,279.39h0ZM685,282.39h0ZM680,283.39h0ZM969,283.39c.67.67,1.33,1.33,2,2-.67-.67-1.33-1.33-2-2ZM981,286.39c.67.33,1.33.67,2,1-.67-.33-1.33-.67-2-1ZM658,287.39c2.73,2.89,2.27,2.81,5,1l-5-1ZM677,287.39h0ZM417,288.39h0ZM642,288.39l2,1-2-1ZM1022,288.39h0ZM690,290.39c.33.67.67,1.33,1,2-.33-.67-.67-1.33-1-2ZM647,291.39h0ZM626,292.39c.33.67.67,1.33,1,2-.33-.67-.67-1.33-1-2ZM663,294.39h0ZM653,295.39c2.23,1.2,2.49,1.09,4,3l-6-1c.67-.67,1.33-1.33,2-2ZM680,295.39c.33.67.67,1.33,1,2-.33-.67-.67-1.33-1-2ZM675,296.39h0ZM623,297.39l3,1-3-1ZM631,297.39l2,1-2-1ZM634,300.39c-.33.67-.67,1.33-1,2h3c-1.39-1.92-.1-.6-2-2ZM645,300.39c2.97,1.05.55.86,3,3-4.06-1.24-1.89,1.1-3-3ZM826,301.39h0ZM1019,301.39h0ZM636,303.39h0ZM916,307.39v2c.98-1.74.91-.22,0-2ZM910,308.39c.33.67.67,1.33,1,2-.42-.93.8-.68-1-2ZM542,310.39c-6.27,3.03-20.39-2.03-25,4-2.04,3.87-2.42,10.39-1,15l27-3c.81-7.13,3.43-12.69-1-16ZM969,314.39c.67.67,1.33,1.33,2,2-.33-.67-.67-1.33-1-2h-1ZM795,315.39c.67.67,1.33,1.33,2,2-.67-.67-1.33-1.33-2-2ZM657,316.39c.33.67.67,1.33,1,2h-2c.33-.67.67-1.33,1-2ZM973,317.39c.33.67.67,1.33,1,2h-2c1.33.67,2.67,1.33,4,2,.67-.67,1.33-1.33,2-2-1.67-.67-3.33-1.33-5-2ZM380,318.39l3,2-3-2ZM789,318.39l-3,1c1.33.67,2.67,1.33,4,2v-3h-1ZM327,321.39v3l-5-1c1.92,3.84,3.6,1.53,0,5-1.68-1.08-.13-.7-2,0,2.69,3.51,1.53,1.6-2,4l3,2c-.33-.67-.67-1.33-1-2,4.42-1.47,7.87-7.62,7-11ZM665,321.39c.33.67.67,1.33,1,2-.33-.67-.67-1.33-1-2ZM974,321.39c-.67,1.33-1.33,2.67-2,4,2.9.53,4.9-.79,3,2-2.47,1.38-2.44-.11-2,2,.67,1,1.33,2,2,3h-5c3.3,2.83,3.24.14,5,4-1.87.68-2.29,3.25-5,8h3c-2.45,2.53-1.22.54-2,3,4.02,2.01,1.18,1.11,3,4-3.39-.9-1.33-.85-4-1,2.13,2.48,1.78,3.04,4,4l-3,2c-1.39-1.92-.1-.6-2-2,1.33,2,2.67,4,4,6l-4-1c9.08,16.03-4.53,28.71,3,39-4.89,1.04-1.55.14-4,3,1.87,2.51,1.16,8.39,2,12l-4,1c3.84,3.5,4.01,4.91,1,10h-2c5.93,7.35-1.05,8.96,5,16-1.33,1-2.67,2-4,3,3.02,1.26,1.2-.02,3,2-3.37.51-1.3-1.05-4,2,4.55,3.91,2.51.55,0,6,3.33-.22,2.3-.93,5,1l-6,3,6,2c-3.89,1-3,.39-5,3l4-1c-1.67,2-3.33,4-5,6,3.51.82,1.46-1.26,3,2-1.33.67-2.67,1.33-4,2,2.99,1.04,4.08,2.3,1,3-.33,1-.67,2-1,3,3.37-1.48,3.07-2.81,6,0-3.22.37-3.21.01-6,3,1.67.33,3.33.67,5,1-2.34,2.23-3.33,1.69-5,5,1.67-.33,3.33-.67,5-1-1.52,4.87-2.01,6.02-5,9l4,1c-3.79,4.69-2.55,4.51-4,9h5c-.67,1-1.33,2-2,3-3.12.49-.66-1.12-3,1l4,1c-4.42,5.37-.41,2.55-4,8l4,1c-3.39,3.9-3.55,1.52-3,5l3-1c-2.06,2.21-1.38,1.88-5,3,.33.67.67,1.33,1,2l3-1c-1.33,1.67-2.67,3.33-4,5h5c-1.67,1.67-3.33,3.33-5,5,4,.44,2.1-.99,5,2-3.56-.04-2.09-.91-5,1,3.11,4.67,1.21,3.5,5,8-5.2,2.61-1.12,2.66-5,8l4-1c-2.26,2.69-3.42,3.03-4,5,1.33.67,2.67,1.33,4,2-4.47.18-.98-1.11-4,2,2.61,1.78.55,1.77-1,3,2.46,3.3,2.66,1.67,1,4,2.06,3.78,1.93.66,3,5-1.33,1-2.67,2-4,3,3.52,1.16,1.04,5.63,4,4-2,3.97-1.71,1.08-4,4l3,8c-1.33.67-2.67,1.33-4,2,2.23.21,3.2-.77,2,1-.51,2.4-.21.91-2,4,3.87,1.7.87,27.73,1,36-3.12.49-.66-1.12-3,1,8.86,4.34-2.54,19.58,2,27,2.6.42.55-.98,3,1-6.69,1.55-2.35,7.9-6,17,3.98-.39.63-2.15,4,0,1.92,1.39.6.1,2,2-1.67.33-3.33.67-5,1,3.79,1.91,2.06.43,3,3l-4,1c3.18,7.44,2,16,2,16-1.94,3.04-.33,1.04-3,2,3.11,7.83,3.57,9.18-1,15,1.67.33,3.33.67,5,1v1c-3.63.64-3.03.4-5,2h5c-2.58,4.04-7.77,12.15-1,15,1.34,2.85,1.99.89,5,0-2.43,2.89-7.03,2.79-10,5,4.32.32.81-.72,4,3-4.1.48-4.3,1.46-4,3-.67.33-1.33.67-2,1v1c3.94-1.58,4.45-.48,4-3,2.65,1.99,1.96,1.13,3,5-1.33.67-2.67,1.33-4,2-.33-.67-.67-1.33-1-2v4l3-2c.17,3.73-.1,2.12,1,6-3.27-1.75-4.08-2.69-8-2,.67.67,1.33,1.33,2,2h4c-2.78,3.32-2.23.93-1,6h-5c3.02,8.75-7.04,36.91-5,40,.28,2.37-.22,1.25,1,4,2.33.67,4.67,1.33,7,2,.49-2.69-.88-.83,2-3-.33,1.33-.67,2.67-1,4,8.25-2.7,12.56-1.09,16,1,.67-1,1.33-2,2-3-1.95-6.81.69-65.28,3-68-1.82-5.8-3.04-19.01-2-26l-4,1c1.48-1.79,3.37-2.45,5-4-1.67-.33-3.33-.67-5-1,10.93-25.1.6-47.47,7-81-.67-8.67-1.34-17.33-2-26,4.21-20.58,1.33-58.81,0-84-.88-16.67,3.15-27.82,0-39-2.29-8.12,6.21-26.35,0-37,2.27-6.05,5.04-63.72,1-71,4.25-13.46,3.92-28.36,2-45h4c-2.62-2-2.31-.61-4-4,3.53-2.64.37-4.12,3-9l-6-1ZM658,323.39l3,2-3-2ZM873,323.39c-41.22,22.87-78.59,40.55-115,54,1.94,3.11,2.48,1.38,2,5l3-3c1.79,8.54,18.65,11.88,21,13-22.55,36.69-7.61,63.86-15,107-9.38,54.73-4.37,107.32-6,156-5.2-3.48-4.46-1.05-7-4v-4c-2.33,2.82.96,1.48-3,3-.9-5.04-21.9-26.56-29-24l3-5c-.33-.67-.67-1.33-1-2-79.11.66-129.59,49.57-180,82v3l2,1,30-2,34-24c31.47-19.86,69.38-45.4,108-53,4.98,6.75,43.21,39.82,48,40-.95,3.12-3.16,3,0,5,.44-2.55.39-1.76,2-5,2.98,2.03,1.2.71,2,3l6-7c1.84.72,5.6,2.8,4-1,3.01,1.28,2.25.63,4,3-.67-.33-1.33-.67-2-1,.67,1.33,1.33,2.67,2,4,.67-2,1.33-4,2-6v7c2.98-1.68,2.41-1.67,5-2,.43,2.6-.98.55,1,3,.65-1.79.36-2.58,4-4l-3-2c-.33,1-.67,2-1,3v-6h1c3.33,1.67,6.66,3.33,10,5-.33-1.33-.67-2.67-1-4l6,2v1l-4-1c.67,1,1.33,2,2,3,8.36-.83,17.8,6.26,21,8-1.33-1.67-2.67-3.33-4-5,6.51,1.45,1.64,2.26,8,5-.67-.33-1.33-.67-2-1,1.36-2.05,1.12-1.61,3-3,.67,1.33,1.33,2.67,2,4,1.31-5.15,6.84-4.86,11-3-.96-9.93,6.09-24.79,5-35-2.08-2.38-.87.16-1-3-.4-8.35,1.08-16.75,2-24,2.6-.42.55.98,3-1-3.99-3.8-2-6.6,0-10-.68-.03-3.69.47-2-1-.69-4.42-.26-16.32,4-21l-4-1c2.11-5.71,1.77-3.14,1-10h4c-8.16-12.88,4.2-30.09-1-44l3,1c-3.89-7.69-.03-18.43-1-31l4,1c-1.18-2.25-2.65-3.24-3-4-.19-1.51,1.86-32.82,4-34-2.29-2.79-2.09-1.4-2-3,1.6-1.57-.13-.32,2-1-2.38-2.08.16-.87-3-1,2.12-8.45,2.42-6.47,1-16,1.33.67,2.67,1.33,4,2l-3-2c1.04-6.6,4.92-37.33,2-34,1.42-4,.41-1.79,3-3-3.19-6.54-1.64-2.88-3-11l4,1c-1.35-1.9-2.51-2.37-4-4,.64-2.93,1.72-.54,0-3,2.16-1.82,2.15.05,2-2,1.24-7.61,3.12-12.11,0-19l5-2c-4.34-1.56-4.14-.29-4-4,2.67-.46,1.51.61,4-2-2.77-7.78.14-16.74,3-26l-3-1ZM327,326.39c-.33.67-.67,1.33-1,2l2-2h-1ZM975,330.39h0ZM693,339.39h2c-1.75.98-.22.91-2,0ZM356,340.39l3,3-3-3ZM340,342.39l2,1-2-1ZM352,342.39l3,2-3-2ZM688,342.39c.67.33,1.33.67,2,1-.67-.33-1.33-.67-2-1ZM1016,342.39v2c.98-1.74.91-.22,0-2ZM610,345.39c-6.26,4.46-21.34.88-29,3,.33,4.33.67,8.67,1,13h1l29-2,2-1c-.33-3.33-.67-6.67-1-10-1.6-2.7-.34-1.38-3-3ZM357,346.39v2c.98-1.74.91-.22,0-2ZM362,346.39l2,2c-1.92-1.39-.6-.1-2-2ZM367,346.39h0ZM333,348.39h0ZM372,349.39h0ZM710,349.39c1.92,1.39.6.1,2,2-.67-.67-1.33-1.33-2-2ZM707,351.39c-.33.67-.67,1.33-1,2,.33-.67.67-1.33,1-2ZM336,352.39c-.33.67-.67,1.33-1,2l3-2h-2ZM373,352.39c.33.67.67,1.33,1,2-.33-.67-.67-1.33-1-2ZM333,353.39l2,3-2-3ZM339,353.39l-3,3c1.26,3.02-.02,1.2,2,3-1.12-4.97.47-1.47,1-5,2.14,1.41,2.38,2.28,4,4v-3l-4-2ZM351,353.39l2,1-2-1ZM369,353.39h0ZM368,356.39h2l-2,2v-2ZM372,356.39c-.71.95.16,1.56-2,1l2-1ZM1014,356.39v2c.98-1.74.91-.22,0-2ZM332,357.39l3,1-3-1ZM339,357.39l2,1-2-1ZM346,357.39l2,2c-.33-.67-.67-1.33-1-2h-1ZM361,357.39l2,2c-.33-.67-.67-1.33-1-2h-1ZM333,359.39l3,2-3-2ZM338,360.39c1.8,2.04.02.71,3,2l-3-2ZM368,361.39l3,2-3-2ZM335,362.39l2,1-2-1ZM542,362.39c-6.18,3.27-17.01.02-25,2-.33,6.33-.67,12.67-1,19l2,1c8.34-2.93,17.31-3.62,26-2v-3c1.54-4.68,1.71-13.65-1-17h-1ZM1016,363.39c-.33.67-.67,1.33-1,2,.67-.67,1.33-1.33,2-2h-1ZM333,364.39c-6.34,13.76-12.05,54.22-7,73h1l26-3h5c.25-14.45,7.38-60.1,1-69-8.51,3.77-23.63.74-26-1ZM371,366.39l2,1-2-1ZM377,366.39l2,2c-1.92-1.39-.6-.1-2-2ZM369,368.39c-.33.67-.67,1.33-1,2h3l-2-2ZM1018,370.39c0,3.76,2.18,2.62-2,5v-1c2.07-1.96,1.04-.38,2-4ZM375,371.39h0ZM371,373.39v2c.98-1.74.91-.22,0-2ZM1015,379.39h0ZM371,380.39c2.52,1.63.17.98,3,0h-3ZM968,382.39c.67.33,1.33.67,2,1-.67-.33-1.33-.67-2-1ZM610,385.39c-7.23,5.37-20.89-.61-30,4v5c.33.67.67,1.33,1,2l30-1,2-1c.15-5.69.34-6.77-3-9ZM967,386.39h0ZM374,387.39h0ZM382,388.39c.33.67.67,1.33,1,2-.33-.67-.67-1.33-1-2ZM374,390.39c.78,3.96,2.27,1.32,0,5l3-1v-3l-3-1ZM615,391.39c.33,1.33.67,2.67,1,4h1c-.67-1.33-1.33-2.67-2-4ZM869,391.39c.67.33,1.33.67,2,1-.67-.33-1.33-.67-2-1ZM670,393.39c-6.14,4.36-21.3.87-29,3,.33,8,.67,16,1,24h1l31-3c-.33-7-.67-14-1-21-1.6-2.7-.34-1.38-3-3ZM778,393.39c.67.33,1.33.67,2,1-.67-.33-1.33-.67-2-1ZM379,395.39h0ZM510,395.39h0ZM1012,398.39c.67.33,1.33.67,2,1-.67-.33-1.33-.67-2-1ZM380,399.39h3l-2,2c-.33-.67-.67-1.33-1-2ZM380,402.39h4l-4,2v-2ZM373,406.39l2,1-2-1ZM530,406.39l-11,2c-.33,6.56-.75,15.44,2,19l26-3c.33-6.37.65-14.58-2-18-4.97,2.14-8.95,2.39-15,0ZM378,408.39v6l3-2-2,1c-.12-3.97.9-2.07-1-5ZM377,419.39l2,1-2-1ZM726,421.39c-6.86,4.12-20.85.71-29,3v18h1l31-3v-15c-1.6-2.7-.34-1.38-3-3ZM602,425.39c-6.14,4.36-21.3.87-29,3,.33,4.67.67,9.33,1,14h1c9.33-2.17,22.81-2.54,30-2v-12c-1.6-2.7-.34-1.38-3-3ZM668,445.39c-6.84,4.1-20.98.64-29,3v1c.26,5.56.24,17.38,3,21,6.88-2.09,27.24-1.23,30-5,3.32-6.61.71-17.54-4-20ZM550,447.39c-7.82,4.45-22.38-2.09-29,4v18h1l31-3c.39-7.19,1.28-16.1-3-19ZM379,449.39h0ZM375,459.39l2,2-2-2ZM765,462.39c.67.33,1.33.67,2,1-.67-.33-1.33-.67-2-1ZM598,467.39c-6.67,4.81-19.46.32-29,3v15h1l31-3c.38-6.62.91-12.39-3-15ZM737,488.39c.33-5.49,1.17-11.04-2-15-8.03,2.82-24.96-1.87-30,5v12c12.15-1.34,20.88-2.2,32-2ZM1014,481.39c.67.67,1.33,1.33,2,2-.67-.67-1.33-1.33-2-2ZM356,483.39c-7.87,5.21-23.03-2.91-29,5-1,23.33-2,46.67-3,70h1c9.98-2.41,22.59-3.58,29-2l2-1c.25-14.77,7.15-63.41,1-72h-1ZM964,488.39c.33.67.67,1.33,1,2,.33-.67.67-1.33,1-2h-2ZM139,492.39h0ZM377,494.39h0ZM141,497.39h0ZM552,497.39c-7.49,5.04-22.16-2.26-29,4v31h1l31-3c.36-8.95,2.41-28.22-3-32ZM145,498.39h2c-1.74.98-.22.91-2,0ZM151,498.39h0ZM965,498.39c.67.67,1.33,1.33,2,2-.33.33-.67.67-1,1-.67-.33-1.33-.67-2-1v-1c.33-.33.67-.67,1-1ZM764,499.39c.67.33,1.33.67,2,1-.67-.33-1.33-.67-2-1ZM152,500.39h0ZM150,501.39c1.92,1.39.6.1,2,2l-2-2ZM670,501.39c-6.86,4.12-20.85.71-29,3,.33,8.33.67,16.67,1,25,11.2-1.35,22.88-3.71,30-2,.67-.33,1.33-.67,2-1-.33-7.33-.67-14.67-1-22-1.6-2.7-.34-1.38-3-3ZM154,503.39l1,2-1-2ZM379,507.39h0ZM164,509.39c.33.67.67,1.33,1,2-.33-.67-.67-1.33-1-2ZM606,513.39c-6.14,4.36-21.3.87-29,3v52l32-3c.43-13.43,5-46.76-3-52ZM170,515.39c-.22,1.47.41,1-1,3,.33-1,.67-2,1-3ZM375,515.39l2,2-2-2ZM763,521.39c.67.33,1.33.67,2,1-.67-.33-1.33-.67-2-1ZM232,524.39h2c-1.39,1.92-.1.6-2,2-1.84,2.15-1.15.36-4,2,1.39,2.66,1.84.63,0,3-3.46-5.21-19.78,5.27-26,6,.67-1.33,1.33-2.67,2-4l28-9ZM238,524.39h3v2l-3,1-3-1,3-2ZM244,524.39l3,1v1c-3.02-1.26-1.2.02-3-2ZM247,524.39c1.92,1.39.6.1,2,2l-2-2ZM250,524.39c.33.67.67,1.33,1,2-.33-.67-.67-1.33-1-2ZM234,526.39c3.34,1.99,1.62,1.66,4,4h-4v-4ZM241,529.39h0ZM244,529.39h0ZM247,529.39c.33.67.67,1.33,1,2-.33-.67-.67-1.33-1-2ZM761,536.39c.67.33,1.33.67,2,1-.67-.33-1.33-.67-2-1ZM199,538.39h3v1l-7,4c.67-1.33,1.33-2.67,2-4l2-1ZM764,538.39h0ZM463,543.39v4h1c-.33-1.33-.67-2.67-1-4ZM459,548.39h0ZM149,550.39h4v1l-4-1ZM154,550.39h0ZM136,551.39h2l-2,2-7,2v-3c3.65.22,3.85.73,7-1ZM140,551.39l6,1-6-1ZM125,552.39l3,2h-2c-6.74,5.03-15.94,4.8-23,7v-3c5.84-.03,18.74-2.65,22-6ZM138,552.39h0ZM141,553.39h0ZM153,553.39c-.71.91-.15,2.49-4,1l4-1ZM461,553.39c.33,1,.67,2,1,3h-1v-3ZM736,553.39c-5.91,3.7-20.64,1.83-29,2l-3,13c.67.33,1.33.67,2,1,7.1-2.52,20.69-4.38,29-2,.67-.33,1.33-.67,2-1,.67-3.67,1.34-7.33,2-11l-3-2ZM144,554.39h3l-2,2-1-2ZM169,554.39h0ZM132,555.39c3.64.64,3.03.4,5,2h-6l1-2ZM139,555.39h0ZM117,558.39l6,2-8,1,2-1v-2ZM761,558.39c.67.33,1.33.67,2,1-.67-.33-1.33-.67-2-1ZM180,559.39l6,2v1l-6-3ZM96,561.39l3,2-5,1,2-3ZM99,561.39c1.92,1.39.6.1,2,2l-2-2ZM110,561.39h0ZM113,561.39h0ZM187,561.39c14.28,22.06,59.04,30.88,66,52-24.14-9.33-47.67-30.55-67-41l-32,11c-25.47,15.26-81.86,44.94-88,73l-2-2c1.82-4.32.23-.84,1-8,8.39-3.04,20.36-25.23,32-34,27.25-20.45,57.65-36.33,90-47v-4ZM457,561.39c2.65,1.41.87.53,0,3v-3ZM453,562.39h2c-1.74.98-.22.91-2,0ZM90,563.39l4,2h-4c-2.11.14-.35.51-2-1l2-1ZM85,565.39c2.62,1.78,1.36.06,1,3l-2-1,1-2ZM546,565.39c-7.49,5.04-22.22-2.32-29,4v61h1c12.71-2.98,20.97-1.76,30-2,1.15-5.51,4.08-56.35-1-63h-1ZM762,566.39c-.33.67-.67,1.33-1,2,.67-.67,1.33-1.33,2-2h-1ZM670,567.39c-7.49,5.04-22.22-2.32-29,4-2.94,5.76-2.92,15.01,0,18,7.02-2.13,27.18-1.14,30-5,2.59-4.7,3.3-14.22-1-17ZM762,576.39c.67.33,1.33.67,2,1-.67-.33-1.33-.67-2-1ZM1015,580.39c.33.67.67,1.33,1,2-.33-.67-.67-1.33-1-2ZM188,581.39h3l-16,25c-4.34,5.72-2.84,14.38-7,21-.33,5-.67,10-1,15-20.08,47.91,5.67,142.87,19,172-4.69-1.25-3.34.75-6-1l2-3c-2.39-.01-4.03,1.46-3-2-10.26-8.4-11.27-36.85-16-55-12.83-49.27-11.64-139.5,25-172ZM716,584.39c.67.67,1.33,1.33,2,2-.67-.67-1.33-1.33-2-2ZM714,586.39v5h1c-.33-1.67-.67-3.33-1-5ZM717,589.39c-.33.67-.67,1.33-1,2h3c-.67-.67-1.33-1.33-2-2ZM715,593.39l3,2-3-2ZM294,601.39l2,2c-1.39-1.92-.1-.6-2-2ZM759,605.39h0ZM295,612.39c-.33.67-.67,1.33-1,2l2-2h-1ZM296,614.39h0ZM255,615.39h0ZM965,618.39h0ZM971,618.39c.33.67.67,1.33,1,2-.33-.67-.67-1.33-1-2ZM564,622.39l2,1-2-1ZM599,627.39l2,2-2-2ZM597,630.39l2,1-2-1ZM563,633.39c-.33.67-.67,1.33-1,2l2-2h-1ZM710,633.39c-.33.67-.67,1.33-1,2,.67-.67,1.33-1.33,2-2h-1ZM853,646.39c.67,1.33,1.33,2.67,2,4-.67-1.33-1.33-2.67-2-4ZM276,647.39h3l-2,2c-.33-.67-.67-1.33-1-2ZM285,649.39l2,1-2-1ZM971,650.39c.33,1,.67,2,1,3-3.65-.91-2.04.04-4-2,3.12-.49.66,1.12,3-1ZM966,651.39c.33.67.67,1.33,1,2-.33-.67-.67-1.33-1-2ZM62,652.39h0ZM961,652.39h0ZM62,654.39l2,2c-1.92-1.39-.6-.1-2-2ZM459,655.39l2,2-2-2ZM463,655.39c.64,3.64.4,3.03,2,5l-2-5ZM465,655.39h0ZM456,656.39c-.33.67-.67,1.33-1,2l2-2h-1ZM970,656.39h0ZM271,657.39h0ZM450,657.39l3,2-3-2ZM458,658.39h0ZM800,658.39h0ZM266,659.39l4,3-4-3ZM454,660.39v2c.98-1.74.91-.22,0-2ZM961,660.39h0ZM971,660.39c-.71.95.16,1.56-2,1,.67-.33,1.33-.67,2-1ZM457,661.39l-2,3c3.39-.9,1.33-.85,4-1l-2-2ZM775,661.39c.33.67.67,1.33,1,2-.33-.67-.67-1.33-1-2ZM271,662.39c-.33.67-.67,1.33-1,2l2-2h-1ZM431,662.39h0ZM437,662.39c.33.67.67,1.33,1,2-.33-.67-.67-1.33-1-2ZM444,662.39c1.39,1.92.1.6,2,2l-2-2ZM772,664.39h0ZM452,665.39l2,1-2-1ZM965,665.39h3v1c-3.12-.54-.9,1.36-3-1ZM969,665.39h3v1c-3.12-.54-.9,1.36-3-1ZM1012,665.39c.67.33,1.33.67,2,1-.67-.33-1.33-.67-2-1ZM425,666.39c2.73,1.89.53.26,2,4l-2-1v-3ZM434,666.39c1.26,1.56.43,1.23,2,0h-2ZM437,666.39v3l2-1-2-2ZM447,666.39c-.33.67-.67,1.33-1,2l3-2h-2ZM834,667.39c.67.67,1.33,1.33,2,2-1.92-1.39-.6-.1-2-2ZM423,668.39c.33.67.67,1.33,1,2-.33-.67-.67-1.33-1-2ZM439,669.39c-.33.67-.67,1.33-1,2l2-2h-1ZM430,670.39c.78,3.96,2.27,1.32,0,5l3-3-2-1-1-1ZM967,671.39c.33.67.67,1.33,1,2-.33-.67-.67-1.33-1-2ZM407,673.39h3l-2,2c-.33-.67-.67-1.33-1-2ZM764,673.39h0ZM772,673.39c.67.67,1.33,1.33,2,2-.67-.67-1.33-1.33-2-2ZM842,673.39h0ZM971,673.39c.33.67.67,1.33,1,2h-2c.33-.67.67-1.33,1-2ZM277,674.39c-3.86,8.89-10.65,86.76-4,96-.4-16.55-1.85-87.88,8-94l-4-2ZM965,674.39h2c-1.75.98-.22.91-2,0ZM220,675.39c1.92,1.39.6.1,2,2l-2-2ZM418,675.39l2,2-2-2ZM412,676.39l3,3c-1.37-1.9-.97-1.64-3-3ZM228,677.39h0ZM232,678.39c-.33.67-.67,1.33-1,2,1.49-1.67,1.59.16,1-2ZM956,678.39c.67.33,1.33.67,2,1-.67-.33-1.33-.67-2-1ZM962,678.39c-.42.93.8.68-1,2,.33-.67.67-1.33,1-2ZM397,679.39h0ZM403,679.39l2,2c-1.39-1.92-.1-.6-2-2ZM393,681.39h0ZM223,682.39c-.33.67-.67,1.33-1,2l2-2h-1ZM392,682.39c.33.67.67,1.33,1,2h-2c.33-.67.67-1.33,1-2ZM210,683.39l2,1-2-1ZM375,683.39l2,2c-.33-.67-.67-1.33-1-2h-1ZM378,683.39l2,1-2-1ZM655,683.39c.67.67,1.33,1.33,2,2-.67-.67-1.33-1.33-2-2ZM658,683.39c.67.33,1.33.67,2,1-.67-.33-1.33-.67-2-1ZM970,683.39c1.92,1.39.6.1,2,2-.67-.67-1.33-1.33-2-2ZM653,686.39c.67.33,1.33.67,2,1-.67-.33-1.33-.67-2-1ZM963,688.39h0ZM227,689.39c-.33.67-.67,1.33-1,2l2-2h-1ZM963,691.39h0ZM964,695.39c-.42.93.8.68-1,2,.33-.67.67-1.33,1-2ZM969,697.39c.67.33,1.33.67,2,1l-3,2c.33-1,.67-2,1-3ZM203,698.39l2,2c-1.92-1.39-.6-.1-2-2ZM959,701.39h0ZM969,702.39h3c-.33.67-.67,1.33-1,2h-4c.67-.67,1.33-1.33,2-2ZM201,706.39h0ZM419,779.39l-6,48h6c2.17-5.65,19.08-4.15,22-3-1.11-2.84-.86-1.45-1-4-5.17.41-5.05,3.11-6,1l-3-1v-1c8-.31,9.74-2.79,17-8,1-8.33,2-16.67,3-25l92-41v37l33-3c-1.19-15.35,4.43-69.23,1-73-7.91,2.45-25.14-1.9-30,5-1.33,9-2.67,18-4,27-55.14-.87-74.32,37.46-124,41ZM970,706.39h0ZM966,707.39c3.02,1.26,1.2-.02,3,2l-3-2ZM202,708.39c.33,1,.67,2,1,3h-1v-3ZM1012,708.39c.67.67,1.33,1.33,2,2-.67-.67-1.33-1.33-2-2ZM958,709.39c.67,1.33,1.33,2.67,2,4h-1c-.33-1.33-.67-2.67-1-4ZM961,710.39h2c-1.75.98-.22.91-2,0ZM968,711.39c.33.67.67,1.33,1,2-.33-.67-.67-1.33-1-2ZM1013,711.39h0ZM962,712.39h0ZM961,716.39h4v1l-4-1ZM198,718.39c-.71.95.16,1.56-2,1l2-1ZM970,719.39h0ZM959,720.39c-.42.93.8.68-1,2,.33-.67.67-1.33,1-2ZM961,720.39h2c-1.39,1.92-.1.6-2,2v-2ZM197,721.39h0ZM965,721.39h3c-.67.33-1.33.67-2,1v2c-.33-1-.67-2-1-3ZM956,728.39c-.33.67-.67,1.33-1,2h2c-.33-.67-.67-1.33-1-2ZM968,729.39c3.83,1.32,2.08,0,4,3-2.82-1.84-2.68-.6-4-3ZM965,730.39l3,2h-3v-2ZM676,734.39c.67.33,1.33.67,2,1-.67-.33-1.33-.67-2-1ZM958,734.39c.33.67.67,1.33,1,2h-2c.33-.67.67-1.33,1-2ZM967,734.39c.67,1,1.33,2,2,3-3.06-1.91-2.52.33-2-3ZM959,738.39l4,1v3h-1c-2.33-2.49-.94-1.14-6-1,.33-.67.67-1.33,1-2,.67-.33,1.33-.67,2-1ZM970,738.39c.33.67.67,1.33,1,2-.33-.67-.67-1.33-1-2ZM658,739.39c.67.33,1.33.67,2,1-.67-.33-1.33-.67-2-1ZM252,740.39c-4.65,3.94-9.25,6.03-12,12h1l18-12h-7ZM964,740.39c.67.67,1.33,1.33,2,2-1.92-1.39-.6-.1-2-2ZM237,744.39l3,35h1c.28-9.92.68-28.86-4-35ZM966,744.39h3v1c-3.16.01-1.42.13-3-1ZM1011,745.39c-.33.67-.67,1.33-1,2,.67-.67,1.33-1.33,2-2h-1ZM963,746.39c.33.67.67,1.33,1,2-.33-.67-.67-1.33-1-2ZM678,748.39h0ZM290,749.39l2,2c-.33-.67-.67-1.33-1-2h-1ZM444,749.39l3,1-3-1ZM964,749.39c.67.67,1.33,1.33,2,2-.67.33-1.33.67-2,1v-3ZM435,752.39l2,1-2-1ZM425,753.39h0ZM439,753.39l2,2-2-2ZM442,753.39l2,2-2-2ZM965,753.39c1.92,1.39.6.1,2,2-.67-.67-1.33-1.33-2-2ZM447,754.39l2,1-2-1ZM968,757.39h0ZM425,760.39l2,1-2-1ZM960,762.39h0ZM965,762.39h4v3c-1.67-.33-3.33-.67-5-1,.33-.67.67-1.33,1-2ZM951,763.39h0ZM961,764.39c2.85,2.58,1.57,1.29,0,4v-4ZM958,766.39c.67.67,1.33,1.33,2,2-1.92-1.39-.6-.1-2-2ZM950,767.39c.67,1,1.33,2,2,3-.67-1-1.33-2-2-3ZM965,767.39c1.92,1.39.6.1,2,2-.67-.67-1.33-1.33-2-2ZM962,768.39h2c-1.75.98-.22.91-2,0ZM966,771.39h2c-1.75.98-.22.91-2,0ZM953,772.39h0ZM956,772.39c-.42.93.8.68-1,2,.33-.67.67-1.33,1-2ZM961,772.39h4v1l-4-1ZM953,774.39l3,2-3-2ZM961,776.39c.67.67,1.33,1.33,2,2-1.92-1.39-.6-.1-2-2ZM965,777.39h0ZM953,779.39h0ZM950,783.39c.67,1,1.33,2,2,3-2.04-1.8-.71-.02-2-3ZM268,786.39c-12.25,9.76-26.96,18.17-35,32,4.33-2.05,38.23-27.99,42-32h-7ZM953,786.39h0ZM965,786.39h0ZM1014,790.39c.33.67.67,1.33,1,2h-2c.33-.67.67-1.33,1-2ZM263,792.39h0ZM922,792.39c.67.33,1.33.67,2,1-.67-.33-1.33-.67-2-1ZM920,795.39c.33,1.67.67,3.33,1,5-2.95.6-1.07-1.05-3,2,4.66-1.24,3.08.83,6,0-2.57-5.11-.76-3.7-4-7ZM911,801.39c.67.33,1.33.67,2,1-.67-.33-1.33-.67-2-1ZM921,804.39v3c.33-1,.67-2,1-3h-1ZM942,804.39l3,1-3-1ZM178,805.39l2,2c-1.39-1.92-.1-.6-2-2ZM200,809.39l2,2c-1.39-1.92-.1-.6-2-2ZM1055,812.39c.33.67.67,1.33,1,2-.33-.67-.67-1.33-1-2ZM182,815.39h2c-1.39,1.92-.1.6-2,2v-2ZM434,815.39c1.92,1.39.6.1,2,2l-2-2ZM442,817.39v2c.98-1.74.91-.22,0-2ZM183,818.39h2c-.33,1-.67,2-1,3-.33-1-.67-2-1-3ZM954,819.39c.67,1,1.33,2,2,3-.67-1-1.33-2-2-3ZM443,822.39c-.33.67-.67,1.33-1,2l2-2h-1ZM451,822.39h0ZM409,823.39h0ZM383,825.39c-.33,1.33-.67,2.67-1,4,1.53-2.29,1.83-1.21,1-4ZM415,825.39h0ZM422,825.39h0ZM426,825.39c-.33,1-.67,2-1,3,.33-1,.67-2,1-3ZM402,826.39h0ZM378,827.39c1,.67,2,1.33,3,2-1-.67-2-1.33-3-2ZM390,827.39c1.65,3.61,1.49,4.12,5,6l-5-6ZM399,828.39c2.19,2.28-.11,1.56,3,1-1-.33-2-.67-3-1ZM360,829.39h0ZM377,830.39c-.33.67-.67,1.33-1,2h2c-.33-.67-.67-1.33-1-2ZM383,830.39l-2,3c2.05-1.36,1.61-1.12,3-3h-1ZM388,830.39c1.39,1.92.1.6,2,2-.67-.67-1.33-1.33-2-2ZM379,832.39c-.33,1.33-.67,2.67-1,4,1.53-2.29,1.83-1.21,1-4ZM177,833.39h0ZM371,833.39c.67.33,1.33.67,2,1-.67-.33-1.33-.67-2-1ZM1019,833.39h0ZM323,834.39c-.33.67-.67,1.33-1,2,.67-.67,1.33-1.33,2-2h-1ZM367,834.39c-.33.67-.67,1.33-1,2,.67-.67,1.33-1.33,2-2h-1ZM1022,834.39c1.37,1.9.97,1.64,3,3-1.37-1.9-.97-1.64-3-3ZM1027,834.39c.67.33,1.33.67,2,1-.67-.33-1.33-.67-2-1ZM351,836.39c-.33,1-.67,2-1,3l2-3h-1ZM163,837.39c.33.67.67,1.33,1,2-.33-.67-.67-1.33-1-2ZM1027,837.39c1,.33,2,.67,3,1-1-.33-2-.67-3-1ZM1031,837.39c.67.33,1.33.67,2,1-.67-.33-1.33-.67-2-1ZM1046,837.39c1.33.33,2.67.67,4,1v1c-1.33-.67-2.67-1.33-4-2ZM1037,839.39l2,2-2-2ZM1050,839.39c.33.67.67,1.33,1,2-.33-.67-.67-1.33-1-2ZM1055,839.39c.33.67.67,1.33,1,2-.33-.67-.67-1.33-1-2ZM1042,840.39c.67,1,1.33,2,2,3-.67-1-1.33-2-2-3ZM1058,840.39h0ZM322,841.39v3c.67-.33,1.33-.67,2-1-.67-.67-1.33-1.33-2-2ZM328,841.39c-.33.67-.67,1.33-1,2,.67-.67,1.33-1.33,2-2h-1ZM1052,841.39c1.18,2.82.75,1-1,3,.33-1,.67-2,1-3ZM1062,841.39c.33.67.67,1.33,1,2-.33-.67-.67-1.33-1-2ZM306,843.39c.67.67,1.33,1.33,2,2-.67-.67-1.33-1.33-2-2ZM1061,843.39c.67,1.33,1.33,2.67,2,4-.67-.33-1.33-.67-2-1v-3ZM141,845.39h2c-1.74.98-.22.91-2,0ZM1074,846.39c.67,1.67,1.33,3.33,2,5-.67-.33-1.33-.67-2-1v-4ZM134,847.39c.33.67.67,1.33,1,2-.33-.67-.67-1.33-1-2ZM1069,847.39h0ZM136,848.39c.33.67.67,1.33,1,2-.33-.67-.67-1.33-1-2ZM122,851.39l1,3h-1v-3ZM151,851.39c.67.67,1.33,1.33,2,2-.67-.67-1.33-1.33-2-2ZM263,851.39c.67.67,1.33,1.33,2,2-.67-.67-1.33-1.33-2-2ZM266,851.39c.67.33,1.33.67,2,1-.67-.33-1.33-.67-2-1ZM711,851.39l2,2-2-2ZM767,851.39l2,2-2-2ZM1082,851.39h0ZM165,852.39h0ZM1092,853.39c.33.67.67,1.33,1,2-.33-.67-.67-1.33-1-2ZM149,854.39c.67.33,1.33.67,2,1-.67-.33-1.33-.67-2-1ZM765,854.39c.67.33,1.33.67,2,1-.67-.33-1.33-.67-2-1ZM120,855.39h3c-1.33.67-2.67,1.33-4,2,.33-.67.67-1.33,1-2ZM114,856.39h3v1c-3.12-.54-.9,1.37-3-1ZM154,856.39c-.33.67-.67,1.33-1,2h2c-.33-.67-.67-1.33-1-2ZM107,857.39c.33.67.67,1.33,1,2-.33-.67-.67-1.33-1-2ZM239,857.39c.67.33,1.33.67,2,1-.67-.33-1.33-.67-2-1ZM619,857.39c-.33.67-.67,1.33-1,2,.67-.67,1.33-1.33,2-2h-1ZM675,857.39c-.33.67-.67,1.33-1,2l2-2h-1ZM149,858.39c-2.46,1.95-.4.57-3,1,1.41.54,5.07-.43,3-1ZM105,859.39l1,3h-1v-3ZM594,859.39c-.33,1-.67,2-1,3,1.37-2.15,1.82-.54,1-3ZM649,859.39c.67.33,1.33.67,2,1-.67-.33-1.33-.67-2-1ZM761,859.39c.67.33,1.33.67,2,1-.67-.33-1.33-.67-2-1ZM230,860.39h0ZM598,860.39v3c.33-1,.67-2,1-3h-1ZM606,860.39c.67.33,1.33.67,2,1-.67-.33-1.33-.67-2-1ZM622,860.39h0ZM662,860.39c.67.33,1.33.67,2,1-.67-.33-1.33-.67-2-1ZM678,860.39h0ZM556,861.39c1,.33,2,.67,3,1-1-.33-2-.67-3-1ZM570,861.39c-.67.33-1.33.67-2,1,1.33.33,2.67.67,4,1-.67-.67-1.33-1.33-2-2ZM577,861.39c2.52,1.63.17.99,3,0h-3ZM602,861.39c.67.33,1.33.67,2,1-.67-.33-1.33-.67-2-1ZM612,861.39c1,.33,2,.67,3,1-1-.33-2-.67-3-1ZM626,861.39c.67.67,1.33,1.33,2,2-.67-.67-1.33-1.33-2-2ZM668,861.39c-.33.67-.67,1.33-1,2,1.33-.67,2.67-1.33,4-2h-3ZM672,861.39h0ZM689,861.39v3c2.05-1.36,1.61-1.12,3-3h-3ZM724,861.39c-.33.67-.67,1.33-1,2,1.33-.67,2.67-1.33,4-2h-3ZM738,861.39l2,2-2-2ZM850,861.39l2,2-2-2ZM892,861.39c1,.33,2,.67,3,1-1-.33-2-.67-3-1ZM574,862.39c.67.67,1.33,1.33,2,2-1.39-1.92-.1-.6-2-2ZM653,862.39c.67.33,1.33.67,2,1-.67-.33-1.33-.67-2-1ZM695,862.39l2,2-2-2ZM102,863.39h0ZM564,863.39c.67.33,1.33.67,2,1-.67-.33-1.33-.67-2-1ZM648,863.39c.67,1.33,1.33,2.67,2,4,.33-.33.67-.67,1-1l-3-3ZM676,863.39c.67.33,1.33.67,2,1-.67-.33-1.33-.67-2-1ZM732,863.39c.67.33,1.33.67,2,1-.67-.33-1.33-.67-2-1ZM111,864.39c.67.33,1.33.67,2,1-.67-.33-1.33-.67-2-1ZM122,864.39c-.33.67-.67,1.33-1,2,.67-.67,1.33-1.33,2-2h-1ZM491,864.39c.67.33,1.33.67,2,1-.67-.33-1.33-.67-2-1ZM541,864.39c.67.67,1.33,1.33,2,2-1.39-1.92-.1-.6-2-2ZM547,864.39c-.33.67-.67,1.33-1,2,6.78-.72,4.14.68,7-2h-6ZM560,864.39c1,.67,2,1.33,3,2-1.8-2.04-.02-.71-3-2ZM570,864.39c-.33.67-.67,1.33-1,2,.67-.67,1.33-1.33,2-2h-1ZM625,864.39l2,3v-3h-2ZM643,864.39c.67.33,1.33.67,2,1-.67-.33-1.33-.67-2-1ZM653,864.39l2,2c-1.39-1.92-.1-.6-2-2ZM671,864.39c.33,1,.67,2,1,3,1-.33,2-.67,3-1-.33-.67-.67-1.33-1-2h-3ZM765,864.39l2,2c-1.39-1.92-.1-.6-2-2ZM794,864.39c.43,2.6-.98.55,1,3v-3h-1ZM827,864.39c.67.33,1.33.67,2,1-.67-.33-1.33-.67-2-1ZM850,864.39c-.33.67-.67,1.33-1,2l2-2h-1ZM883,864.39c1.33.67,2.67,1.33,4,2-1.33-.67-2.67-1.33-4-2ZM939,864.39c.67.33,1.33.67,2,1-.67-.33-1.33-.67-2-1ZM536,865.39c1,.67,2,1.33,3,2-1-.67-2-1.33-3-2ZM576,865.39c-.33.67-.67,1.33-1,2,.67-.67,1.33-1.33,2-2h-1ZM592,865.39c1,1.67,2,3.33,3,5-.33-.67-.67-1.33-1-2-.6-2.95,1.05-1.07-2-3ZM630,865.39c2.52,1.63.17.99,3,0h-3ZM716,865.39l2,2h-3c.33-.67.67-1.33,1-2ZM722,865.39c.41,3.37,1.56,3.32,0,5,1,.33,2,.67,3,1v-6h-3ZM816,865.39c1,.67,2,1.33,3,2-1-.67-2-1.33-3-2ZM872,865.39c1,.67,2,1.33,3,2-1-.67-2-1.33-3-2ZM1097,865.39h0ZM201,866.39c.67.33,1.33.67,2,1-.67-.33-1.33-.67-2-1ZM744,866.39v4c-.33-.67-.67-1.33-1-2,.33-.67.67-1.33,1-2ZM881,866.39c-.33.67-.67,1.33-1,2h3l-2-2ZM917,866.39h0ZM929,866.39c.67.33,1.33.67,2,1-.67-.33-1.33-.67-2-1ZM205,867.39c.33,1,.67,2,1,3h1c-1.26-3.02.02-1.2-2-3ZM209,867.39c.67.33,1.33.67,2,1-.67-.33-1.33-.67-2-1ZM524,867.39v2c.98-1.75.91-.22,0-2ZM661,867.39l2,2-2-2ZM821,867.39l2,2c-.33-.67-.67-1.33-1-2h-1ZM825,867.39c.67.33,1.33.67,2,1-.67-.33-1.33-.67-2-1ZM877,867.39l2,2-2-2ZM885,867.39c1.39,1.92.1.6,2,2l-2-2ZM890,867.39l2,2-2-2ZM908,867.39c-.67,1.67-1.33,3.33-2,5h4c-.67-1.67-1.33-3.33-2-5ZM201,868.39c-2.27,2.62-5.69.49-4,3h-2c2.96,2.73,2.22,1.06,3,4,2-1.33,4-2.67,6-4l-2-3h-1ZM511,868.39c-.33.67-.67,1.33-1,2,.33-.67.67-1.33,1-2ZM519,868.39c-.33.67-.67,1.33-1,2,1,.33,2,.67,3,1l-2-3ZM555,868.39c.67,1.33,1.33,2.67,2,4h1c-1-1.33-2-2.67-3-4ZM569,868.39c.67,1.33,1.33,2.67,2,4,.33-.33.67-.67,1-1v-3h-3ZM579,868.39l2,3c-1.26-3.02.02-1.2-2-3ZM584,868.39v3c.33-1,.67-2,1-3h-1ZM608,868.39v3c.33-1,.67-2,1-3h-1ZM626,868.39c-.33.67-.67,1.33-1,2,1.49-1.67,1.59.16,1-2ZM655,868.39h3c-.33,1-.67,2-1,3-.67-1-1.33-2-2-3ZM711,868.39h0ZM767,868.39h0ZM911,868.39c-.33.67-.67,1.33-1,2,1,.33,2,.67,3,1-.67-1-1.33-2-2-3ZM506,869.39h0ZM560,869.39c1.35,3.4.61,2.07,3,4v-3c-1-.33-2-.67-3-1ZM565,869.39c1.94,3.04.33,1.04,3,2,.33.67.67,1.33,1,2-1.61-3.13-.91-2.35-4-4ZM612,869.39v2c.98-1.75.91-.22,0-2ZM738,869.39h2c-1.75.98-.22.91-2,0ZM826,869.39h0ZM898,869.39h0ZM936,869.39h0ZM201,870.39c3.04.88.26,1.44-1,3,.33-1,.67-2,1-3ZM477,870.39c.67.33,1.33.67,2,1-.67-.33-1.33-.67-2-1ZM492,870.39c-.87,2.6.4,3.49-2,2,1.93,3.03.2,1.62,4,3-.67-1.67-1.33-3.33-2-5ZM515,870.39c-.33.67-.67,1.33-1,2,1.79-1.34,1.52.18,1-2ZM533,870.39c.33,1.67.67,3.33,1,5h1v-5h-2ZM713,870.39l2,2c-1,.33-2,.67-3,1,.33-1,.67-2,1-3ZM761,870.39h0ZM869,870.39c.67.33,1.33.67,2,1-.67-.33-1.33-.67-2-1ZM886,870.39v3c.33-1,.67-2,1-3h-1ZM903,870.39c.67,1,1.33,2,2,3-.67-1-1.33-2-2-3ZM925,870.39c.67.33,1.33.67,2,1-.67-.33-1.33-.67-2-1ZM80,871.39c.33,1.67.67,3.33,1,5-.67-.33-1.33-.67-2-1v-1l1-3ZM88,871.39c.33.67.67,1.33,1,2-.33-.67-.67-1.33-1-2ZM122,871.39c.67.33,1.33.67,2,1-.67-.33-1.33-.67-2-1ZM456,871.39h0ZM458,871.39c.67.33,1.33.67,2,1-.67-.33-1.33-.67-2-1ZM494,871.39h0ZM640,871.39c.33.67.67,1.33,1,2-.33-.67-.67-1.33-1-2ZM648,871.39c.33.67.67,1.33,1,2-.33-.67-.67-1.33-1-2ZM704,871.39c.33.67.67,1.33,1,2-.33-.67-.67-1.33-1-2ZM732,871.39c-.42.93.8.68-1,2,.33-.67.67-1.33,1-2ZM760,871.39c.33.67.67,1.33,1,2-.33-.67-.67-1.33-1-2ZM766,871.39h0ZM770,871.39c1.92,1.39.6.1,2,2l-2-2ZM780,871.39c1.92,1.39.6.1,2,2l-2-2ZM848,871.39c2.43,2.13-.1.59,4,1v-1h-4ZM962,871.39c.67.33,1.33.67,2,1-.67-.33-1.33-.67-2-1ZM184,872.39c1.28,3.01.63,2.25,3,4-1-1.33-2-2.67-3-4ZM189,872.39h0ZM481,872.39c-2.78,2.34-6.4,3.42-10,3,4.33,5.59-.34,1.99,5,5-1.02-3.85-1.97-2.06,0-5,3.77,3.28.44,4.18,4,3,.1-3.07,3.51-5.01,1-6ZM499,872.39c-.33,1-.67,2-1,3,1.37-2.15,1.82-.54,1-3ZM520,872.39c-.33.67-.67,1.33-1,2,.67-.67,1.33-1.33,2-2h-1ZM699,872.39h0ZM741,872.39c.33,1,.67,2,1,3h-1v-3ZM754,872.39h3l-2,2c-.33-.67-.67-1.33-1-2ZM795,872.39c.33.67.67,1.33,1,2-.33-.67-.67-1.33-1-2ZM891,872.39c-.33,1.33-.67,2.67-1,4h1c.33-1,.67-2,1-3l-1-1ZM894,872.39c-.33.67-.67,1.33-1,2,1.33.33,2.67.67,4,1l-3-3ZM968,872.39c-.33.67-.67,1.33-1,2,1.33.67,2.67,1.33,4,2-1-1.33-2-2.67-3-4ZM1097,872.39h0ZM99,873.39c.67.33,1.33.67,2,1-.67-.33-1.33-.67-2-1ZM106,873.39v2c.98-1.75.91-.22,0-2ZM442,873.39c-.33.33-.67.67-1,1,.67.67,1.33,1.33,2,2,.33-1,.67-2,1-3h-2ZM445,873.39c.67.33,1.33.67,2,1-.67-.33-1.33-.67-2-1ZM485,873.39c2.18,3.22.46,4.38,4,7-.72-4.33-2.04-2.67,0-5-1.33-.67-2.67-1.33-4-2ZM736,873.39c.33.67.67,1.33,1,2-.33-.67-.67-1.33-1-2ZM745,873.39c1.92,1.39.6.1,2,2l-2-2ZM1051,873.39c.67.33,1.33.67,2,1-.67-.33-1.33-.67-2-1ZM1107,873.39c.67.33,1.33.67,2,1-.67-.33-1.33-.67-2-1ZM1114,873.39v2c.98-1.75.91-.22,0-2ZM71,874.39h2l-1,3-1-3ZM74,874.39h2l-1,3-1-3ZM96,874.39c.67.33,1.33.67,2,1-.67-.33-1.33-.67-2-1ZM194,874.39c-.33.67-.67,1.33-1,2,1.33-.67,2.67-1.33,4-2h-3ZM465,874.39c.67.67,1.33,1.33,2,2-.33-.67-.67-1.33-1-2h-1ZM515,874.39c-.33.33-.67.67-1,1,1,.67,2,1.33,3,2l-2-3ZM779,874.39c.33.67.67,1.33,1,2-.33-.67-.67-1.33-1-2ZM798,874.39h3l-3,3v-3ZM802,874.39h2c-1.26,3.02.02,1.2-2,3v-3ZM884,874.39c-.71,1.24-2.76,5.92-6,2,.67.33,1.33.67,2,1,.44-2.83.65-1.07,4-3ZM1104,874.39c.67.33,1.33.67,2,1-.67-.33-1.33-.67-2-1ZM70,875.39c.33.67.67,1.33,1,2-.33-.67-.67-1.33-1-2ZM94,875.39c.67.67,1.33,1.33,2,2-.67-.67-1.33-1.33-2-2ZM177,875.39c2.5,2.14,1.74,1.55,4,2-.39,3.98-2.15.63,0,4,.33-1,.67-2,1-3l-2-3h-3ZM191,875.39h0ZM417,875.39c.67.33,1.33.67,2,1-.67-.33-1.33-.67-2-1ZM459,875.39c.6,2.6.05,3.5,2,6,.33-1,.67-2,1-3l-3-3ZM481,875.39c.67,1.33,1.33,2.67,2,4h1c-1.31-4.47.66-2.01-3-4ZM768,875.39h0ZM783,875.39h0ZM788,875.39h0ZM923,875.39h0ZM935,875.39h5l-2,2c-1-.67-2-1.33-3-2ZM951,875.39h0ZM65,876.39c1.92,1.39.6.1,2,2-.67-.67-1.33-1.33-2-2ZM99,876.39c1.56,2.81,1.47,2.34,4,4v-4c-1.86.73-.38.77-2,0h-2ZM156,876.39c-.33.67-.67,1.33-1,2,.67-.67,1.33-1.33,2-2h-1ZM158,876.39h0ZM421,876.39c.67.33,1.33.67,2,1-.67-.33-1.33-.67-2-1ZM427,876.39c1.39,1.92.1.6,2,2-.67-.67-1.33-1.33-2-2ZM463,876.39v7h1v-3c.67.33,1.33.67,2,1-1.06-3.65-.81-2.94-3-5ZM468,876.39v4c1-.33,2-.67,3-1l-2-3h-1ZM778,876.39c.33,1,.67,2,1,3h-1v-3ZM806,876.39c.33.67.67,1.33,1,2-.33-.67-.67-1.33-1-2ZM850,876.39c1.31,2.72.44,1.92-1,4,.33-1.33.67-2.67,1-4ZM865,876.39c2.12,2.34.44-.11,1,3-.67-.33-1.33-.67-2-1v-1l1-1ZM895,876.39c.67.33,1.33.67,2,1-.67-.33-1.33-.67-2-1ZM921,876.39c2.12,2.34.44-.11,1,3-.67-.33-1.33-.67-2-1v-1l1-1ZM930,876.39c-.42.93.8.68-1,2,.33-.67.67-1.33,1-2ZM934,876.39c.33.67.67,1.33,1,2-.33-.67-.67-1.33-1-2ZM961,876.39h2c-.67,1.33-1.33,2.67-2,4-.33-.67-.67-1.33-1-2,.33-.67.67-1.33,1-2ZM996,876.39c.23,2.29-.48,1.53,1,4-.33-1.33-.67-2.67-1-4ZM1107,876.39c1.56,2.81,1.47,2.34,4,4,.28-2.37-.22-1.25,1-4-2.82,1.02-1.57.71-3,0h-2ZM1124,876.39c-1.8,2.04-.02.71-3,2,1.67,1,3.33,2,5,3-.64-3.63-.4-3.03-2-5ZM91,877.39h0ZM173,877.39v2c-.67-.33-1.33-.67-2-1-.33.67-.67,1.33-1,2,4.5,1.39,3.6.52,5,5h1c.91-3.65-.04-2.04,2-4-2.01-3.06-.99-2.59-5-4ZM453,877.39c1.3,2.12,1.23,1.45,2,5,.67-.67,1.33-1.33,2-2-1.91-2.42-.64-1.62-4-3ZM869,877.39h0ZM874,877.39c.33.67.67,1.33,1,2-.33-.67-.67-1.33-1-2ZM925,877.39h0ZM951,877.39h0ZM65,878.39c.33.67.67,1.33,1,2-.33-.67-.67-1.33-1-2ZM70,878.39h0ZM74,878.39h0ZM82,878.39c2.52,1.63.17.99,3,0h-3ZM94,878.39c-.33.67-.67,1.33-1,2,1.33-.67,2.67-1.33,4-2h-3ZM107,878.39c-.33.67-.67,1.33-1,2,.67-.67,1.33-1.33,2-2h-1ZM174,878.39c.67.67,1.33,1.33,2,2-1.92-1.39-.6-.1-2-2ZM420,878.39c-.33.67-.67,1.33-1,2h2c-.33-.67-.67-1.33-1-2ZM430,878.39c1,.33,2,.67,3,1-1-.33-2-.67-3-1ZM449,878.39c1,1.67,2,3.33,3,5v-5h-3ZM854,878.39c2.65,1.41.87.53,0,3v-3ZM902,878.39l2,2c-1.92-1.39-.6-.1-2-2ZM914,878.39l6,3c-3.04,1.94-1.04.33-2,3-3.46-2.31-2.72-3.47-4-6ZM980,878.39c-.33.67-.67,1.33-1,2h2c-.33-.67-.67-1.33-1-2ZM1102,878.39c1,.33,2,.67,3,1-1-.33-2-.67-3-1ZM1115,878.39c-.33.67-.67,1.33-1,2l2-2h-1ZM1138,878.39h0ZM185,879.39h0ZM929,879.39c.33,1,.67,2,1,3h-1v-3ZM977,879.39h0ZM1019,879.39c.67,1,1.33,2,2,3-.67-1-1.33-2-2-3ZM1023,879.39v3l2,2c-.67-1.67-1.33-3.33-2-5ZM1112,879.39c-1.79,6.77-4.34,3.94-3,7,2.5-2.15,4.05-4.07,3-7ZM56,880.39h2c-1.26,3.02.02,1.2-2,3v-3ZM66,880.39c.33.67.67,1.33,1,2-.33-.67-.67-1.33-1-2ZM883,880.39h0ZM893,880.39c.33.67.67,1.33,1,2h-2c.33-.67.67-1.33,1-2ZM923,880.39h3v3c-1-.33-2-.67-3-1v-2ZM952,880.39h0ZM970,880.39h0ZM1016,880.39c-.33.67-.67,1.33-1,2l2-2h-1ZM1138,880.39h0ZM78,881.39c2.15,4.24,2.44,1.73,1,6,3.96-.78,1.32-2.27,5,0-2.51-4.08-1.72-3.96-6-6ZM103,881.39v3c-1.67-.33-3.33-.67-5-1,.33.67.67,1.33,1,2,.67.33,1.33.67,2,1,2.32-2.3,2.95-1.8,2-5ZM170,881.39c1,.67,2,1.33,3,2-1-.67-2-1.33-3-2ZM1114,881.39h0ZM1122,881.39c1,.67,2,1.33,3,2-1-.67-2-1.33-3-2ZM1140,881.39c2.96,1.93.02.25,2,3-2.04-1.8-.71-.02-2-3ZM88,882.39c.67.67,1.33,1.33,2,2-.67-.67-1.33-1.33-2-2ZM150,882.39c.67.67,1.33,1.33,2,2-1.39-1.92-.1-.6-2-2ZM178,882.39c-.33.67-.67,1.33-1,2h2c-.33-.67-.67-1.33-1-2ZM407,882.39l2,3-2-3ZM439,882.39h3v4h-4c.67-.67,1.33-1.33,2-2-.33-.67-.67-1.33-1-2ZM930,882.39c.33,1,.67,2,1,3h-1v-3ZM1087,882.39c.67.33,1.33.67,2,1-.67-.33-1.33-.67-2-1ZM160,883.39l3,3c-3.79-1.91-2.05-.43-3-3ZM948,883.39h0ZM1062,883.39l2,2-2-2ZM379,884.39c1,.67,2,1.33,3,2-1-.67-2-1.33-3-2ZM1028,884.39c.67.33,1.33.67,2,1-.67-.33-1.33-.67-2-1ZM1051,884.39c1,.67,2,1.33,3,2-1-.67-2-1.33-3-2ZM1138,884.39c1.33.33,2.67.67,4,1l-3,3h-1v-4ZM1147,884.39h0ZM59,885.39h0ZM138,885.39c1,1.67,2,3.33,3,5-1-1.67-2-3.33-3-5ZM1011,885.39h0ZM1015,885.39c.33.67.67,1.33,1,2-.33-.67-.67-1.33-1-2ZM1088,885.39c-.67.33-1.33.67-2,1,0,0,4.16-.42,2-1ZM1133,885.39c.33.67.67,1.33,1,2-.33-.67-.67-1.33-1-2ZM73,886.39c-.33.67-.67,1.33-1,2,1.33.33,2.67.67,4,1-1-.33-2-.67-3-1v-2ZM87,886.39c.67.33,1.33.67,2,1-.67-.33-1.33-.67-2-1ZM97,886.39c-.33.67-.67,1.33-1,2,.67-.67,1.33-1.33,2-2h-1ZM103,886.39c-.33.67-.67,1.33-1,2,.67-.67,1.33-1.33,2-2h-1ZM157,886.39c.33.67.67,1.33,1,2-.33-.67-.67-1.33-1-2ZM383,886.39c.67.67,1.33,1.33,2,2-.67-.67-1.33-1.33-2-2ZM1006,886.39c.33.67.67,1.33,1,2-.33-.67-.67-1.33-1-2ZM1034,886.39c1.33.33,2.67.67,4,1v1h-2c-1.31,3.72-1.02,3.16-4,5v-3c2.07-1.96,1.04-.37,2-4ZM1060,886.39c1.39,1.92.1.6,2,2l-2-2ZM1081,886.39c-.33,1-.67,2-1,3,.67-1,1.33-2,2-3h-1ZM1091,886.39c.67,1,1.33,2,2,3-.67-1-1.33-2-2-3ZM1095,886.39v3c.67-1,1.33-2,2-3h-2ZM1105,886.39c-.33.67-.67,1.33-1,2h2c-.33-.67-.67-1.33-1-2ZM1131,886.39c.33.67.67,1.33,1,2-.33-.67-.67-1.33-1-2ZM54,887.39l1,3h-1v-3ZM92,887.39c.42,2.6-.98.55,1,3v-3h-1ZM425,887.39c.67.67,1.33,1.33,2,2-1.92-1.39-.6-.1-2-2ZM439,887.39h0ZM430,888.39h0ZM1038,888.39c1.63,2.52.99.17,0,3h-1c.33-1,.67-2,1-3ZM1040,888.39h0ZM1089,888.39c-.33,1.33-.67,2.67-1,4,1.52-2.29,1.83-1.21,1-4ZM1127,888.39h4v2c-3.08-.3-6.05.95-4-2ZM1147,888.39c.33.67.67,1.33,1,2-.33-.67-.67-1.33-1-2ZM67,889.39c-1,.33-2,.67-3,1v1c3.54-.68,2.24-.78,3-2ZM135,889.39c1,.33,2,.67,3,1-1-.33-2-.67-3-1ZM421,889.39h0ZM1048,889.39h2c-1.39,1.92-.1.6-2,2v-2ZM1055,889.39l2,2c-1.92-1.39-.6-.1-2-2ZM1068,889.39l2,2c-1.39-1.92-.1-.6-2-2ZM1133,889.39h3c-1.84,2.76-.82,1.19-2,5h-1v-5ZM1137,889.39h3v1c-3.12-.54-.9,1.37-3-1ZM1149,889.39h0ZM60,890.39c1.31,2.72.44,1.92-1,4v-2h-2c1-.67,2-1.33,3-2ZM70,890.39c-.33,1.67-.67,3.33-1,5,5.34-.49,6.92-.31,9-2-3.37.27-2.95-.2-7,1,.3-3.42,1.23-1.49-1-4ZM99,890.39c-.33.67-.67,1.33-1,2,.67-.67,1.33-1.33,2-2h-1ZM1041,890.39c1.67.33,3.33.67,5,1h-4c-.03.68.47,3.69-1,2v-3ZM143,891.39l1,3c-.67-.33-1.33-.67-2-1,.33-.67.67-1.33,1-2ZM1028,891.39h0ZM1128,891.39h0ZM1139,891.39c1.67.33,3.33.67,5,1v1h-1c-1.33-.67-2.67-1.33-4-2ZM55,892.39h2c-1.74.98-.22.91-2,0ZM382,892.39c.33.67.67,1.33,1,2h-2c.33-.67.67-1.33,1-2ZM1104,892.39c2.62,1.78,1.36.06,1,3-.33-1-.67-2-1-3ZM1110,892.39c-.71.94.16,1.56-2,1,.67-.33,1.33-.67,2-1ZM1119,892.39h2c-1.75.98-.22.91-2,0ZM39,893.39c.33.67.67,1.33,1,2-.33-.67-.67-1.33-1-2ZM51,893.39c3.07,1.25,4.05,1.83,6,2-1,1.33-2,2.67-3,4-1.37-4.81-.04.05-4-3,2.12-2.34.44.11,1-3ZM84,893.39c.67.33,1.33.67,2,1-.67-.33-1.33-.67-2-1ZM148,893.39c.33.67.67,1.33,1,2-.33-.67-.67-1.33-1-2ZM1046,893.39c1.92,1.39.6.1,2,2l-2-2ZM1052,893.39c.33.67.67,1.33,1,2-.33-.67-.67-1.33-1-2ZM1102,893.39c1.92,1.39.6.1,2,2l-2-2ZM82,894.39c.67.67,1.33,1.33,2,2-.67-.67-1.33-1.33-2-2ZM1125,894.39h2c-1.75.98-.22.91-2,0ZM136,895.39l2,3-2-3ZM1072,895.39h0ZM1113,895.39h0ZM1118,895.39c1.29,3.27,1.87,1.11,0,4v-4ZM139,896.39c.33.67.67,1.33,1,2-.33-.67-.67-1.33-1-2ZM146,896.39l1,3c.67-.67,1.33-1.33,2-2-2.56-.48-.33.67-3-1ZM1060,896.39c.33.67.67,1.33,1,2-.33-.67-.67-1.33-1-2ZM1091,896.39l2,2c-1.92-1.39-.6-.1-2-2ZM1115,896.39h0ZM57,897.39c2.05,1.36,1.61,1.12,3,3-2.7-1.6-1.38-.34-3-3ZM106,897.39c.67.33,1.33.67,2,1-.67-.33-1.33-.67-2-1ZM121,897.39c2.73,1.89.52.26,2,4-1-.33-2-.67-3-1l1-3ZM1108,897.39c1.18,2.82.75,1-1,3,.33-1,.67-2,1-3ZM49,898.39c.33.67.67,1.33,1,2-.33-.67-.67-1.33-1-2ZM66,898.39c.67.33,1.33.67,2,1-.67-.33-1.33-.67-2-1ZM134,898.39c.33.67.67,1.33,1,2-.33-.67-.67-1.33-1-2ZM1069,898.39c.33.67.67,1.33,1,2-.33-.67-.67-1.33-1-2ZM1077,898.39h0ZM1103,898.39h0ZM1133,898.39h0ZM43,899.39h0ZM53,899.39c.33.67.67,1.33,1,2-.33-.67-.67-1.33-1-2ZM1091,899.39h0ZM1059,900.39c.33.67.67,1.33,1,2-.33-.67-.67-1.33-1-2ZM1101,900.39c.67,1.33,1.33,2.67,2,4-.67-.33-1.33-.67-2-1v-3ZM41,901.39c1.85,2.79.72.14,1,4h-1v-4ZM54,901.39c.33.67.67,1.33,1,2-.33-.67-.67-1.33-1-2ZM60,901.39h0ZM77,901.39c.67.67,1.33,1.33,2,2-.67-.67-1.33-1.33-2-2ZM96,901.39h0ZM114,901.39l2,3c-2.04-1.8-.71-.02-2-3ZM336,901.39c-.42.93.8.68-1,2,.33-.67.67-1.33,1-2ZM1064,901.39c.33.67.67,1.33,1,2-.33-.67-.67-1.33-1-2ZM37,902.39c2.62,1.78,1.36.06,1,3l-1-3ZM64,902.39c-1.25,2.04-2.96,3.75-5,5v1c5.36-2.26,4.88-2.05,7-6h-2ZM72,902.39c1,.67,2,1.33,3,2-1-.67-2-1.33-3-2ZM118,902.39c.33.67.67,1.33,1,2h-2c.33-.67.67-1.33,1-2ZM122,902.39h2c-1,.67-2,1.33-3,2,.33-.67.67-1.33,1-2ZM1111,902.39c1.92,1.39.6.1,2,2l-2-2ZM35,903.39h0ZM67,903.39c.67.67,1.33,1.33,2,2-.67-.67-1.33-1.33-2-2ZM89,903.39c1.39,1.92.1.6,2,2-.67-.67-1.33-1.33-2-2ZM1069,903.39h0ZM1125,903.39h0ZM110,904.39c.67.67,1.33,1.33,2,2-.67.33-1.33.67-2,1v-3ZM1115,904.39h2c-1.75.98-.22.91-2,0ZM37,905.39c.67,1.67,1.33,3.33,2,5h-3c.33-1.67.67-3.33,1-5ZM40,905.39c.33.67.67,1.33,1,2-.33-.67-.67-1.33-1-2ZM49,905.39v2c.98-1.75.91-.22,0-2ZM18,906.39c.33.67.67,1.33,1,2-.33-.67-.67-1.33-1-2ZM31,906.39h0ZM34,907.39c.33.67.67,1.33,1,2-.33-.67-.67-1.33-1-2ZM104,907.39h0ZM114,907.39c-.22,1.47.41,1-1,3l1-3ZM41,908.39h2c-1.74.98-.22.91-2,0ZM97,908.39h2c-1.74.98-.22.91-2,0ZM28,909.39c.33.67.67,1.33,1,2-.33-.67-.67-1.33-1-2ZM43,909.39h3c-1.3,2.85-1.51.6-1,4-1-.33-2-.67-3-1v-1c.33-.67.67-1.33,1-2ZM65,909.39h0ZM75,909.39c.6,2.95-1.05,1.07,2,3v-1c-2.66-.97.46-.74-2-2ZM99,909.39h3v1c-3.12-.54-.9,1.37-3-1ZM105,909.39c3.39,1.23,2.02.28,2,3l-2-3ZM50,910.39l1,3c.67-.67,1.33-1.33,2-2-2.56-.48-.33.67-3-1ZM37,911.39l1,3h-1v-3ZM93,911.39l1,3h-1v-3ZM109,911.39c.33.67.67,1.33,1,2-.33-.67-.67-1.33-1-2ZM112,911.39h0ZM39,912.39c1.92,1.39.6.1,2,2-.67-.67-1.33-1.33-2-2ZM21,913.39l1,3c-.67-.33-1.33-.67-2-1,.33-.67.67-1.33,1-2ZM23,913.39h0ZM28,913.39h0ZM45,913.39l2,3-2-3ZM59,913.39c-.33.67-.67,1.33-1,2,.67-.67,1.33-1.33,2-2h-1ZM79,913.39c1.92,1.39.6.1,2,2-.67-.67-1.33-1.33-2-2ZM84,913.39h2c-1.74.98-.22.91-2,0ZM115,913.39l-3,3,6-3h-3ZM276,913.39c.33.67.67,1.33,1,2-.33-.67-.67-1.33-1-2ZM63,914.39l2,3-2-3ZM26,915.39h2c-1.74.98-.22.91-2,0ZM39,915.39h0ZM50,915.39c1,1.67,2,3.33,3,5,.67-.67,1.33-1.33,2-2l-5-3ZM56,915.39v4h1c-.33-1.33-.67-2.67-1-4ZM267,916.39c.67.67,1.33,1.33,2,2-.67.33-1.33.67-2,1v-3ZM20,917.39c.33.67.67,1.33,1,2-.33-.67-.67-1.33-1-2ZM34,917.39h0ZM41,917.39c.67,1.33,1.33,2.67,2,4-1.33.33-2.67.67-4,1,.67-1.67,1.33-3.33,2-5ZM44,917.39c.33.67.67,1.33,1,2-.33-.67-.67-1.33-1-2ZM47,917.39c1.29,3.27,1.87,1.11,0,4h-1c.33-1.33.67-2.67,1-4ZM30,918.39h0ZM33,918.39c.67.67,1.33,1.33,2,2-.67.33-1.33.67-2,1v-3ZM66,918.39c1.86,2.57.08,1.58-2,3l2-3ZM86,918.39h0ZM89,919.39h0ZM97,919.39c.67.67,1.33,1.33,2,2h-3c.33-.67.67-1.33,1-2ZM102,919.39h3c-.67.67-1.33,1.33-2,2-.33-.67-.67-1.33-1-2ZM35,920.39l4,3-4-3ZM60,920.39c1.33.67,2.67,1.33,4,2-1.56,2.81-1.47,2.34-4,4l2-3h-4v-1c2.61-.87,3.49.4,2-2ZM23,921.39l2,3c-1,.33-2,.67-3,1,.33-1.33.67-2.67,1-4ZM27,921.39h0ZM44,921.39c2.6,1.23,4.28,1.84,6,4-.67-.33-1.33-.67-2-1-1.39,1.92-.1.6-2,2-.66-4.19-.26.23-3-3,.33-.67.67-1.33,1-2ZM31,922.39h0ZM35,922.39c1.67,1.33,3.33,2.67,5,4-.67.67-1.33,1.33-2,2l-2-3-1-3ZM91,922.39c.33.67.67,1.33,1,2-.33-.67-.67-1.33-1-2ZM26,923.39h0ZM4,924.39h0ZM30,924.39c.33.67.67,1.33,1,2h-2c.33-.67.67-1.33,1-2ZM39,924.39h0ZM54,924.39h0ZM33,926.39h0ZM41,926.39c1,.33,2,.67,3,1v1c-3.02-1.26-1.2.02-3-2ZM49,926.39c-.42.93.8.68-1,2,.33-.67.67-1.33,1-2ZM24,927.39c.33,1.67.67,3.33,1,5-.67-.33-1.33-.67-2-1v-1l1-3ZM32,927.39c.33.67.67,1.33,1,2-.33-.67-.67-1.33-1-2ZM52,927.39c1.92,1.39.6.1,2,2-.67-.67-1.33-1.33-2-2ZM26,928.39h3c-.67.67-1.33,1.33-2,2-.33-.67-.67-1.33-1-2ZM98,928.39c.67.67,1.33,1.33,2,2-.67-.67-1.33-1.33-2-2ZM18,930.39h2l-1,3-1-3ZM14,931.39c.33.67.67,1.33,1,2-.33-.67-.67-1.33-1-2ZM16,931.39c.33.67.67,1.33,1,2-.33-.67-.67-1.33-1-2ZM10,932.39c.33.67.67,1.33,1,2-.33-.67-.67-1.33-1-2ZM25,932.39c2.12,2.34.44-.11,1,3-.67-.33-1.33-.67-2-1v-1c.33-.33.67-.67,1-1ZM29,933.39h0ZM14,934.39l1,3h-1v-3ZM18,934.39h0ZM0,936.39c1.92,1.39.6.1,2,2-.67-.67-1.33-1.33-2-2ZM18,936.39h0ZM74,943.39c1.39,1.92.1.6,2,2-.67-.67-1.33-1.33-2-2ZM71,948.39c-.33.33-.67.67-1,1l4,3h1l1-3c-4.91,1.38-2.14.45-5-1ZM174,949.39c.67.33,1.33.67,2,1-.67-.33-1.33-.67-2-1ZM55,954.39c.67.67,1.33,1.33,2,2-.67-.67-1.33-1.33-2-2ZM64,956.39c.67.33,1.33.67,2,1-.67-.33-1.33-.67-2-1ZM59,958.39c2.23,4.75-.14,4.31,3,7,.09-5.35,1.66-2.3,4-7-6.41,1.71-1.6.35-7,0ZM55,963.39c.33.67.67,1.33,1,2-.33-.67-.67-1.33-1-2ZM87,963.39v3l1-3h-1ZM95,963.39c.67.67,1.33,1.33,2,2-1.39-1.92-.1-.6-2-2ZM98,963.39c.67.33,1.33.67,2,1-.67-.33-1.33-.67-2-1ZM39,965.39c.33.67.67,1.33,1,2-.33-.67-.67-1.33-1-2ZM81,965.39c.33.33.67.67,1,1-2.46,1.95-.4.57-3,1,1.95,3.64,3.25-.24,2,5,1-.67,2-1.33,3-2-1-1.67-2-3.33-3-5ZM93,966.39c.67.67,1.33,1.33,2,2-1.39-1.92-.1-.6-2-2ZM36,967.39l5,3h-4l-1-3ZM87,967.39c-.33.67-.67,1.33-1,2,.67-.67,1.33-1.33,2-2h-1ZM91,967.39c-.33.67-.67,1.33-1,2,.67-.67,1.33-1.33,2-2h-1ZM135,967.39c2.52,1.63.17.99,3,0h-3ZM59,969.39c-.33.67-.67,1.33-1,2,.33-.67.67-1.33,1-2ZM71,969.39c.67.33,1.33.67,2,1-2.63,1.63-.82,1.16-4,1,.9,5.69,2.95,10.58,8,12l2-6c-4.75-4.1-3.91-5.7-8-8ZM115,969.39c-.33.67-.67,1.33-1,2,.67-.67,1.33-1.33,2-2h-1ZM127,969.39c.67.33,1.33.67,2,1-.67-.33-1.33-.67-2-1ZM79,970.39c-.09,3.34-1.14,2.48,1,5-.33-1.67-.67-3.33-1-5ZM90,970.39c-.33,1.33-.67,2.67-1,4,1-.33,2-.67,3-1l2-3c-3.87,1.02-.47,1.54-4,0ZM39,971.39h0ZM107,971.39v4c1.33-.67,2.67-1.33,4-2-1.33-.67-2.67-1.33-4-2ZM29,972.39c1,.67,2,1.33,3,2-1.67.67-3.33,1.33-5,2,.67-1.33,1.33-2.67,2-4ZM62,972.39h0ZM118,972.39h0ZM34,973.39h0ZM52,973.39c1,.33,2,.67,3,1-1-.33-2-.67-3-1ZM81,973.39c1.39,1.92.1.6,2,2-.67-.67-1.33-1.33-2-2ZM122,973.39c.67.67,1.33,1.33,2,2-1.39-1.92-.1-.6-2-2ZM60,975.39c.67.33,1.33.67,2,1-.67-.33-1.33-.67-2-1ZM75,975.39c-.22,1.47.41,1-1,3l1-3ZM98,975.39c.33.67.67,1.33,1,2-1.67,1.33-3.33,2.67-5,4,.67.33,1.33.67,2,1v2l1-3c-.67-.33-1.33-.67-2-1,6.38-1.25,4.09-2.66,10-1-2.33-1.33-4.67-2.67-7-4ZM93,976.39c.67.33,1.33.67,2,1-.67-.33-1.33-.67-2-1ZM23,977.39l1,3h-1c-.33-.33-.67-.67-1-1,.33-.67.67-1.33,1-2ZM25,977.39h0ZM76,977.39h0ZM88,977.39c1,.67,2,1.33,3,2-1-.67-2-1.33-3-2ZM35,978.39c.33.67.67,1.33,1,2-.33-.67-.67-1.33-1-2ZM111,978.39c.67.33,1.33.67,2,1-.67-.33-1.33-.67-2-1ZM75,979.39c.33.67.67,1.33,1,2-.33-.67-.67-1.33-1-2ZM101,979.39c.67.67,1.33,1.33,2,2-.67-.67-1.33-1.33-2-2ZM106,979.39c.67.67,1.33,1.33,2,2-.67-.67-1.33-1.33-2-2ZM109,981.39c-1,.33-2,.67-3,1v1c3.65-.91,2.05.04,4-2h-1ZM32,983.39c.33.67.67,1.33,1,2-.33-.67-.67-1.33-1-2ZM52,983.39h3c-.67.67-1.33,1.33-2,2-.33-.67-.67-1.33-1-2ZM82,983.39c-.33.67-.67,1.33-1,2,1-.67,2-1.33,3-2h-2ZM69,985.39c1.33.33,2.67.67,4,1v3h-4v-4ZM24,986.39c.33.67.67,1.33,1,2-.33-.67-.67-1.33-1-2ZM89,986.39h0ZM93,986.39h0ZM31,987.39c-.33,2.67-.67,5.33-1,8-2.56-1.63-2.42-1.23-4-4,3.77-.52,1.9-.33,5-4ZM39,987.39h0ZM92,987.39c.33.67.67,1.33,1,2-.33-.67-.67-1.33-1-2ZM111,987.39h0ZM38,988.39c.33.67.67,1.33,1,2-.33-.67-.67-1.33-1-2ZM65,988.39c2.86,2.58,1.57,1.29,0,4v-4ZM90,988.39l1,3c-.67-.33-1.33-.67-2-1,.33-.67.67-1.33,1-2ZM94,988.39c.33.67.67,1.33,1,2-.33-.67-.67-1.33-1-2ZM25,989.39c.33.67.67,1.33,1,2-.33-.67-.67-1.33-1-2ZM81,989.39c.33.67.67,1.33,1,2-.33-.67-.67-1.33-1-2ZM85,989.39h0ZM31,990.39h0ZM70,990.39h3c-.67.33-1.33.67-2,1v2l-1-3ZM74,990.39h0ZM99,990.39c1.3,2.52,1.15,1.43,1,4-1-.33-2-.67-3-1l2-3ZM22,991.39c.67.67,1.33,1.33,2,2-1.92-1.39-.6-.1-2-2ZM33,991.39c.33.67.67,1.33,1,2-.33-.67-.67-1.33-1-2ZM78,991.39c.67.67,1.33,1.33,2,2-1.92-1.39-.6-.1-2-2ZM85,991.39c1.85,2.79.72.14,1,4-.67-.33-1.33-.67-2-1l1-3ZM89,991.39c.67.67,1.33,1.33,2,2-.67.33-1.33.67-2,1v-3ZM91,991.39h0ZM94,991.39c2.12,2.34.44-.11,1,3-.67-.33-1.33-.67-2-1v-1c.33-.33.67-.67,1-1ZM56,992.39c1.92,1.39.6.1,2,2-.67-.67-1.33-1.33-2-2ZM20,993.39c2.96,1.93.02.25,2,3-2.04-1.8-.71-.02-2-3ZM90,994.39c.67.67,1.33,1.33,2,2-.67.33-1.33.67-2,1v-3ZM18,996.39h0ZM27,996.39h0ZM85,996.39h0ZM18,998.39h0ZM74,998.39h0ZM82,1000.39c1.92,1.39.6.1,2,2-.67-.67-1.33-1.33-2-2ZM77,1003.39c3.02,1.26,1.2-.02,3,2h-1c-.67-.67-1.33-1.33-2-2Z"/>
  <ellipse class="cls-2" cx="643" cy="532.39" rx="570.53" ry="527.39"/>
</svg>